<svg width="55" height="55" viewBox="0 0 55 55" fill="none" xmlns="http://www.w3.org/2000/svg">
<rect width="55" height="55" fill="#253164"/>
<path d="M10.421 30.2471V34.0085H9.51275V30.2471H8.00061V29.5393H11.9331V30.2471H10.421Z" fill="white"/>
<path d="M12.9908 34.0085V29.5393H15.9029V30.2471H13.8991V31.2976H15.5307V32.0047H13.8991V33.3032H15.9029V34.0109L12.9908 34.0085Z" fill="white"/>
<path d="M19.3449 31.5065H21.5726C21.5871 31.567 21.5977 31.6284 21.6044 31.6902C21.6128 31.762 21.617 31.8341 21.617 31.9063C21.6189 32.1868 21.5738 32.4656 21.4838 32.7311C21.3945 32.9891 21.2512 33.2251 21.0636 33.4233C20.8586 33.6403 20.6098 33.8112 20.3336 33.9245C20.0252 34.0485 19.6952 34.1097 19.3629 34.1046C19.043 34.1057 18.726 34.0446 18.4295 33.9245C18.1455 33.8114 17.8868 33.6431 17.6683 33.4293C17.4498 33.2142 17.2751 32.9587 17.1538 32.6771C17.0283 32.3766 16.9636 32.0541 16.9636 31.7284C16.9636 31.4026 17.0283 31.0801 17.1538 30.7796C17.2753 30.4981 17.45 30.2427 17.6683 30.0274C17.887 29.814 18.1456 29.6459 18.4295 29.5328C19.0477 29.2906 19.7354 29.2951 20.3504 29.5454C20.6328 29.6671 20.8868 29.8464 21.096 30.0718L20.5059 30.6493C20.284 30.4236 20.0007 30.2682 19.6912 30.2022C19.3817 30.1362 19.0596 30.1627 18.765 30.2783C18.583 30.3496 18.4169 30.4564 18.2764 30.5923C18.1336 30.7323 18.0203 30.8994 17.9432 31.0839C17.7775 31.4976 17.7775 31.9591 17.9432 32.3728C18.0204 32.558 18.1348 32.7253 18.2794 32.8644C18.4212 33.0001 18.5883 33.1068 18.771 33.1784C19.1603 33.3249 19.5892 33.3273 19.98 33.185C20.1378 33.1214 20.283 33.0301 20.4086 32.9154C20.4982 32.833 20.5724 32.7352 20.6277 32.6267C20.6916 32.5029 20.7396 32.3716 20.7706 32.2359H19.3449V31.5065Z" fill="white"/>
<path d="M3.38254 32.2509V29.5496H2.95513V29.5658C2.95513 29.7278 2.95513 32.2515 2.95513 32.2515C2.95346 32.4818 2.99164 32.7107 3.06799 32.928C3.21746 33.3416 3.58064 33.6838 3.93541 33.8513C4.05064 33.9045 4.17145 33.9448 4.29559 33.9713C4.50329 34.0248 5.00694 34.0067 5.30709 34.0073C3.33092 33.6244 3.38254 32.2509 3.38254 32.2509Z" fill="#EF9F0B"/>
<path d="M3.48096 29.549H4.06504V32.0804C4.06485 32.2342 4.08772 32.3872 4.13288 32.5342C4.17518 32.6796 4.22856 32.8214 4.29255 32.9586C4.45163 33.2996 4.68815 33.6147 5.01771 33.7888C5.06042 33.8153 5.10672 33.8355 5.15518 33.8489C5.15518 33.8489 4.40721 33.7114 3.94558 33.254C3.66154 32.9697 3.49922 32.5861 3.49296 32.1842L3.48096 29.549Z" fill="#B01730"/>
<path d="M6.60191 33.4653C6.90986 33.1477 7.07855 32.7347 7.06114 32.1939V29.543H6.13308V32.1939C6.13308 33.6898 4.52429 33.1483 4.52429 33.1483C4.52429 33.1483 4.99252 34.0404 6.01542 33.8243C6.23951 33.7592 6.44204 33.6353 6.60191 33.4653Z" fill="white"/>
<path d="M3.97981 36.3647H3.27627L3.10218 36.7003H2.7312L3.67727 34.9372H4.08847L4.40902 36.7003H4.03564L3.97981 36.3647ZM3.93419 36.0898L3.80813 35.3442L3.41974 36.0904L3.93419 36.0898Z" fill="white"/>
<path d="M6.00939 35.3977C6.05259 35.4414 6.08604 35.4939 6.10756 35.5515C6.12908 35.6091 6.13818 35.6706 6.13425 35.732C6.13467 35.7811 6.13044 35.8302 6.12164 35.8785L5.97517 36.6979H5.6252L5.76087 35.9259C5.76609 35.8968 5.7687 35.8673 5.76867 35.8377C5.77154 35.8027 5.76722 35.7675 5.75597 35.7342C5.74471 35.701 5.72677 35.6704 5.70324 35.6444C5.67735 35.6214 5.64714 35.6037 5.61437 35.5925C5.58159 35.5812 5.54691 35.5766 5.51234 35.5789C5.42467 35.577 5.33929 35.6071 5.27223 35.6636C5.20261 35.7266 5.15611 35.8112 5.14016 35.9037L5.00149 36.6931H4.64612L4.89284 35.2962H5.24821L5.2182 35.4673C5.27654 35.4079 5.34585 35.3604 5.4223 35.3274C5.5003 35.2933 5.5845 35.2758 5.66962 35.2758C5.79441 35.2707 5.91629 35.3144 6.00939 35.3977Z" fill="white"/>
<path d="M6.91467 35.301L6.66975 36.6979H6.30957L6.55689 35.301H6.91467ZM6.63493 35.0867C6.61865 35.0713 6.60576 35.0526 6.59708 35.032C6.5884 35.0113 6.58412 34.989 6.58451 34.9666C6.58416 34.934 6.59084 34.9017 6.6041 34.8718C6.61736 34.842 6.63688 34.8154 6.66134 34.7937C6.70948 34.7468 6.77423 34.7209 6.84143 34.7217C6.88987 34.7197 6.93713 34.737 6.9729 34.7697C6.98917 34.7851 7.00207 34.8038 7.01075 34.8245C7.01943 34.8451 7.02371 34.8674 7.02332 34.8898C7.02362 34.9223 7.01704 34.9545 7.004 34.9843C6.99097 35.0141 6.97177 35.0408 6.94768 35.0627C6.9239 35.0859 6.89573 35.1042 6.86481 35.1165C6.8339 35.1287 6.80085 35.1347 6.7676 35.1341C6.71886 35.1364 6.67119 35.1193 6.63493 35.0867Z" fill="white"/>
<path d="M7.65361 36.3725L8.19387 35.301H8.57446L7.81028 36.6978H7.37687L7.10974 35.301H7.48793L7.65361 36.3725Z" fill="white"/>
<path d="M9.80923 35.4252C9.86189 35.4766 9.90304 35.5387 9.92995 35.6072C9.95685 35.6757 9.96891 35.7491 9.96531 35.8226C9.9657 35.8709 9.96168 35.9191 9.9533 35.9667C9.9431 36.0171 9.93169 36.0603 9.92028 36.0976H8.89978C8.89864 36.1143 8.89864 36.1312 8.89978 36.148C8.89749 36.1857 8.90315 36.2234 8.91639 36.2588C8.92963 36.2942 8.95015 36.3263 8.97662 36.3533C9.00376 36.3786 9.03569 36.3982 9.07054 36.411C9.10539 36.4238 9.14244 36.4295 9.17952 36.4277C9.24271 36.4289 9.30502 36.4127 9.35961 36.3809C9.4102 36.3514 9.45301 36.3102 9.48447 36.2608H9.86566C9.80231 36.3961 9.70227 36.5109 9.57692 36.5922C9.4457 36.6791 9.29127 36.7243 9.1339 36.7219C8.97687 36.7293 8.82313 36.6752 8.70529 36.5712C8.65092 36.5179 8.60843 36.4537 8.5806 36.3828C8.55277 36.312 8.54023 36.236 8.54381 36.16C8.54421 36.1066 8.54943 36.0534 8.55942 36.0009C8.58152 35.8639 8.63448 35.7338 8.71429 35.6203C8.78931 35.5138 8.88927 35.4272 9.00544 35.3682C9.12346 35.3089 9.25394 35.2786 9.38602 35.2799C9.54062 35.2715 9.69244 35.3236 9.80923 35.4252ZM9.60753 35.8244C9.60925 35.7891 9.60315 35.7538 9.58966 35.7211C9.57617 35.6885 9.55562 35.6592 9.52949 35.6353C9.47217 35.5883 9.39947 35.5641 9.32539 35.5675C9.23789 35.5666 9.15288 35.5966 9.08528 35.6521C9.01254 35.7113 8.96042 35.792 8.9364 35.8826H9.60213C9.60573 35.8562 9.60753 35.837 9.60753 35.8244Z" fill="white"/>
<path d="M10.8507 35.3514C10.9301 35.3044 11.0208 35.2799 11.1131 35.2806L11.0476 35.6516H10.954C10.8653 35.6471 10.7774 35.6708 10.7031 35.7194C10.6317 35.7783 10.5831 35.8603 10.5656 35.9511L10.4347 36.6979H10.0793L10.3261 35.301H10.6814L10.6388 35.5477C10.6946 35.4679 10.7669 35.401 10.8507 35.3514Z" fill="white"/>
<path d="M11.3665 36.6685C11.2894 36.6388 11.2215 36.5893 11.1696 36.525C11.122 36.4651 11.0966 36.3907 11.0976 36.3143C11.0981 36.2942 11.0999 36.2741 11.103 36.2543H11.4457C11.4423 36.2805 11.4453 36.3071 11.4545 36.3319C11.4637 36.3567 11.4789 36.3789 11.4986 36.3965C11.5471 36.4353 11.6083 36.4545 11.6702 36.4506C11.7283 36.4528 11.7859 36.4402 11.8377 36.4139C11.8573 36.4049 11.874 36.3905 11.8859 36.3724C11.8978 36.3544 11.9044 36.3334 11.905 36.3118C11.9055 36.2902 11.9 36.2688 11.8891 36.2502C11.8782 36.2315 11.8623 36.2163 11.8431 36.2062C11.7807 36.1716 11.7152 36.1428 11.6474 36.1204C11.5717 36.0942 11.4977 36.0631 11.4259 36.0274C11.3666 35.9968 11.3147 35.9536 11.274 35.9007C11.2313 35.8415 11.2101 35.7695 11.214 35.6966C11.2127 35.6176 11.2378 35.5405 11.2855 35.4775C11.3376 35.4106 11.4069 35.3591 11.486 35.3286C11.58 35.2918 11.6803 35.2738 11.7813 35.2758C11.8772 35.2738 11.9725 35.2918 12.061 35.3286C12.136 35.3597 12.201 35.4108 12.2489 35.4763C12.2933 35.5393 12.3166 35.6147 12.3156 35.6918C12.3168 35.7068 12.3168 35.7218 12.3156 35.7368H11.9878C11.9913 35.711 11.9885 35.6847 11.9797 35.6601C11.9709 35.6356 11.9564 35.6135 11.9374 35.5957C11.8895 35.5577 11.8291 35.5388 11.7681 35.5429C11.7159 35.5408 11.6642 35.5544 11.6198 35.5819C11.6015 35.5925 11.5863 35.6077 11.5758 35.6261C11.5652 35.6444 11.5597 35.6652 11.5598 35.6864C11.5601 35.7085 11.5663 35.7302 11.5778 35.7491C11.5893 35.768 11.6057 35.7834 11.6252 35.7938C11.6893 35.8309 11.7569 35.8616 11.8269 35.8857C11.9014 35.9138 11.9741 35.9463 12.0448 35.9829C12.1004 36.0124 12.1491 36.0533 12.1877 36.103C12.2293 36.1584 12.2506 36.2264 12.2477 36.2957C12.249 36.3775 12.2211 36.4571 12.1691 36.5202C12.1124 36.5875 12.0382 36.638 11.9548 36.6661C11.8561 36.701 11.7521 36.7181 11.6474 36.7165C11.5515 36.7195 11.456 36.7032 11.3665 36.6685Z" fill="white"/>
<path d="M12.6571 35.6185C12.727 35.514 12.8208 35.4275 12.9308 35.3664C13.0354 35.3082 13.1532 35.2778 13.273 35.2782C13.3649 35.2751 13.4559 35.2969 13.5365 35.3412C13.603 35.3781 13.6577 35.4331 13.6944 35.4997L13.7298 35.301H14.0852L13.8379 36.6979H13.4825L13.5203 36.4932C13.4574 36.5649 13.3798 36.6223 13.2928 36.6614C13.2058 36.7005 13.1114 36.7206 13.0161 36.7201C12.9206 36.722 12.8265 36.6982 12.7435 36.6511C12.6643 36.6049 12.6004 36.5364 12.5598 36.4542C12.5143 36.3623 12.4916 36.2607 12.4938 36.1582C12.4942 36.1033 12.4993 36.0484 12.5088 35.9943C12.531 35.86 12.5816 35.7319 12.6571 35.6185ZM13.6145 35.9031C13.6177 35.8617 13.6121 35.8202 13.598 35.7812C13.5839 35.7422 13.5617 35.7066 13.5328 35.6768C13.5039 35.6471 13.469 35.6238 13.4304 35.6086C13.3918 35.5934 13.3504 35.5865 13.309 35.5885C13.2427 35.5886 13.1773 35.6049 13.1187 35.636C13.0555 35.67 13.0007 35.7178 12.9584 35.7758C12.9119 35.8407 12.8808 35.9155 12.8678 35.9943C12.8631 36.0243 12.8607 36.0546 12.8606 36.085C12.8579 36.1287 12.8641 36.1725 12.8787 36.2137C12.8934 36.255 12.9162 36.2929 12.9458 36.3251C12.9742 36.3537 13.0081 36.3761 13.0455 36.3911C13.0828 36.4061 13.1229 36.4132 13.1631 36.4121C13.23 36.4115 13.2957 36.3946 13.3546 36.3629C13.4182 36.3283 13.473 36.2797 13.5149 36.2206C13.5607 36.155 13.5913 36.0799 13.6043 36.0009C13.6099 35.9686 13.6133 35.9359 13.6145 35.9031Z" fill="white"/>
<path d="M14.9538 35.3514C15.0331 35.3044 15.1238 35.2799 15.2161 35.2806L15.1506 35.6516H15.057C14.9683 35.6471 14.8804 35.6708 14.8061 35.7194C14.7348 35.7783 14.6862 35.8603 14.6686 35.9511L14.5377 36.6979H14.1824L14.4291 35.301H14.7851L14.7418 35.5477C14.7977 35.4679 14.8699 35.401 14.9538 35.3514Z" fill="white"/>
<path d="M15.8026 35.301L15.5541 36.6979H15.1987L15.4455 35.301H15.8026ZM15.5229 35.0867C15.5066 35.0713 15.4937 35.0526 15.485 35.032C15.4764 35.0113 15.4721 34.989 15.4725 34.9666C15.4722 34.934 15.479 34.9017 15.4922 34.8719C15.5055 34.8421 15.5249 34.8154 15.5493 34.7937C15.5976 34.7471 15.6622 34.7212 15.7294 34.7217C15.7776 34.7198 15.8247 34.7371 15.8603 34.7697C15.8765 34.7851 15.8894 34.8038 15.8981 34.8244C15.9068 34.8451 15.9111 34.8674 15.9107 34.8898C15.911 34.9223 15.9044 34.9545 15.8914 34.9843C15.8783 35.0141 15.8591 35.0408 15.835 35.0627C15.8113 35.086 15.7831 35.1043 15.7522 35.1166C15.7213 35.1288 15.6882 35.1348 15.655 35.1341C15.6064 35.1361 15.559 35.1191 15.5229 35.0867Z" fill="white"/>
<path d="M16.2103 36.6475C16.1205 36.6008 16.0464 36.5288 15.9971 36.4404C15.9454 36.3463 15.9193 36.2403 15.9215 36.133C15.9198 35.9813 15.9585 35.8319 16.0338 35.7002C16.1067 35.5717 16.2129 35.4651 16.3411 35.3917C16.4734 35.3155 16.6237 35.2763 16.7763 35.2782C16.8871 35.276 16.9967 35.3016 17.0951 35.3526C17.1859 35.3994 17.2612 35.4716 17.3118 35.5603C17.3646 35.6543 17.3913 35.7606 17.3892 35.8683C17.3913 36.0204 17.3521 36.1702 17.2758 36.3017C17.2015 36.43 17.0938 36.5358 16.9642 36.6079C16.8308 36.6832 16.6798 36.7219 16.5266 36.7201C16.4168 36.7226 16.308 36.6976 16.2103 36.6475ZM16.8039 36.3473C16.8736 36.2974 16.9292 36.2304 16.9654 36.1528C17.0045 36.0736 17.025 35.9866 17.0255 35.8983C17.0283 35.8557 17.0223 35.8129 17.0078 35.7728C16.9934 35.7326 16.9708 35.6958 16.9414 35.6648C16.9131 35.6376 16.8797 35.6164 16.8431 35.6024C16.8065 35.5884 16.7675 35.5818 16.7283 35.5831C16.6463 35.582 16.5662 35.6077 16.5002 35.6564C16.4322 35.7067 16.3786 35.774 16.3447 35.8515C16.3081 35.9328 16.2893 36.021 16.2895 36.1102C16.2868 36.1518 16.2925 36.1935 16.3061 36.2328C16.3197 36.2722 16.341 36.3085 16.3687 36.3395C16.396 36.3665 16.4286 36.3876 16.4645 36.4015C16.5003 36.4153 16.5386 36.4216 16.577 36.42C16.6587 36.4194 16.7381 36.3932 16.8039 36.3449V36.3473Z" fill="white"/>
<path d="M2.96831 37.8324L3.01514 37.5785H3.48337L3.23785 38.964H2.95691L3.15561 37.8324H2.96831Z" fill="white"/>
<path d="M4.08425 38.7412C4.12258 38.742 4.1605 38.7332 4.19449 38.7154C4.22849 38.6977 4.25746 38.6717 4.27874 38.6398C4.34008 38.5366 4.37894 38.4216 4.3928 38.3024C4.35379 38.3454 4.30528 38.3787 4.25113 38.3997C4.19394 38.4229 4.13279 38.435 4.07104 38.4351C3.97282 38.4398 3.8764 38.4075 3.80091 38.3444C3.76594 38.3118 3.7386 38.2719 3.72086 38.2275C3.70311 38.183 3.69539 38.1353 3.69826 38.0875C3.699 38.0523 3.70241 38.0172 3.70846 37.9825C3.72844 37.8486 3.79548 37.7262 3.89756 37.6373C4.00233 37.5497 4.13567 37.5038 4.27214 37.5082C4.41501 37.5082 4.51846 37.5444 4.58249 37.6169C4.65243 37.7085 4.68639 37.8225 4.67794 37.9374C4.6769 38.0332 4.66706 38.1286 4.64853 38.2226C4.62628 38.3647 4.58739 38.5037 4.53267 38.6368C4.4927 38.7346 4.42641 38.8193 4.34118 38.8817C4.25217 38.94 4.14735 38.9693 4.04103 38.9657C3.98683 38.9701 3.9323 38.9635 3.88073 38.9462C3.82916 38.929 3.78159 38.9015 3.74088 38.8655C3.70813 38.8314 3.68255 38.7911 3.66564 38.747C3.64873 38.7029 3.64084 38.6558 3.64243 38.6086C3.64165 38.5936 3.64165 38.5785 3.64243 38.5635H3.89636C3.89796 38.682 3.96059 38.7412 4.08425 38.7412ZM4.33397 38.1499C4.3821 38.1063 4.41316 38.0469 4.42161 37.9825C4.42541 37.9627 4.42742 37.9426 4.42762 37.9224C4.42929 37.8978 4.42565 37.8731 4.41695 37.85C4.40826 37.8269 4.3947 37.806 4.37719 37.7886C4.33762 37.7565 4.28758 37.7403 4.23672 37.7429C4.17045 37.7404 4.10582 37.7639 4.05664 37.8084C4.00768 37.854 3.97535 37.9146 3.96479 37.9807C3.96117 37.9987 3.95917 38.0169 3.95879 38.0353C3.95774 38.0595 3.96173 38.0836 3.97052 38.1061C3.9793 38.1286 3.99268 38.1491 4.00981 38.1662C4.05227 38.2018 4.10699 38.2195 4.16229 38.2154C4.22584 38.2167 4.2874 38.1932 4.33397 38.1499Z" fill="white"/>
<path d="M5.60965 37.7736C5.57327 37.7434 5.52649 37.7288 5.47939 37.7328C5.4372 37.7317 5.39539 37.741 5.35762 37.7599C5.31984 37.7787 5.28725 37.8065 5.26268 37.8408C5.1947 37.9475 5.15085 38.0678 5.13422 38.1932C5.17702 38.1409 5.2318 38.0997 5.2939 38.0731C5.35759 38.0441 5.4268 38.0291 5.4968 38.0293C5.59264 38.0242 5.68665 38.057 5.75853 38.1206C5.79161 38.1549 5.81718 38.1957 5.83361 38.2405C5.85005 38.2852 5.85698 38.3329 5.85398 38.3805C5.85421 38.4183 5.8508 38.4561 5.84377 38.4933C5.82979 38.5817 5.79659 38.6659 5.74652 38.7401C5.69782 38.8117 5.63172 38.8697 5.55443 38.9087C5.47107 38.9499 5.37905 38.9705 5.2861 38.9688C5.13402 38.9688 5.02477 38.9312 4.95834 38.8559C4.886 38.7617 4.85056 38.6443 4.85869 38.5258C4.86062 38.427 4.87106 38.3286 4.8899 38.2316C4.93192 37.9915 5.00396 37.8114 5.10781 37.6913C5.15967 37.6315 5.22443 37.5842 5.29721 37.553C5.37 37.5218 5.44891 37.5075 5.52801 37.5113C5.66488 37.5113 5.76393 37.5485 5.82816 37.6223C5.85963 37.6607 5.88311 37.7051 5.89723 37.7527C5.91135 37.8003 5.91583 37.8503 5.9104 37.8997H5.65648C5.65773 37.8532 5.64095 37.808 5.60965 37.7736ZM5.21106 38.3139C5.18353 38.3351 5.16049 38.3615 5.14328 38.3917C5.12607 38.4219 5.11504 38.4552 5.11081 38.4897C5.1068 38.5095 5.10479 38.5296 5.10481 38.5498C5.10333 38.5754 5.10734 38.601 5.11655 38.6249C5.12576 38.6488 5.13998 38.6705 5.15823 38.6884C5.20214 38.7235 5.25762 38.7409 5.31371 38.7371C5.37973 38.7394 5.44414 38.7164 5.4938 38.6728C5.54339 38.6273 5.57564 38.566 5.58504 38.4993C5.58884 38.4796 5.59084 38.4595 5.59105 38.4393C5.59255 38.4148 5.58901 38.3902 5.58065 38.367C5.57229 38.3439 5.55928 38.3228 5.54242 38.3049C5.5225 38.2873 5.49928 38.274 5.47414 38.2655C5.44899 38.2571 5.42241 38.2537 5.39595 38.2556C5.32978 38.2535 5.26478 38.2734 5.21106 38.3121V38.3139Z" fill="white"/>
<path d="M6.20692 37.9531C6.20688 37.929 6.20888 37.9049 6.21292 37.8811C6.22495 37.8109 6.25517 37.745 6.30056 37.6902C6.35076 37.6286 6.41499 37.5801 6.48785 37.5485C6.57392 37.511 6.66714 37.4928 6.76099 37.4951C6.87214 37.4872 6.98244 37.5193 7.07194 37.5857C7.10605 37.6136 7.13335 37.6489 7.15176 37.689C7.17018 37.729 7.17921 37.7728 7.17819 37.8168C7.17811 37.8383 7.1763 37.8598 7.17279 37.8811C7.16081 37.9503 7.13078 38.0151 7.08575 38.069C7.04148 38.1225 6.98593 38.1655 6.92307 38.195C6.97707 38.2184 7.02272 38.2576 7.05402 38.3074C7.08531 38.3572 7.10077 38.4154 7.09835 38.4742C7.09746 38.5003 7.09485 38.5264 7.09055 38.5522C7.07546 38.6395 7.03756 38.7213 6.9807 38.7893C6.9232 38.8564 6.85057 38.9089 6.76879 38.9424C6.68211 38.9778 6.58929 38.9957 6.49566 38.9952C6.38099 39.0006 6.26786 38.9672 6.1745 38.9004C6.13497 38.8694 6.10344 38.8294 6.08255 38.7838C6.06166 38.7382 6.05202 38.6882 6.05444 38.638C6.05482 38.5268 6.09267 38.4189 6.16189 38.3319C6.2127 38.2706 6.27845 38.2235 6.35279 38.195C6.30774 38.173 6.27 38.1385 6.24412 38.0956C6.21824 38.0527 6.20532 38.0032 6.20692 37.9531ZM6.42362 38.3733C6.39687 38.3932 6.37441 38.4183 6.35759 38.447C6.34078 38.4758 6.32996 38.5077 6.32577 38.5408C6.32303 38.557 6.32182 38.5735 6.32217 38.59C6.32108 38.6146 6.32559 38.6391 6.33537 38.6616C6.34514 38.6842 6.35993 38.7043 6.3786 38.7203C6.42341 38.7555 6.4796 38.773 6.53648 38.7695C6.5752 38.7709 6.61381 38.7645 6.65001 38.7507C6.68621 38.7369 6.71925 38.7159 6.74718 38.6891C6.77397 38.6635 6.79512 38.6326 6.80928 38.5984C6.82344 38.5642 6.8303 38.5274 6.82942 38.4904C6.83051 38.4655 6.82563 38.4408 6.81518 38.4182C6.80474 38.3957 6.78904 38.3759 6.76939 38.3607C6.72412 38.328 6.66908 38.3117 6.61332 38.3145C6.54545 38.3129 6.4789 38.3333 6.42362 38.3727V38.3733ZM6.55629 37.773C6.51069 37.8102 6.48069 37.8631 6.47225 37.9213C6.47225 37.9399 6.46804 37.9525 6.46804 37.9603C6.46712 37.9818 6.47113 38.0033 6.47976 38.0231C6.4884 38.0429 6.50143 38.0604 6.51787 38.0744C6.55595 38.1041 6.6035 38.119 6.65173 38.1164C6.71826 38.1178 6.78278 38.0935 6.83182 38.0485C6.85579 38.0268 6.87478 38.0002 6.88753 37.9704C6.90027 37.9407 6.90645 37.9086 6.90566 37.8763C6.90696 37.8545 6.90326 37.8328 6.89483 37.8127C6.8864 37.7926 6.87347 37.7747 6.85704 37.7604C6.81756 37.7318 6.76941 37.7178 6.72077 37.7208C6.66147 37.7187 6.6033 37.7374 6.55629 37.7736V37.773Z" fill="white"/>
<path d="M7.91174 38.5384C7.8898 38.5197 7.87228 38.4964 7.86044 38.4701C7.84861 38.4439 7.84275 38.4153 7.84331 38.3865C7.84268 38.3572 7.84848 38.328 7.8603 38.3012C7.87212 38.2743 7.88968 38.2504 7.91174 38.231C7.96217 38.1892 8.02641 38.1678 8.09183 38.171C8.15731 38.1673 8.22172 38.1888 8.27192 38.231C8.29398 38.2504 8.31154 38.2743 8.32336 38.3012C8.33518 38.328 8.34098 38.3572 8.34035 38.3865C8.3409 38.4153 8.33505 38.4439 8.32322 38.4701C8.31138 38.4964 8.29386 38.5197 8.27192 38.5384C8.2216 38.5804 8.15728 38.6018 8.09183 38.5984C8.02644 38.6013 7.96229 38.58 7.91174 38.5384Z" fill="#B01730"/>
<path d="M9.11168 38.6458C9.25575 38.5409 9.36921 38.4547 9.45205 38.3871C9.52976 38.3248 9.6015 38.2555 9.66636 38.18C9.7203 38.1212 9.75759 38.0491 9.77441 37.9711C9.77839 37.9525 9.7804 37.9336 9.78041 37.9146C9.78162 37.8946 9.77874 37.8745 9.77192 37.8556C9.76511 37.8367 9.75452 37.8194 9.74079 37.8048C9.70727 37.7768 9.66428 37.7629 9.62073 37.7658C9.59137 37.7649 9.56215 37.7702 9.53488 37.7811C9.50762 37.7921 9.4829 37.8085 9.46226 37.8294C9.4166 37.8799 9.38621 37.9424 9.37461 38.0095H9.11108C9.1326 37.8705 9.20411 37.7441 9.31218 37.6541C9.41392 37.5743 9.54005 37.5319 9.66936 37.5341C9.77474 37.5264 9.87911 37.5588 9.9617 37.6247C9.99475 37.6551 10.0208 37.6923 10.038 37.7338C10.0552 37.7752 10.0632 37.82 10.0614 37.8648C10.0617 37.8944 10.0591 37.924 10.0535 37.9531C10.0341 38.056 9.98907 38.1524 9.92268 38.2334C9.85555 38.3214 9.77906 38.402 9.69457 38.4735C9.61453 38.5419 9.50848 38.6236 9.37641 38.7184H9.9521L9.91128 38.9459H8.95081L8.98562 38.743L9.11168 38.6458Z" fill="white"/>
<path d="M10.4174 37.7346C10.4708 37.6713 10.5382 37.6213 10.6143 37.5884C10.6903 37.5556 10.7729 37.5409 10.8556 37.5455C11.139 37.5455 11.2806 37.699 11.2806 38.0059C11.2802 38.0883 11.2724 38.1705 11.2572 38.2514C11.1744 38.7237 10.9573 38.9598 10.6059 38.9598C10.3226 38.9598 10.1807 38.8057 10.1803 38.4976C10.1807 38.415 10.1886 38.3326 10.2037 38.2514C10.2297 38.0638 10.3033 37.8858 10.4174 37.7346ZM11.0117 38.0347C11.0153 37.9734 10.9991 37.9126 10.9655 37.8612C10.9464 37.8395 10.9223 37.8228 10.8954 37.8123C10.8684 37.8019 10.8393 37.7981 10.8106 37.8012C10.7652 37.7983 10.7199 37.808 10.6797 37.8292C10.6394 37.8504 10.6058 37.8822 10.5825 37.9213C10.5261 38.0248 10.4891 38.1377 10.4732 38.2544C10.4602 38.3242 10.453 38.3948 10.4516 38.4657C10.4479 38.5277 10.4638 38.5893 10.4973 38.6416C10.5164 38.6634 10.5406 38.6803 10.5676 38.6907C10.5947 38.7012 10.6239 38.7049 10.6527 38.7017C10.7167 38.7047 10.7794 38.6833 10.828 38.6416C10.8742 38.5983 10.9091 38.5443 10.9295 38.4844C10.9563 38.4062 10.9764 38.3258 10.9895 38.2442C11.0027 38.1753 11.0101 38.1055 11.0117 38.0353V38.0347Z" fill="white"/>
<path d="M11.4913 38.6458C11.6362 38.541 11.7496 38.4547 11.8317 38.3871C11.9097 38.325 11.9817 38.2557 12.0466 38.18C12.1005 38.1212 12.1378 38.0491 12.1546 37.9711C12.1586 37.9526 12.1606 37.9336 12.1607 37.9147C12.1619 37.8946 12.159 37.8744 12.1521 37.8555C12.1452 37.8366 12.1344 37.8193 12.1204 37.8048C12.087 37.7768 12.0439 37.7628 12.0004 37.7658C11.9711 37.765 11.942 37.7702 11.9148 37.7812C11.8876 37.7921 11.863 37.8086 11.8425 37.8294C11.7968 37.88 11.7665 37.9424 11.7549 38.0095H11.4913C11.5128 37.8705 11.5843 37.7442 11.6924 37.6542C11.794 37.5743 11.9199 37.5319 12.049 37.5341C12.1546 37.5263 12.2592 37.5587 12.3419 37.6247C12.3749 37.6552 12.4009 37.6924 12.4181 37.7339C12.4353 37.7753 12.4433 37.82 12.4416 37.8649C12.4416 37.8944 12.439 37.924 12.4338 37.9531C12.4143 38.056 12.3693 38.1524 12.3029 38.2334C12.2358 38.3215 12.1593 38.402 12.0748 38.4736C11.9926 38.542 11.8869 38.6236 11.7567 38.7185H12.3323L12.2909 38.9448H11.3304L11.3659 38.7419L11.4913 38.6458Z" fill="white"/>
<path d="M12.4962 38.6866L12.5334 38.4723L13.333 37.5593H13.6488L13.4951 38.4489H13.6644L13.6236 38.689H13.4531L13.4027 38.9664H13.1313L13.18 38.689L12.4962 38.6866ZM13.3426 37.8516L12.8396 38.4519H13.2376L13.3426 37.8516Z" fill="white"/>
<path d="M48.8884 32.3914C48.8883 33.0867 48.7365 33.7736 48.4434 34.4042C48.1504 35.0347 47.7233 35.5937 47.1918 36.0421C46.6604 36.4904 46.0375 36.8174 45.3667 37.0001C44.6958 37.1829 43.9931 37.2169 43.3077 37.1C42.6223 36.983 41.9707 36.7179 41.3984 36.323C40.8261 35.9282 40.3469 35.4131 39.9942 34.8139C39.6415 34.2147 39.4239 33.5457 39.3566 32.8537C39.2892 32.1616 39.3737 31.4632 39.6042 30.8072L40.2934 29.5214L41.9364 26.4545L43.1106 24.2622L46.6025 17.7424H48.7557L45.2476 24.2892L44.2871 26.0853L43.4467 27.6605L41.7689 30.782C41.4493 31.2355 41.271 31.7735 41.2566 32.3281C41.2422 32.8828 41.3922 33.4293 41.6879 33.8988C41.9482 34.3134 42.3122 34.653 42.7439 34.8839C43.1756 35.1148 43.6601 35.229 44.1495 35.2153C44.6389 35.2016 45.1163 35.0604 45.5344 34.8057C45.9526 34.5511 46.297 34.1917 46.5337 33.7631C46.7704 33.3345 46.8912 32.8516 46.8841 32.3621C46.877 31.8725 46.7423 31.3933 46.4933 30.9718C46.2442 30.5502 45.8895 30.201 45.4642 29.9585C45.0389 29.716 44.5576 29.5888 44.068 29.5892C44.0422 29.5892 44.017 29.5892 43.993 29.5892L45.0063 27.6965C46.0987 27.9049 47.0842 28.4878 47.7928 29.3449C48.5015 30.2019 48.8889 31.2793 48.8884 32.3914Z" fill="white"/>
<path d="M52.2687 32.4027C52.266 34.2438 51.6439 36.0304 50.5026 37.475C49.3614 38.9196 47.7673 39.9383 45.9769 40.3672C44.1864 40.796 42.3038 40.61 40.6319 39.8391C38.96 39.0683 37.5961 37.7574 36.7595 36.1173L37.9355 33.9221C38.1263 34.6994 38.4641 35.4329 38.9308 36.0831C39.221 36.4856 39.5566 36.8534 39.9309 37.1793C40.6476 37.8005 41.495 38.2525 42.4102 38.5018C43.3254 38.751 44.285 38.7911 45.2178 38.619C46.1506 38.4469 47.0327 38.0671 47.7987 37.5078C48.5648 36.9484 49.1951 36.2238 49.643 35.3877C50.0909 34.5516 50.3449 33.6254 50.3862 32.6777C50.4275 31.7301 50.2549 30.7853 49.8814 29.9134C49.5078 29.0416 48.9429 28.2649 48.2283 27.6411C47.5138 27.0173 46.668 26.5622 45.7537 26.3097L46.6542 24.6217C48.2885 25.1649 49.7104 26.2088 50.7181 27.6054C51.7259 29.0021 52.2684 30.6805 52.2687 32.4027Z" fill="#B01730"/>
<path d="M46.6103 14.3939L36.0415 34.1262C35.6835 32.3928 35.894 30.5902 36.6418 28.9859C36.6418 28.9859 36.6418 28.9829 36.6418 28.9817L44.4583 14.3939H46.6103Z" fill="#B01730"/>
<path d="M34.021 32.4027C34.0227 33.935 33.5948 35.4371 32.7857 36.7384C31.9766 38.0397 30.8189 39.0881 29.4439 39.7645C28.069 40.4409 26.5319 40.7182 25.0072 40.5649C23.4826 40.4116 22.0315 39.8338 20.8187 38.8973L21.7192 37.2086C22.3534 37.7568 23.0903 38.1733 23.887 38.4339C24.6838 38.6945 25.5244 38.794 26.3599 38.7266C27.1955 38.6592 28.0093 38.4263 28.7539 38.0414C29.4986 37.6564 30.1593 37.1272 30.6974 36.4845C31.2356 35.8418 31.6405 35.0984 31.8886 34.2977C32.1367 33.497 32.223 32.6549 32.1426 31.8205C32.0621 30.9861 31.8164 30.1761 31.4199 29.4375C31.0233 28.699 30.4838 28.0467 29.8327 27.5187C29.6206 27.3439 29.397 27.1834 29.1634 27.0385C28.6527 26.7201 28.099 26.4766 27.5192 26.3151L28.4197 24.6265C28.9881 24.817 29.5338 25.0694 30.0471 25.3792C30.2283 25.4885 30.405 25.6045 30.5771 25.7274C31.6423 26.4844 32.5108 27.4854 33.1099 28.6467C33.7091 29.808 34.0215 31.0959 34.021 32.4027Z" fill="#B01730"/>
<path d="M38.7976 14.4906L37.5249 16.4403H27.2659L21.2629 27.3093C20.904 25.5761 21.1146 23.7733 21.8632 22.1695C21.8632 22.1695 21.8632 22.1659 21.8632 22.1647L26.2106 14.3939L38.7976 14.4906Z" fill="#B01730"/>
<path d="M25.1942 27.6604L25.181 27.6856L27.0107 24.2639L25.1942 27.6604Z" fill="white"/>
<path d="M35.3578 19.6916L36.6316 17.7412H28.3554L22.6526 28.3862C22.7456 28.4715 22.8423 28.5513 22.9425 28.6264C23.3482 28.9393 23.8019 29.1843 24.286 29.3521L29.4599 19.6874L35.3578 19.6916Z" fill="white"/>
<path d="M25.7861 29.5682H25.8107C25.9603 29.5684 26.1096 29.5802 26.2573 29.6036C26.7127 29.6762 27.1431 29.8604 27.5101 30.1396C27.8476 30.3953 28.1234 30.7235 28.3169 31.1001C28.3169 31.1001 28.3169 31.1001 28.3169 31.1031C28.3277 31.1241 28.3373 31.1439 28.3475 31.1631C28.6397 31.7579 28.7126 32.4366 28.5533 33.0798C28.3941 33.723 28.013 34.2894 27.4771 34.6792C26.9412 35.0689 26.285 35.257 25.624 35.2103C24.963 35.1636 24.3397 34.8851 23.8639 34.4239C23.8477 34.4089 23.8315 34.3927 23.8159 34.3765C23.6813 34.2426 23.5606 34.0954 23.4557 33.9371L22.4821 35.7662C23.2894 36.5759 24.3604 37.0692 25.5005 37.1566C26.6406 37.2439 27.7742 36.9195 28.6954 36.2422C29.6167 35.5649 30.2645 34.5796 30.5212 33.4654C30.7779 32.3511 30.6264 31.1818 30.0944 30.1697C30.0866 30.1553 30.0788 30.1408 30.0704 30.1264C30.0566 30.0994 30.0422 30.0736 30.0272 30.0472C29.7102 29.4971 29.288 29.0149 28.7846 28.6281C28.6741 28.5429 28.56 28.4636 28.443 28.388C27.9324 28.0606 27.3639 27.8341 26.7682 27.7205H26.7598L25.7705 29.5682H25.7861Z" fill="white"/>
</svg>
