<svg width="48" height="48" viewBox="0 0 64 65" fill="none" xmlns="http://www.w3.org/2000/svg">
<g clip-path="url(#clip0_12676_3365)">
<path d="M44.62 26.1299C34.08 26.1299 25.5 34.7099 25.5 45.2499C25.5 55.7899 34.08 64.3699 44.62 64.3699C55.16 64.3699 63.74 55.7899 63.74 45.2499C63.74 34.7099 55.16 26.1299 44.62 26.1299ZM44.62 60.1199C36.42 60.1199 29.75 53.4499 29.75 45.2499C29.75 37.0499 36.42 30.3799 44.62 30.3799C52.82 30.3799 59.49 37.0499 59.49 45.2499C59.49 53.4499 52.82 60.1199 44.62 60.1199Z" fill="#0033FF"/>
<path d="M23.3704 57.9897H14.8704C13.7004 57.9897 12.7504 57.0397 12.7504 55.8697V46.1297L15.5004 48.8797C15.9104 49.2897 16.4604 49.4997 17.0004 49.4997C17.5404 49.4997 18.0904 49.2897 18.5004 48.8797C19.3304 48.0497 19.3304 46.7097 18.5004 45.8797L12.1304 39.5097C11.3004 38.6797 9.96043 38.6797 9.12043 39.5097L2.75043 45.8797C1.92043 46.7097 1.92043 48.0497 2.75043 48.8797C3.58043 49.7097 4.92043 49.7097 5.75043 48.8797L8.50043 46.1297V55.8697C8.50043 59.3897 11.3604 62.2397 14.8704 62.2397H23.3704C24.5404 62.2397 25.4904 61.2897 25.4904 60.1197C25.4904 58.9497 24.5404 57.9997 23.3704 57.9997" fill="#0033FF"/>
<path d="M40.3702 7H48.8702C50.0402 7 50.9902 7.95 50.9902 9.12V18.86L48.2402 16.11C47.4102 15.28 46.0702 15.28 45.2402 16.11C44.4102 16.94 44.4102 18.28 45.2402 19.11L51.6102 25.48C52.0202 25.89 52.5702 26.1 53.1102 26.1C53.6502 26.1 54.2002 25.89 54.6102 25.48L60.9802 19.11C61.8102 18.28 61.8102 16.94 60.9802 16.11C60.1502 15.28 58.8102 15.28 57.9802 16.11L55.2302 18.86V9.12C55.2302 5.6 52.3702 2.75 48.8602 2.75H40.3602C39.1902 2.75 38.2402 3.7 38.2402 4.87C38.2402 6.04 39.1902 6.99 40.3602 6.99" fill="#0033FF"/>
<path d="M42.8504 40.2898H49.9304C51.1004 40.2898 52.0504 39.3398 52.0504 38.1698C52.0504 36.9998 51.1004 36.0498 49.9304 36.0498H46.7404V34.6298C46.7404 33.4598 45.7904 32.5098 44.6204 32.5098C43.4504 32.5098 42.5004 33.4598 42.5004 34.6298V36.0798C39.5404 36.2698 37.1904 38.7098 37.1904 41.7098C37.1904 44.7098 39.7304 47.3798 42.8604 47.3798H46.4004C47.1804 47.3798 47.8204 48.0198 47.8204 48.7998C47.8204 49.5798 47.1904 50.2198 46.4004 50.2198H39.3204C38.1504 50.2198 37.2004 51.1698 37.2004 52.3398C37.2004 53.5098 38.1504 54.4598 39.3204 54.4598H42.5104V55.8798C42.5104 57.0598 43.4604 57.9998 44.6304 57.9998C45.8004 57.9998 46.7504 57.0498 46.7504 55.8798V54.4298C49.7104 54.2398 52.0604 51.7998 52.0604 48.7998C52.0604 45.7998 49.5204 43.1298 46.3904 43.1298H42.8504C42.0704 43.1298 41.4304 42.4998 41.4304 41.7098C41.4304 40.9198 42.0704 40.2998 42.8504 40.2998" fill="#0033FF"/>
<path d="M33.99 17.6299C33.99 27.0199 26.38 34.6299 16.99 34.6299C7.6 34.6299 0 27.0099 0 17.6299C0 8.24988 7.61 0.629883 17 0.629883C26.39 0.629883 34 8.23988 34 17.6299" fill="#EB3D14"/>
</g>
<defs>
<clipPath id="clip0_12676_3365">
<rect width="63.74" height="63.74" fill="white" transform="translate(0 0.629883)"/>
</clipPath>
</defs>
</svg>
