<svg width="55" height="55" viewBox="0 0 55 55" fill="none" xmlns="http://www.w3.org/2000/svg">
<rect width="55" height="55" fill="white"/>
<g clip-path="url(#clip0_11994_84226)">
<path d="M16.5059 53.7061V49.9901C16.5059 48.332 17.5302 46.8386 19.0843 46.2506C20.4735 45.7332 22.4162 45.2628 24.9357 45.2628C27.4553 45.2628 29.3979 45.7332 30.7872 46.2506C32.3413 46.8386 33.3656 48.332 33.3656 49.9901V53.7061" fill="#E8183B"/>
<path d="M28.6679 36.9842C28.6679 39.4771 27.0313 41.4292 25.0063 41.4292C22.9812 41.4292 21.3447 39.4771 21.3447 36.9842C21.3447 34.4912 22.9812 33.0565 25.0063 33.0565C27.0313 33.0565 28.6679 34.4912 28.6679 36.9842Z" fill="#E8183B"/>
<path d="M14.3627 47.1208C13.9153 47.0855 13.4444 47.062 12.9499 47.062C10.2891 47.062 8.31113 47.6147 7.00427 48.1792C5.80337 48.6848 5.03809 49.8843 5.03809 51.1778V53.9883H44.974V51.1778C44.974 49.8725 44.2087 48.6848 43.0078 48.1792C41.6891 47.6265 39.7112 47.062 37.0621 47.062C36.5676 47.062 36.0967 47.0855 35.6493 47.1208" fill="#E8183B"/>
<path d="M15.8699 39.0303C15.8699 41.3704 14.3276 43.2049 12.432 43.2049C10.5365 43.2049 8.99414 41.3704 8.99414 39.0303C8.99414 36.6902 10.5365 35.3496 12.432 35.3496C14.3276 35.3496 15.8699 36.7019 15.8699 39.0303Z" fill="#E8183B"/>
<path d="M34.1191 39.0303C34.1191 41.3704 35.6615 43.2049 37.557 43.2049C39.4526 43.2049 40.9949 41.3704 40.9949 39.0303C40.9949 36.6902 39.4526 35.3496 37.557 35.3496C35.6615 35.3496 34.1191 36.7019 34.1191 39.0303Z" fill="#E8183B"/>
<path d="M40.9708 19.5685H43.6787C46.0687 19.5685 47.9996 17.6282 47.9996 15.2293V6.33921C47.9996 3.9403 46.0687 2 43.6787 2H22.8277C20.4377 2 18.5068 3.9403 18.5068 6.33921V15.2175C18.5068 17.6165 20.4377 19.5568 22.8277 19.5568H29.4916C30.9868 19.5568 32.4585 20.0271 33.6712 20.8973L40.9708 26.0832V19.5568V19.5685Z" fill="#E8183B"/>
<path d="M28.8209 19.886V22.085C28.8209 24.4839 26.89 26.4242 24.5 26.4242H19.508C18.0128 26.4242 16.5411 26.8946 15.3284 27.7648L8.02881 32.9507V26.4242H5.32089C2.93086 26.4242 1 24.4839 1 22.085V13.2066C1 10.8077 2.93086 8.86743 5.32089 8.86743H18.3307" fill="#E8183B"/>
</g>
<defs>
<clipPath id="clip0_11994_84226">
<rect width="47" height="52" fill="white" transform="translate(1 2)"/>
</clipPath>
</defs>
</svg>
