<svg width="48" height="32" viewBox="0 0 79 63" fill="none" xmlns="http://www.w3.org/2000/svg">
<g clip-path="url(#clip0_12676_3334)">
<path d="M76.3604 46.9971H75.0466V18.5809C75.0466 14.3008 71.5019 10.8354 67.1515 10.8354H62.2807C60.8305 10.8354 59.6531 11.9906 59.6531 13.4132C59.6531 14.8358 60.8305 15.991 62.2807 15.991H67.1515C68.6016 15.991 69.7791 17.1461 69.7791 18.5687V46.9849H9.22151V18.5809C9.22151 17.1583 10.399 16.0031 11.8491 16.0031H16.7199C18.17 16.0031 19.3475 14.848 19.3475 13.4254C19.3475 12.0027 18.17 10.8476 16.7199 10.8476H11.8491C7.48634 10.8476 3.95402 14.3252 3.95402 18.593V47.0092H2.64024C1.19014 47.0092 0.0126953 48.1643 0.0126953 49.587V54.7546C0.0126953 59.0347 3.55741 62.5001 7.90774 62.5001H71.1052C75.468 62.5001 79.0003 59.0225 79.0003 54.7546V49.587C79.0003 48.1643 77.8229 47.0092 76.3727 47.0092M73.7452 54.7546C73.7452 56.1773 72.5678 57.3324 71.1176 57.3324H7.89534C6.44523 57.3324 5.26779 56.1773 5.26779 54.7546V52.1769H73.7328V54.7546H73.7452Z" fill="#0033FF"/>
<path d="M56.6158 41.8294H61.8833C63.3334 41.8294 64.5109 40.6742 64.5109 39.2516C64.5109 37.829 63.3334 36.6738 61.8833 36.6738H56.6158C55.1657 36.6738 53.9883 37.829 53.9883 39.2516C53.9883 40.6742 55.1657 41.8294 56.6158 41.8294Z" fill="#0033FF"/>
<path d="M14.4883 39.2516C14.4883 40.6742 15.6657 41.8294 17.1158 41.8294H22.3833C23.8334 41.8294 25.0109 40.6742 25.0109 39.2516C25.0109 37.829 23.8334 36.6738 22.3833 36.6738H17.1158C15.6657 36.6738 14.4883 37.829 14.4883 39.2516Z" fill="#0033FF"/>
<path d="M57.9304 18.5808C57.9304 28.5635 49.6759 36.6616 39.5003 36.6616C29.3248 36.6616 21.0703 28.5635 21.0703 18.5808C21.0703 8.59806 29.3124 0.5 39.5003 0.5C49.6883 0.5 57.9304 8.59806 57.9304 18.5808Z" fill="#EB3D14"/>
</g>
<defs>
<clipPath id="clip0_12676_3334">
<rect width="79" height="62" fill="white" transform="translate(0 0.5)"/>
</clipPath>
</defs>
</svg>
