<svg width="48" height="48" viewBox="0 0 82 81" fill="none" xmlns="http://www.w3.org/2000/svg">
<g clip-path="url(#clip0_12676_3349)">
<path d="M65.5977 8.09492H61.4939V2.69407C61.4939 1.20725 60.2717 0 58.7665 0C57.2614 0 56.0392 1.20725 56.0392 2.69407V8.09492H46.738V2.69407C46.738 1.20725 45.5158 0 44.0107 0C42.5055 0 41.2833 1.20725 41.2833 2.69407V8.09492H29.5378V2.69407C29.5378 1.20725 28.3156 0 26.8105 0C25.3053 0 24.0831 1.20725 24.0831 2.69407V8.09492H12.3376V2.69407C12.3376 1.20725 11.1155 0 9.61028 0C8.1051 0 6.88295 1.20725 6.88295 2.69407V8.09492H2.77909C1.26105 8.09492 0.0517578 9.30216 0.0517578 10.789V64.7847C0.0517578 66.2716 1.27391 67.4788 2.77909 67.4788H38.556C40.0612 67.4788 41.2833 66.2716 41.2833 64.7847C41.2833 63.2979 40.0612 62.0907 38.556 62.0907H5.46782V24.2975H62.8704V38.0347C62.8704 39.5215 64.0926 40.7287 65.5977 40.7287C67.1029 40.7287 68.3251 39.5215 68.3251 38.0347V10.8017C68.3251 9.31487 67.1029 8.10762 65.5977 8.10762M5.46782 13.4958H62.8704V18.8966H5.46782V13.4958Z" fill="#0033FF"/>
<path d="M16.4029 29.6982H13.6756C12.1704 29.6982 10.9482 30.9055 10.9482 32.3923C10.9482 33.8791 12.1704 35.0864 13.6756 35.0864H16.4029C17.9081 35.0864 19.1302 33.8791 19.1302 32.3923C19.1302 30.9055 17.9081 29.6982 16.4029 29.6982Z" fill="#0033FF"/>
<path d="M35.5328 29.6982H32.8055C31.3003 29.6982 30.0781 30.9055 30.0781 32.3923C30.0781 33.8791 31.3003 35.0864 32.8055 35.0864H35.5328C37.038 35.0864 38.2601 33.8791 38.2601 32.3923C38.2601 30.9055 37.038 29.6982 35.5328 29.6982Z" fill="#0033FF"/>
<path d="M54.6627 29.6982H51.9353C50.4302 29.6982 49.208 30.9055 49.208 32.3923C49.208 33.8791 50.4302 35.0864 51.9353 35.0864H54.6627C56.1678 35.0864 57.39 33.8791 57.39 32.3923C57.39 30.9055 56.1678 29.6982 54.6627 29.6982Z" fill="#0033FF"/>
<path d="M16.4029 40.5H13.6756C12.1704 40.5 10.9482 41.7072 10.9482 43.1941C10.9482 44.6809 12.1704 45.8881 13.6756 45.8881H16.4029C17.9081 45.8881 19.1302 44.6809 19.1302 43.1941C19.1302 41.7072 17.9081 40.5 16.4029 40.5Z" fill="#0033FF"/>
<path d="M35.5328 40.5H32.8055C31.3003 40.5 30.0781 41.7072 30.0781 43.1941C30.0781 44.6809 31.3003 45.8881 32.8055 45.8881H35.5328C37.038 45.8881 38.2601 44.6809 38.2601 43.1941C38.2601 41.7072 37.038 40.5 35.5328 40.5Z" fill="#0033FF"/>
<path d="M16.4029 51.3018H13.6756C12.1704 51.3018 10.9482 52.509 10.9482 53.9958C10.9482 55.4827 12.1704 56.6899 13.6756 56.6899H16.4029C17.9081 56.6899 19.1302 55.4827 19.1302 53.9958C19.1302 52.509 17.9081 51.3018 16.4029 51.3018Z" fill="#0033FF"/>
<path d="M35.5328 51.3018H32.8055C31.3003 51.3018 30.0781 52.509 30.0781 53.9958C30.0781 55.4827 31.3003 56.6899 32.8055 56.6899H35.5328C37.038 56.6899 38.2601 55.4827 38.2601 53.9958C38.2601 52.509 37.038 51.3018 35.5328 51.3018Z" fill="#0033FF"/>
<path d="M82 62.0905C82 72.5236 73.4321 80.9871 62.8701 80.9871C52.3082 80.9871 43.7402 72.5236 43.7402 62.0905C43.7402 51.6573 52.3082 43.1938 62.8701 43.1938C73.4321 43.1938 82 51.6573 82 62.0905Z" fill="#EB3D14"/>
</g>
<defs>
<clipPath id="clip0_12676_3349">
<rect width="82" height="81" fill="white"/>
</clipPath>
</defs>
</svg>
