<svg width="50" height="50" viewBox="0 0 50 50" fill="none" xmlns="http://www.w3.org/2000/svg">
<path d="M2.08301 41.6667V33.3334C2.08301 32.3264 2.43891 31.4671 3.15072 30.7552C3.86252 30.0434 4.7219 29.6875 5.72884 29.6875H13.0726C13.6629 29.6875 14.2271 29.8351 14.7653 30.1302C15.3035 30.4254 15.7636 30.8334 16.1455 31.3542C17.1525 32.8125 18.4372 33.941 19.9997 34.7396C21.5622 35.5382 23.2288 35.9375 24.9997 35.9375C26.7705 35.9375 28.4372 35.5382 29.9997 34.7396C31.5622 33.941 32.8643 32.8125 33.9059 31.3542C34.2879 30.8334 34.7393 30.4254 35.2601 30.1302C35.7809 29.8351 36.3365 29.6875 36.9268 29.6875H44.2705C45.2775 29.6875 46.1368 30.0434 46.8486 30.7552C47.5604 31.4671 47.9163 32.3264 47.9163 33.3334V41.6667H34.3747V35.4688C33.1247 36.6146 31.6924 37.5 30.0778 38.125C28.4632 38.75 26.7705 39.0625 24.9997 39.0625C23.2288 39.0625 21.5448 38.75 19.9476 38.125C18.3504 37.5 16.9094 36.6146 15.6247 35.4688V41.6667H2.08301ZM24.9997 32.8125C23.7844 32.8125 22.6125 32.5261 21.484 31.9532C20.3556 31.3802 19.4441 30.5903 18.7497 29.5834C18.1941 28.7848 17.5257 28.1424 16.7445 27.6563C15.9632 27.1702 15.1212 26.8403 14.2184 26.6667C15.2254 25.625 16.8052 24.8264 18.958 24.2709C21.1108 23.7153 23.1247 23.4375 24.9997 23.4375C26.8747 23.4375 28.8972 23.7153 31.0674 24.2709C33.2375 24.8264 34.8261 25.625 35.833 26.6667C34.9302 26.8403 34.0882 27.1702 33.307 27.6563C32.5257 28.1424 31.8573 28.7848 31.3018 29.5834C30.6073 30.5903 29.6959 31.3802 28.5674 31.9532C27.4389 32.5261 26.2497 32.8125 24.9997 32.8125ZM8.33301 26.0417C6.77051 26.0417 5.42502 25.4775 4.29655 24.349C3.16808 23.2205 2.60384 21.875 2.60384 20.3125C2.60384 18.7153 3.16808 17.3612 4.29655 16.25C5.42502 15.1389 6.77051 14.5834 8.33301 14.5834C9.93023 14.5834 11.2844 15.1389 12.3955 16.25C13.5066 17.3612 14.0622 18.7153 14.0622 20.3125C14.0622 21.875 13.5066 23.2205 12.3955 24.349C11.2844 25.4775 9.93023 26.0417 8.33301 26.0417ZM41.6663 26.0417C40.1038 26.0417 38.7584 25.4775 37.6299 24.349C36.5014 23.2205 35.9372 21.875 35.9372 20.3125C35.9372 18.7153 36.5014 17.3612 37.6299 16.25C38.7584 15.1389 40.1038 14.5834 41.6663 14.5834C43.2636 14.5834 44.6177 15.1389 45.7288 16.25C46.84 17.3612 47.3955 18.7153 47.3955 20.3125C47.3955 21.875 46.84 23.2205 45.7288 24.349C44.6177 25.4775 43.2636 26.0417 41.6663 26.0417ZM24.9997 19.7917C23.4372 19.7917 22.0917 19.2275 20.9632 18.099C19.8347 16.9705 19.2705 15.625 19.2705 14.0625C19.2705 12.4653 19.8347 11.1112 20.9632 10C22.0917 8.88893 23.4372 8.33337 24.9997 8.33337C26.5969 8.33337 27.9511 8.88893 29.0622 10C30.1733 11.1112 30.7288 12.4653 30.7288 14.0625C30.7288 15.625 30.1733 16.9705 29.0622 18.099C27.9511 19.2275 26.5969 19.7917 24.9997 19.7917Z" fill="#B0003C"/>
</svg>
