<svg width="55" height="55" viewBox="0 0 55 55" fill="none" xmlns="http://www.w3.org/2000/svg">
<rect width="55" height="55" fill="white"/>
<g clip-path="url(#clip0_11994_84205)">
<path d="M4.34485 10.4884L19.9766 28.419C20.8669 29.4344 22.1515 30.0257 23.487 30.0257C24.8225 30.0257 26.1071 29.4473 26.9975 28.419L42.3875 10.7969C42.5147 10.6555 42.6673 10.5398 42.82 10.4499C42.1713 10.1671 41.4463 10 40.6959 10H6.3163C5.59131 10 4.90448 10.1414 4.28125 10.4113C4.30669 10.437 4.33213 10.4627 4.35756 10.4884H4.34485Z" fill="#D3122D"/>
<path d="M45.186 12.5193C45.1224 12.6992 45.0206 12.8792 44.8807 13.0334L29.5161 30.6555C27.9898 32.4036 25.8021 33.4062 23.5 33.4062C21.1978 33.4062 19.0102 32.4036 17.4839 30.6555L1.85215 12.7121C1.85215 12.7121 1.80128 12.635 1.77584 12.5964C1.29251 13.4062 1.0127 14.3445 1.0127 15.3599V39.6273C1.0127 42.5964 3.39116 45 6.32926 45H40.7088C43.6469 45 46.0254 42.5964 46.0254 39.6273V15.3728C46.0254 14.3188 45.7202 13.3548 45.2114 12.5193H45.186Z" fill="#D3122D"/>
</g>
<defs>
<clipPath id="clip0_11994_84205">
<rect width="45" height="35" fill="white" transform="translate(1 10)"/>
</clipPath>
</defs>
</svg>
