<svg width="55" height="55" viewBox="0 0 55 55" fill="none" xmlns="http://www.w3.org/2000/svg">
<rect width="55" height="55" fill="white"/>
<g clip-path="url(#clip0_11994_84209)">
<path d="M24.9971 9.60512V8.94649C24.9971 7.87622 24.1319 7.00589 23.068 7.00589H2.92912C1.86518 7.00001 1 7.87034 1 8.94061V43.9715H49V11.5457C49 10.4755 48.1348 9.60512 47.0709 9.60512H25.0029H24.9971Z" fill="#E8183B"/>
<path d="M47.3106 12.4043H3.12793V44.3302H47.3106V12.4043Z" fill="white"/>
<path d="M24.3131 16.3972L23.5999 18.3849H2.92912C1.86518 18.3849 1 19.2552 1 20.3255V45.0594C1 46.1296 1.86518 47 2.92912 47H47.065C48.129 47 48.9942 46.1296 48.9942 45.0594V17.0558C48.9942 15.9856 48.129 15.1152 47.065 15.1152H26.1312C25.3186 15.1152 24.5879 15.6268 24.3131 16.3972Z" fill="#D3122D"/>
<path d="M49.0003 45.0594V28.9347C35.666 41.9779 12.5399 45.4651 1.53809 46.4001C1.88883 46.7706 2.38573 47 2.93524 47H47.0711C48.1351 47 49.0003 46.1296 49.0003 45.0594Z" fill="#BC0C29"/>
<path d="M20.4898 19.9432H4.16825C3.30892 19.9432 2.60742 20.643 2.60742 21.5134V24.9888C5.35496 23.0953 11.5457 20.7136 20.4898 19.9432Z" fill="#BC0C29"/>
</g>
<defs>
<clipPath id="clip0_11994_84209">
<rect width="48" height="40" fill="white" transform="translate(1 7)"/>
</clipPath>
</defs>
</svg>
