<svg width="55" height="55" viewBox="0 0 55 55" fill="none" xmlns="http://www.w3.org/2000/svg">
<rect width="55" height="55" fill="white"/>
<g clip-path="url(#clip0_11994_84223)">
<path fill-rule="evenodd" clip-rule="evenodd" d="M50.9823 26.059C51.1028 25.3859 50.3453 24.1433 49.5704 23.8499C48.3996 23.3839 47.1599 23.0043 45.9891 22.5728C45.3003 22.3139 44.7149 22.4693 44.2328 22.9525C43.9057 23.2977 43.4752 23.591 43.3375 24.1088C42.4077 24.8682 41.3402 25.2996 40.1694 25.5412C39.3601 25.6793 38.6369 25.524 37.9827 24.9544C37.8621 24.8682 37.7244 24.8854 37.5694 24.8164C36.3814 23.7118 34.694 23.8154 33.2821 23.2114C32.9894 23.0733 32.4901 23.2114 32.6106 23.6946C32.9205 25.0062 32.008 25.662 31.3193 26.4732C30.6133 26.6112 30.1656 27.2153 29.563 27.5432C28.5644 28.1472 27.5657 28.4233 26.3604 27.9746C25.3618 27.5949 24.2426 27.4741 23.244 27.0599C22.538 26.7666 22.0559 26.9219 21.746 27.733C21.5222 28.4233 21.1089 29.0446 20.7646 29.7004C20.0414 30.3735 19.3355 31.0293 18.6467 31.7369C18.2163 32.1684 17.8031 32.2202 17.3382 31.8405C16.5461 31.1674 15.823 30.4598 14.9104 29.9248C14.4283 29.6659 14.3078 29.2172 14.721 28.6995C15.427 27.8193 16.0296 26.8528 16.8905 26.0935C17.6997 25.3514 18.3196 24.4712 19.0083 23.6601C20.4202 21.9343 21.35 19.915 22.6413 18.1374C23.2095 17.8441 23.089 17.0674 23.6572 16.7395C23.7949 16.0492 24.1737 15.4969 24.5525 14.8929C25.0347 14.099 25.2413 13.2188 25.5512 12.3905C25.5856 12.3214 25.6373 12.2524 25.6717 12.1661C25.6889 12.1143 25.6717 12.0798 25.6889 12.028C25.8956 11.4413 26.2744 10.8717 26.3949 10.2677C26.4982 9.8535 26.2744 9.50833 26.2744 9.11139C26.2744 8.76623 26.2055 8.4901 26.171 8.14493C26.085 7.52364 26.0677 6.88508 25.7578 6.2983C25.2585 4.98668 24.3631 3.95118 23.1407 3.15731C22.7791 2.77763 22.4692 2.32891 21.9526 2.12181C21.4016 1.93197 20.8334 1.74213 20.2997 1.50052C18.5606 0.706639 16.8733 0.775672 15.2203 1.69036C14.6005 1.69036 14.17 2.05278 13.7568 2.4152C13.6018 2.46698 13.4297 2.48424 13.2747 2.53601C13.1542 2.6223 13.0853 2.72585 12.982 2.8294C12.2933 3.81312 11.2946 4.55522 10.8814 5.74604C10.7781 6.00491 10.5026 6.16024 10.2099 6.24653C10.1238 6.36734 10.0205 6.47089 9.91716 6.55718C9.83107 6.66073 9.72776 6.78153 9.65889 6.90234C9.62446 7.1267 9.5728 7.3338 9.36618 7.47186C9.34897 7.69622 9.29731 7.93783 9.10791 8.09316C9.09069 8.31751 9.0046 8.52461 8.79799 8.67994C8.72911 8.76623 8.62581 8.88704 8.57415 9.00784C8.31588 9.62914 7.90265 10.2332 7.78212 10.8545C7.52385 12.0453 6.904 12.9945 6.16362 13.8919C6.16362 14.4614 6.16362 15.0137 5.66429 15.3934C5.64708 15.635 5.5782 15.8594 5.3888 15.9974C5.37159 16.239 5.30271 16.4461 5.11331 16.6187C5.0961 17.171 5.11331 17.7405 4.59677 18.1202C4.59677 18.31 4.59677 18.4999 4.59677 18.6724C3.68421 19.2937 3.2882 20.0876 3.70143 21.1749C3.89083 21.6581 3.82196 22.1759 3.63256 22.6418C2.94383 24.0225 2.82331 25.5757 2.59947 27.0427C2.28955 29.0964 1.89353 31.1674 1.41142 33.1176C0.567738 36.4657 0.412775 39.8483 0.051195 43.2136C-0.0176774 43.973 -0.0176773 44.8014 0.567738 45.4227C1.32533 46.6308 2.18624 47.718 3.0988 48.788C3.33985 49.8408 4.04579 50.3931 5.07888 50.4621C5.45768 50.4794 5.59542 50.8073 5.87091 50.9626C6.21527 51.2042 6.61129 51.3768 6.86956 51.7047C7.05896 52.0153 7.28279 52.326 7.48941 52.6194C7.78212 53.0336 8.29866 52.93 8.66024 53.1716C9.0046 53.4305 9.3834 53.6721 9.77942 53.6894C10.0205 53.7066 10.1066 54.0173 10.3648 53.9828C11.6218 53.7929 12.7409 53.3442 13.8085 52.7574C15.9435 51.6011 18.0441 50.4276 20.2136 49.3921C21.5394 48.7708 23.0029 48.3911 24.1737 47.4592C26.085 46.9759 27.6346 45.7333 29.3564 44.9049C30.4411 44.3527 31.612 43.9903 32.5417 43.1791C33.8675 42.5061 35.2105 41.9365 36.2781 40.8493C37.2595 40.5559 38.0171 40.0381 38.2581 38.9681C38.6886 38.4849 39.0157 37.7428 39.4462 37.4494C40.5482 36.7591 41.2197 35.6891 42.1667 34.8607H42.4594C42.3216 34.4465 42.9759 34.0323 42.3905 33.6698C40.3588 34.3602 38.482 35.3439 36.5708 36.3276C36.4502 36.5865 35.9681 36.5347 36.0542 36.9662C36.037 36.9662 36.0542 36.9316 36.0198 36.9316C36.2092 36.7245 36.3986 36.5174 36.588 36.3103C36.0715 36.2758 35.6754 36.6383 35.1761 36.7418C35.0039 37.087 34.7629 37.2941 34.4013 37.3631C33.1099 37.691 31.9735 38.3986 30.8199 39.0026C30.7338 39.1234 30.8027 39.227 30.8716 39.3133L30.8544 39.3305C30.8544 39.2097 30.8199 39.0889 30.8199 38.9854C30.0968 39.0544 29.4941 39.4513 28.8399 39.7102C28.3577 40.1417 27.7895 40.4005 27.2213 40.5904C26.7909 40.763 26.2399 40.901 26.171 40.1244C25.5856 39.9518 25.4134 40.366 25.2585 40.7975V40.7285H25.2413C25.5512 40.5386 25.8439 40.3143 26.1538 40.1244C26.6359 39.7102 27.118 39.3133 27.5829 38.8991C28.1683 38.6402 28.5299 38.0362 29.2359 38.0879C29.3564 37.9154 29.4597 37.7428 29.5802 37.5875C29.8041 37.5702 30.0107 37.4667 30.1312 37.2423L30.0796 37.1733H30.114C30.114 37.1733 30.1312 37.225 30.1484 37.2423C30.4067 37.225 30.5961 37.1387 30.7166 36.8799C30.6994 36.8626 30.665 36.8626 30.6133 36.8281H30.6478L30.6994 36.8799C30.8716 36.8626 30.9749 36.7936 31.0266 36.621L30.9232 36.5347C30.9232 36.5347 30.9405 36.5347 30.9405 36.5002C30.9577 36.552 30.9921 36.5692 31.0093 36.621C31.1471 36.5692 31.3193 36.5347 31.4742 36.4829C31.6981 36.3103 31.9391 36.155 32.1629 35.9824C33.0066 35.6545 33.902 35.4302 34.5046 34.6708C35.7615 33.9977 37.0701 33.4973 38.4475 33.1176C39.9972 32.6861 41.4435 31.8577 42.8898 31.1156C43.5441 30.7705 44.3878 30.8913 44.8699 30.2527C46.7639 29.4243 48.4168 28.1645 50.2075 27.198C50.7068 26.9391 50.879 26.5077 50.9479 26.0072L50.9823 26.059ZM0.739919 38.761C0.739919 38.3986 0.860445 38.0534 0.808791 37.691C0.774355 37.3804 0.9121 37.087 1.01541 36.8108C0.894882 37.4494 0.826009 38.1052 0.722701 38.7783L0.739919 38.761ZM4.01136 21.3992C4.01136 21.1404 4.09745 20.8988 4.06301 20.6399C4.01136 20.1567 4.06301 19.777 4.51068 19.4663C4.57955 19.4146 4.64843 19.3455 4.70008 19.2765C4.1491 19.8633 3.73587 20.5191 4.01136 21.3992ZM11.0191 10.7337C11.0191 10.7337 11.0191 10.8545 11.0191 10.9062C10.9675 10.9062 10.9675 10.9753 10.8986 10.9753C11.0019 10.9062 10.9502 10.8027 11.0191 10.7337ZM7.55828 22.8835C7.69603 22.7454 7.81656 22.5728 7.90265 22.383C7.93708 22.2622 7.97152 22.1241 7.97152 22.0033C8.16092 21.2094 7.55828 20.4673 7.86821 19.6734C8.24701 18.8278 8.45363 17.9821 8.60859 17.0674C8.60859 16.9294 8.60859 16.7568 8.62581 16.6015C9.31453 15.3589 10.1238 14.1853 11.0019 13.0808C11.1913 12.8392 11.2774 12.494 11.4151 12.1661C11.3635 12.0971 11.2946 12.0971 11.2257 12.0798V12.0453C11.2257 12.0453 11.3635 12.0971 11.4151 12.1661C12.4482 10.8545 13.3436 9.4393 14.721 8.43832C15.0137 8.24848 15.2376 7.93783 15.4097 7.59267C15.4958 7.59267 15.5991 7.64444 15.7197 7.60993C16.5289 7.38557 17.1315 6.74702 17.9236 6.43637C18.5434 6.22927 19.301 5.67701 19.852 6.22927C20.3513 6.72976 19.8348 7.4546 19.6282 7.98961C18.905 10.0433 17.7686 11.9072 16.9766 13.9264C16.9766 13.9782 16.9938 14.03 16.9766 14.0645C16.8388 14.1681 16.5978 14.1853 16.5633 14.3752C16.4428 15.3416 15.7541 16.0319 15.4442 16.8603C15.427 17.0502 15.4958 17.2228 15.5475 17.4126C15.4097 17.7405 15.2892 18.0512 15.1687 18.3963C14.2906 18.4136 13.9118 19.1212 13.5674 19.7252C12.9648 20.847 12.2588 21.8997 11.6734 23.0733C11.6218 23.1941 11.6045 23.3322 11.6045 23.4875C11.6045 23.5393 11.6045 23.6083 11.6045 23.6773C11.6045 23.7291 11.6045 23.7464 11.6045 23.7981C11.5184 23.8844 11.4668 24.0398 11.3807 24.126C10.933 24.7646 10.6231 25.4894 10.1066 26.0935C9.84829 26.4386 9.62446 26.9564 9.12513 26.8874C8.55693 26.7666 8.53972 26.197 8.47084 25.7138C8.3331 24.7819 8.21257 23.8499 7.55828 23.1423C7.54107 23.0733 7.50663 22.9697 7.48941 22.9007V22.8489L7.55828 22.8835ZM25.8611 41.3325C25.8611 41.3325 25.6889 41.3843 25.6201 41.3843C25.5684 41.3843 25.5512 41.3325 25.4995 41.3325C25.6201 41.3325 25.7406 41.3498 25.8611 41.3325ZM25.224 41.1081V40.9873C25.224 40.9873 25.2757 41.0564 25.2929 41.1081H25.224C25.224 41.1081 25.2241 41.1254 25.2068 41.1254C25.2068 41.1254 25.2068 41.1081 25.1896 41.1081H25.2413H25.224ZM25.3274 40.4696C25.3446 40.297 25.3101 40.0899 25.4823 40.0209C26.1883 39.7275 26.7048 39.0889 27.4452 38.8991C26.2055 38.9681 25.6028 39.5376 25.3274 40.4696ZM31.7153 34.8089C31.4914 34.8607 31.302 34.9297 31.1815 35.1368C31.0954 35.1541 31.0093 35.1886 30.9405 35.2058C30.8199 35.2749 30.6994 35.3439 30.5617 35.4129C30.2001 35.5337 29.9246 35.7581 29.7524 36.086C29.322 36.4139 28.8399 36.552 28.2889 36.4657C27.9617 36.6728 27.6518 36.9144 27.428 37.225C27.3074 37.225 27.1525 37.225 27.0319 37.2768C26.7565 37.4494 26.5671 37.6565 26.6876 38.0189H26.5843C25.9128 38.0707 25.4479 38.5021 24.8969 38.8128C23.3989 39.6757 22.0904 40.8147 20.5407 41.6086C19.4904 42.3335 18.3712 42.9202 17.3554 43.6624C16.615 44.2319 15.7197 44.3009 15.0309 44.8532C13.3436 46.2166 11.3118 46.9587 9.43506 47.9596C9.12513 48.0977 8.8152 48.2876 8.48806 48.4256C8.19535 48.5982 7.85099 48.7708 7.48941 48.4947C7.5755 47.9424 7.71325 47.4419 7.85099 46.9932C8.21257 46.0095 8.43641 45.0085 8.66024 43.973C9.26288 41.3498 9.50393 38.6402 9.71055 35.9479C9.83107 34.4637 10.692 33.48 11.9661 32.4963C12.1211 35.0332 13.5846 36.6555 14.876 38.3813C15.3753 39.0199 16.0468 39.3651 16.8216 39.6584C19.4388 40.6076 21.5049 39.4513 23.4506 37.8981C24.7419 36.69 26.085 35.551 27.0492 34.015C27.428 33.3937 28.0306 33.1694 28.7193 33.411C29.6663 33.7216 30.5617 33.6353 31.457 33.2729C31.5603 33.2211 31.6808 33.1694 31.7841 33.1348C32.1629 33.1866 32.6623 33.1176 32.6278 33.8079C32.6278 33.8769 32.6795 33.946 32.6795 34.0323C32.3351 34.2394 32.0252 34.481 31.7669 34.7916L31.7153 34.8089ZM32.645 34.5155C32.645 34.5155 32.6795 34.4119 32.6967 34.3602C32.6967 34.4119 32.6967 34.4292 32.6967 34.4637C32.6795 34.4637 32.6623 34.5155 32.645 34.5155ZM33.8675 34.7226H33.8503C33.8503 34.7226 33.9192 34.619 33.9364 34.5845C33.9536 34.6363 33.8159 34.6536 33.8675 34.7226ZM37.7416 30.6151C37.7416 30.6151 37.6039 30.5116 37.535 30.4943C37.139 30.3908 36.7257 30.8222 36.3125 30.5461C36.4158 29.6659 37.2939 29.3035 37.5522 28.5096C37.7588 28.4233 37.9827 28.4233 38.2237 28.4233C38.2582 29.2172 37.8277 29.9075 37.7416 30.6324V30.6151Z" fill="#D3122D"/>
</g>
<defs>
<clipPath id="clip0_11994_84223">
<rect width="51" height="53" fill="white" transform="translate(0 1)"/>
</clipPath>
</defs>
</svg>
