<svg width="48" height="48" viewBox="0 0 73 74" fill="none" xmlns="http://www.w3.org/2000/svg">
<g clip-path="url(#clip0_12676_3371)">
<path d="M57.7451 17.53C57.7451 18.87 58.8331 19.958 60.1731 19.958H63.2654C64.6053 19.958 65.6933 18.87 65.6933 17.53C65.6933 16.1901 64.6053 15.1021 63.2654 15.1021H60.1731C58.8331 15.1021 57.7451 16.1901 57.7451 17.53Z" fill="#0033FF"/>
<path d="M56.5077 31.6174L59.4052 32.4535C59.6343 32.5222 59.8519 32.5451 60.0809 32.5451C61.1346 32.5451 62.1081 31.8465 62.4173 30.7813C62.7838 29.4872 62.0394 28.1472 60.7452 27.7693L57.8476 26.9332C56.5649 26.5667 55.2135 27.3112 54.8356 28.6053C54.4691 29.8995 55.2135 31.2395 56.5077 31.6174Z" fill="#0033FF"/>
<path d="M57.1836 8.21939C57.4127 8.21939 57.6303 8.18503 57.8594 8.12777L60.7569 7.29171C62.0511 6.92522 62.7955 5.5738 62.429 4.27963C62.0625 2.98547 60.7111 2.24104 59.4169 2.60753L56.5194 3.44358C55.2252 3.81007 54.4808 5.1615 54.8473 6.45566C55.1565 7.52077 56.13 8.21939 57.1836 8.21939Z" fill="#0033FF"/>
<path d="M9.73463 19.9697H12.8269C14.1669 19.9697 15.2549 18.8817 15.2549 17.5418C15.2549 16.2018 14.1669 15.1138 12.8269 15.1138H9.73463C8.39465 15.1138 7.30664 16.2018 7.30664 17.5418C7.30664 18.8817 8.39465 19.9697 9.73463 19.9697Z" fill="#0033FF"/>
<path d="M15.1406 26.9443L12.243 27.7804C10.9488 28.1468 10.2044 29.4983 10.5709 30.7924C10.8801 31.8575 11.8536 32.5562 12.9073 32.5562C13.1363 32.5562 13.3539 32.5218 13.583 32.4645L16.4805 31.6285C17.7747 31.262 18.5191 29.9106 18.1526 28.6164C17.7862 27.3222 16.4233 26.5893 15.1406 26.9443Z" fill="#0033FF"/>
<path d="M12.243 7.29171L15.1406 8.12777C15.3696 8.19648 15.5872 8.21939 15.8163 8.21939C16.8699 8.21939 17.8434 7.52077 18.1526 6.45566C18.5191 5.1615 17.7747 3.82152 16.4805 3.44358L13.583 2.60753C12.3003 2.24104 10.9488 2.98547 10.5709 4.27963C10.2044 5.5738 10.9488 6.91377 12.243 7.29171Z" fill="#0033FF"/>
<path d="M38.9283 56.4585H34.0609C30.7053 56.4585 27.9795 59.1843 27.9795 62.5399V67.4073C27.9795 70.763 30.7053 73.4888 34.0609 73.4888H38.9283C42.284 73.4888 45.0098 70.763 45.0098 67.4073V62.5399C45.0098 59.1843 42.284 56.4585 38.9283 56.4585ZM40.1423 67.4073C40.1423 68.0831 39.5926 68.6213 38.9283 68.6213H34.0609C33.3852 68.6213 32.8469 68.0716 32.8469 67.4073V62.5399C32.8469 61.8757 33.3967 61.3259 34.0609 61.3259H38.9283C39.6041 61.3259 40.1423 61.8757 40.1423 62.5399V67.4073Z" fill="#0033FF"/>
<path d="M66.9186 56.4585H62.0512C58.6955 56.4585 55.9697 59.1843 55.9697 62.5399V67.4073C55.9697 70.763 58.6955 73.4888 62.0512 73.4888H66.9186C70.2742 73.4888 73 70.763 73 67.4073V62.5399C73 59.1843 70.2742 56.4585 66.9186 56.4585ZM68.1326 67.4073C68.1326 68.0831 67.5828 68.6213 66.9186 68.6213H62.0512C61.3754 68.6213 60.8372 68.0716 60.8372 67.4073V62.5399C60.8372 61.8757 61.3869 61.3259 62.0512 61.3259H66.9186C67.5943 61.3259 68.1326 61.8757 68.1326 62.5399V67.4073Z" fill="#0033FF"/>
<path d="M10.9489 56.4585H6.08142C2.72576 56.4585 0 59.1843 0 62.5399V67.4073C0 70.763 2.72576 73.4888 6.08142 73.4888H10.9489C14.3045 73.4888 17.0303 70.763 17.0303 67.4073V62.5399C17.0303 59.1843 14.3045 56.4585 10.9489 56.4585ZM12.1628 67.4073C12.1628 68.0831 11.6131 68.6213 10.9489 68.6213H6.08142C5.40571 68.6213 4.86743 68.0716 4.86743 67.4073V62.5399C4.86743 61.8757 5.41716 61.3259 6.08142 61.3259H10.9489C11.6246 61.3259 12.1628 61.8757 12.1628 62.5399V67.4073Z" fill="#0033FF"/>
<path d="M8.5205 54.0301C9.86047 54.0301 10.9485 52.942 10.9485 51.6021V47.9486C10.9485 47.2729 11.4982 46.7346 12.1625 46.7346H34.0602V51.6021C34.0602 52.942 35.1482 54.0301 36.4882 54.0301C37.8282 54.0301 38.9162 52.942 38.9162 51.6021V46.7346H60.8139C61.4896 46.7346 62.0279 47.2844 62.0279 47.9486V51.6021C62.0279 52.942 63.1159 54.0301 64.4559 54.0301C65.7958 54.0301 66.8838 52.942 66.8838 51.6021V47.9486C66.8838 44.593 64.1581 41.8672 60.8024 41.8672H38.9047V39.4392C38.9047 38.0992 37.8167 37.0112 36.4767 37.0112C35.1367 37.0112 34.0487 38.0992 34.0487 39.4392V41.8672H12.1625C8.80682 41.8672 6.08105 44.593 6.08105 47.9486V51.6021C6.08105 52.942 7.16907 54.0301 8.50904 54.0301" fill="#0033FF"/>
<path d="M53.5303 17.5303C53.5303 26.933 45.9027 34.5606 36.5 34.5606C27.0973 34.5606 19.4697 26.933 19.4697 17.5303C19.4697 8.12755 27.0858 0.5 36.5 0.5C45.9142 0.5 53.5303 8.12755 53.5303 17.5303Z" fill="#EB3D14"/>
</g>
<defs>
<clipPath id="clip0_12676_3371">
<rect width="73" height="73" fill="white" transform="translate(0 0.5)"/>
</clipPath>
</defs>
</svg>
