<svg width="48" height="48" viewBox="0 0 48 48" fill="none" xmlns="http://www.w3.org/2000/svg">
<path d="M9 42C8.2 42 7.5 41.6999 6.9 41.0999C6.3 40.4999 6 39.8 6 39V8.99995C6 8.19995 6.3 7.49995 6.9 6.89995C7.5 6.29995 8.2 5.99995 9 5.99995H19.35C19.2833 4.76662 19.7167 3.65828 20.65 2.67495C21.5833 1.69162 22.7 1.19995 24 1.19995C25.3 1.19995 26.4167 1.69162 27.35 2.67495C28.2833 3.65828 28.7167 4.76662 28.65 5.99995H39C39.8 5.99995 40.5 6.29995 41.1 6.89995C41.7 7.49995 42 8.19995 42 8.99995V39C42 39.8 41.7 40.4999 41.1 41.0999C40.5 41.6999 39.8 42 39 42H9ZM24 6.89995C24.4333 6.89995 24.7917 6.75828 25.075 6.47495C25.3583 6.19162 25.5 5.83328 25.5 5.39995C25.5 4.96662 25.3583 4.60828 25.075 4.32495C24.7917 4.04162 24.4333 3.89995 24 3.89995C23.5667 3.89995 23.2083 4.04162 22.925 4.32495C22.6417 4.60828 22.5 4.96662 22.5 5.39995C22.5 5.83328 22.6417 6.19162 22.925 6.47495C23.2083 6.75828 23.5667 6.89995 24 6.89995ZM24.1 27.95C26.0333 27.95 27.6667 27.2833 29 25.95C30.3333 24.6166 31 22.9833 31 21.0499C31 19.1166 30.3333 17.4833 29 16.15C27.6667 14.8166 26.0333 14.15 24.1 14.15C22.1667 14.15 20.5333 14.8166 19.2 16.15C17.8667 17.4833 17.2 19.1166 17.2 21.0499C17.2 22.9833 17.8667 24.6166 19.2 25.95C20.5333 27.2833 22.1667 27.95 24.1 27.95ZM9 39H39V37.15C37 35.2833 34.7333 33.775 32.2 32.625C29.6667 31.475 26.9333 30.9 24 30.9C21.0667 30.9 18.3333 31.475 15.8 32.625C13.2667 33.775 11 35.2833 9 37.15V39Z" fill="#B0003C"/>
</svg>
