<svg width="51" height="65" viewBox="0 0 51 65" fill="none" xmlns="http://www.w3.org/2000/svg">
<g clip-path="url(#clip0_12676_3362)">
<path d="M48.86 53.7498H27.61V50.5598H29.73C35.59 50.5598 40.35 45.7898 40.35 39.9398C40.35 38.7698 39.4 37.8198 38.23 37.8198H33.98C31.58 37.8198 29.39 38.6498 27.61 39.9998V38.8798C27.61 37.7098 26.66 36.7598 25.49 36.7598C24.32 36.7598 23.37 37.7098 23.37 38.8798V39.9998C21.59 38.6498 19.4 37.8198 17 37.8198H12.75C11.58 37.8198 10.63 38.7698 10.63 39.9398C10.63 45.7998 15.4 50.5598 21.25 50.5598H23.37V53.7498H2.12C0.95 53.7498 0 54.6998 0 55.8698V59.0598C0 61.9898 2.38 64.3698 5.31 64.3698H45.68C48.61 64.3698 50.99 61.9898 50.99 59.0598V55.8698C50.99 54.6998 50.04 53.7498 48.87 53.7498M34 42.0598H35.76C34.88 44.5298 32.52 46.3098 29.75 46.3098H27.99C28.87 43.8398 31.23 42.0598 34 42.0598ZM21.25 46.3098C18.48 46.3098 16.12 44.5298 15.24 42.0598H17C19.77 42.0598 22.13 43.8398 23.01 46.3098H21.25ZM46.74 59.0598C46.74 59.6498 46.26 60.1198 45.68 60.1198H5.31C4.73 60.1198 4.25 59.6398 4.25 59.0598V57.9998H46.74V59.0598Z" fill="#0033FF"/>
<path d="M42.4902 17.6299C42.4902 27.0199 34.8802 34.6299 25.4902 34.6299C16.1002 34.6299 8.49023 27.0199 8.49023 17.6299C8.49023 8.23988 16.1102 0.629883 25.4902 0.629883C34.8702 0.629883 42.4902 8.23988 42.4902 17.6299Z" fill="#EB3D14"/>
</g>
<defs>
<clipPath id="clip0_12676_3362">
<rect width="50.99" height="63.74" fill="white" transform="translate(0 0.629883)"/>
</clipPath>
</defs>
</svg>
