<svg width="32" height="32" viewBox="0 0 32 32" fill="none" xmlns="http://www.w3.org/2000/svg">
<path d="M24.7273 7.47973C23.7741 6.86217 22.9906 6.01727 22.4477 5.02161C21.9049 4.02594 21.62 2.911 21.6187 1.77783H16.7109L16.7023 21.3759C16.6714 22.1813 16.4035 22.9597 15.9319 23.6144C15.4604 24.2691 14.8061 24.7711 14.0504 25.0579C13.2948 25.3447 12.4712 25.4036 11.6822 25.2273C10.8932 25.051 10.1736 24.6473 9.61313 24.0665C9.05261 23.4856 8.67589 22.7533 8.52987 21.9606C8.38385 21.1679 8.47497 20.35 8.7919 19.6085C9.10883 18.8671 9.63756 18.235 10.3123 17.7908C10.987 17.3467 11.7778 17.1101 12.5864 17.1107C12.9994 17.112 13.4098 17.176 13.8034 17.3006V12.3083C13.4002 12.2516 12.9936 12.2222 12.5864 12.2204C7.60665 12.2204 3.55554 16.2572 3.55554 21.2211C3.5592 23.6076 4.5121 25.8952 6.20534 27.5825C7.89858 29.2699 10.194 30.2191 12.5883 30.2223C17.5676 30.2223 21.6187 26.1854 21.6187 21.2211V11.2834C23.607 12.7092 25.995 13.4752 28.4444 13.4728V8.58108C27.1243 8.58216 25.8325 8.19942 24.7273 7.47973Z" fill="currentColor" />
</svg>
