<?xml version="1.0" encoding="utf-8"?>
<!-- Generator: Adobe Illustrator 27.3.1, SVG Export Plug-In . SVG Version: 6.00 Build 0)  -->
<svg version="1.1" xmlns="http://www.w3.org/2000/svg" xmlns:xlink="http://www.w3.org/1999/xlink" x="0px" y="0px"
	 viewBox="0 0 320 320" style="enable-background:new 0 0 320 320;" xml:space="preserve">
<style type="text/css">
	.st0{fill:#2B897E;}
	.st1{clip-path:url(#SVGID_00000141449940393903172110000006079158477396767678_);}
	.st2{opacity:0.43;}
	.st3{opacity:0.43;fill:#2B897E;}
	.st4{opacity:0.43;fill:url(#SVGID_00000010302992952765294910000006258783150018776211_);}
	.st5{opacity:0.43;fill:url(#SVGID_00000098190966139529504950000011616805604577203869_);}
	.st6{display:none;}
	.st7{display:inline;}
	.st8{fill:none;stroke:#FFFFFF;stroke-width:2;stroke-miterlimit:10;}
	.st9{fill:#FFFFFF;}
	.st10{opacity:0.5;fill:#00877F;}
	.st11{opacity:0.5;fill:#97C6AD;}
	.st12{opacity:0.5;fill:#4EB9B0;}
	.st13{clip-path:url(#SVGID_00000117665034943578374810000015880230775128065430_);}
	.st14{clip-path:url(#SVGID_00000027596125982913619350000017470641315445168057_);}
	.st15{clip-path:url(#SVGID_00000119811618699343102850000016770263734554878909_);}
	.st16{clip-path:url(#SVGID_00000085945016614700551530000000319670092111965831_);}
	.st17{clip-path:url(#SVGID_00000055690842163575114690000008715666909256208544_);}
	.st18{clip-path:url(#SVGID_00000178198391942838293730000017942378012194283431_);}
	.st19{clip-path:url(#SVGID_00000165231659200909762250000011997246709708915607_);}
	.st20{clip-path:url(#SVGID_00000119807417724062943750000012902390282676310163_);}
	.st21{clip-path:url(#SVGID_00000069369643856249264190000011049041522983727798_);}
	.st22{clip-path:url(#SVGID_00000173129947124603191830000017518761434872258995_);}
	.st23{clip-path:url(#SVGID_00000174576477232408980030000011138083974390091156_);}
	.st24{clip-path:url(#SVGID_00000156559872500537299900000002740155920069654711_);}
	.st25{clip-path:url(#SVGID_00000178167138615203577550000003900417211174909849_);}
	.st26{clip-path:url(#SVGID_00000001655142087293569730000003689016956320342711_);}
	.st27{clip-path:url(#SVGID_00000065791224540775346490000002112066137701297338_);}
	.st28{clip-path:url(#SVGID_00000129207424786729701130000009970888881861055411_);}
	.st29{clip-path:url(#SVGID_00000160190405241013948410000014349528804170649746_);}
	.st30{fill:#F8F6F3;}
	.st31{fill:#7E5F34;}
	.st32{fill:#E7D9C4;}
	.st33{fill:#BD955D;}
	.st34{fill:#E6D8C3;}
	.st35{fill:#F3ECE3;}
	.st36{fill:#F2EBE2;}
	.st37{fill:#94713F;}
	.st38{fill:#F3ECE2;}
	.st39{fill:#E9DECC;}
	.st40{fill:#F2EBE1;}
	.st41{fill:#AF864E;}
	.st42{fill:#F1E9DE;}
	.st43{fill:#856537;}
	.st44{fill:#E3D3BB;}
	.st45{fill:#EADFCD;}
	.st46{fill:#E5D6C1;}
	.st47{fill:#97723F;}
	.st48{fill:#95713E;}
	.st49{fill:#E9DECB;}
	.st50{fill:#AF844B;}
	.st51{fill:#CFB38B;}
	.st52{fill:#E4D5C0;}
	.st53{fill:#BD945B;}
	.st54{fill:#F1EAE1;}
	.st55{fill:#F1E9DF;}
	.st56{fill:#EADECD;}
	.st57{fill:#E5D6C0;}
	.st58{fill:#EDE3D7;}
	.st59{fill:#EEE4D7;}
	.st60{fill:#BE9761;}
	.st61{fill:#A98047;}
	.st62{fill:#F1EAE0;}
	.st63{fill:#F0E8DD;}
	.st64{fill:#EFE7DB;}
	.st65{fill:#E9DDCA;}
	.st66{fill:#CFB28B;}
	.st67{fill:#CDB088;}
	.st68{fill:#C4A273;}
	.st69{fill:#AF8349;}
	.st70{fill:#EFE6DA;}
	.st71{fill:#E7DAC6;}
	.st72{fill:#9A7440;}
	.st73{fill:#ECE1D3;}
	.st74{fill:#E7DBC6;}
	.st75{fill:#9A7744;}
	.st76{fill:#C9A87A;}
	.st77{fill:#E6D8C4;}
	.st78{fill:#95713F;}
	.st79{fill:#C9A879;}
	.st80{fill:#EEE5D8;}
	.st81{fill:#BA935E;}
	.st82{fill:#BF9862;}
	.st83{fill:#916E3C;}
	.st84{fill:#DECCB0;}
	.st85{fill:#9B7542;}
	.st86{fill:#E8DBC7;}
	.st87{fill:#E9DDCB;}
	.st88{fill:#F0E8DC;}
	.st89{fill:#F4EDE4;}
	.st90{fill:#F3EDE4;}
	.st91{fill:#E6D9C4;}
	.st92{fill:#C6A475;}
	.st93{fill:#916F3F;}
	.st94{fill:#CAA97B;}
	.st95{fill:#906E3E;}
	.st96{fill:#E4D9C6;}
	.st97{fill:#E4D9C7;}
	.st98{fill:#D0B48D;}
	.st99{fill:#9C7744;}
	.st100{fill:#CCAC80;}
	.st101{fill:#ECE1D4;}
	.st102{fill:#B0854C;}
	.st103{fill:#E0CFB6;}
	.st104{fill:#EDE1D4;}
	.st105{fill:#A07A46;}
	.st106{fill:#B0874F;}
	.st107{fill:#E0CEB4;}
	.st108{fill:#E3D3BC;}
	.st109{fill:#E7DAC5;}
	.st110{fill:#EADFCE;}
	.st111{fill:#F3ECE4;}
	.st112{fill:#967342;}
	.st113{fill:#987440;}
	.st114{fill:#DBC5A6;}
	.st115{fill:#E0CFB4;}
	.st116{fill:#896839;}
	.st117{fill:#EEE5D9;}
	.st118{fill:#94703E;}
	.st119{fill:#CFB38C;}
	.st120{fill:#EADFCF;}
	.st121{fill:#F4EDE5;}
	.st122{fill:#C29E6B;}
	.st123{fill:#C8A778;}
	.st124{fill:#977341;}
	.st125{fill:#C7A678;}
	.st126{fill:#C6A577;}
	.st127{fill:#9F7944;}
	.st128{fill:#9F7945;}
	.st129{fill:#E8DBC8;}
	.st130{fill:#E5D6BF;}
	.st131{fill:#997441;}
	.st132{fill:#E1D1B8;}
	.st133{fill:#AD844D;}
	.st134{fill:#E0CFB5;}
	.st135{fill:#A17C48;}
	.st136{fill:#E4D4BD;}
	.st137{fill:#9A7643;}
	.st138{fill:#A47C45;}
	.st139{fill:#D6BF9C;}
	.st140{fill:#DECAAE;}
	.st141{fill:#E7DBC7;}
	.st142{fill:#F0E9DE;}
	.st143{fill:#D0B48C;}
	.st144{fill:#B6884C;}
	.st145{fill:#E8DDC9;}
	.st146{fill:#B08852;}
	.st147{fill:#A98048;}
	.st148{fill:#C29C69;}
	.st149{fill:#AF8853;}
	.st150{fill:#E8DCC9;}
	.st151{fill:#B3864C;}
	.st152{fill:#E1CFB6;}
	.st153{fill:#AA8048;}
	.st154{fill:#E4D5BF;}
	.st155{fill:#C09963;}
	.st156{fill:#DCC8AA;}
	.st157{fill:#C4A16F;}
	.st158{fill:#C8A779;}
	.st159{fill:#997543;}
	.st160{fill:#A57F4A;}
	.st161{fill:#DDC9AB;}
	.st162{fill:#C6A576;}
	.st163{fill:#E3D4BD;}
	.st164{fill:#E2D2BA;}
	.st165{fill:#C49F6C;}
	.st166{fill:#A67D45;}
	.st167{fill:#B8915C;}
	.st168{fill:#BC925A;}
	.st169{fill:#E5D5BF;}
	.st170{fill:#EADFD0;}
	.st171{fill:#A67E46;}
	.st172{fill:#B2854A;}
	.st173{fill:#CEB086;}
	.st174{fill:#DAC4A5;}
	.st175{fill:#B08349;}
	.st176{fill:#C09965;}
	.st177{fill:#C29D6A;}
	.st178{fill:#C8A777;}
	.st179{fill:#BC935B;}
	.st180{fill:#DFCDB2;}
	.st181{fill:#A7804A;}
	.st182{fill:#B98F56;}
	.st183{fill:#C19B68;}
	.st184{fill:#CDAF85;}
	.st185{fill:#C39F6C;}
	.st186{fill:#C6A373;}
	.st187{fill:#EDE2D5;}
	.st188{fill:#C4A06D;}
	.st189{fill:#E4D4BE;}
	.st190{fill:#A17C49;}
	.st191{fill:#C5A270;}
	.st192{fill:#E2D2B9;}
	.st193{fill:#C39E6B;}
	.st194{fill:#CDAE83;}
	.st195{fill:#C4A16E;}
	.st196{fill:#C39D69;}
	.st197{fill:#BF9863;}
	.st198{fill:#DECBAF;}
	.st199{fill:#BA8F56;}
	.st200{fill:#B1844A;}
	.st201{fill:#D7BF9D;}
	.st202{fill:#B4864B;}
	.st203{fill:#AC824A;}
	.st204{fill:#D4B994;}
	.st205{fill:#C39D6A;}
	.st206{fill:#D8C1A0;}
	.st207{fill:#A07A45;}
	.st208{fill:#BB9159;}
	.st209{fill:#EBDFD0;}
	.st210{fill:#E1D1B9;}
	.st211{fill:#C7A575;}
	.st212{fill:#EDE4D7;}
	.st213{fill:#D2B791;}
	.st214{fill:#BB9158;}
	.st215{fill:#D1B68F;}
	.st216{fill:#D6BE9C;}
	.st217{fill:#CBAC80;}
	.st218{fill:#A77F47;}
	.st219{fill:#D0B38B;}
	.st220{fill:#B9915A;}
	.st221{fill:#EADECE;}
	.st222{fill:#C19C69;}
	.st223{fill:#AF8751;}
	.st224{fill:#ECE1D2;}
	.st225{fill:#E1D2BD;}
	.st226{fill:#B4874D;}
	.st227{fill:#D4BA94;}
	.st228{fill:#8F6D3C;}
	.st229{fill:#A07842;}
	.st230{fill:#8C6A3A;}
	.st231{fill:#99733F;}
	.st232{fill:#AF8249;}
	.st233{fill:#B78D53;}
	.st234{fill:#A87F46;}
	.st235{fill:#96713E;}
	.st236{fill:#B6884D;}
	.st237{fill:#AB8047;}
	.st238{fill:#D8C2A1;}
	.st239{fill:#9F7842;}
	.st240{fill:#97723E;}
	.st241{fill:#8E6C3C;}
	.st242{fill:#B78D55;}
	.st243{fill:#AB8048;}
	.st244{fill:#B99461;}
	.st245{fill:#B99360;}
	.st246{fill:#7F5F34;}
	.st247{fill:#9E7741;}
	.st248{fill:#8A6839;}
	.st249{fill:#A97F46;}
	.st250{fill:#B78D56;}
	.st251{fill:#E8DDCA;}
	.st252{fill:#BB9058;}
	.st253{fill:#9A7644;}
	.st254{fill:#846437;}
	.st255{fill:#967341;}
	.st256{fill:#B5874C;}
	.st257{fill:#785A31;}
	.st258{fill:#AF8B5A;}
	.st259{fill:#B18449;}
	.st260{fill:#B1874E;}
	.st261{fill:#936F3D;}
	.st262{fill:#836336;}
	.st263{fill:#856437;}
	.st264{fill:#926F3D;}
	.st265{fill:#CDAE84;}
	.st266{fill:#EBDFCF;}
	.st267{fill:#AF854E;}
	.st268{fill:#866638;}
	.st269{fill:#A17942;}
	.st270{fill:#916F3E;}
	.st271{fill:#F4EEE6;}
	.st272{fill:#B68B51;}
	.st273{fill:#9B7541;}
	.st274{fill:#C19A64;}
	.st275{fill:#CEB085;}
	.st276{fill:#C2A06F;}
	.st277{fill:#E7D9C5;}
	.st278{fill:#6E522D;}
	.st279{fill:#806136;}
	.st280{fill:#806135;}
	.st281{fill:#C4A373;}
	.st282{fill:#B88D53;}
	.st283{fill:#AE844D;}
	.st284{fill:#88683B;}
	.st285{fill:#86663A;}
	.st286{fill:#A57D45;}
	.st287{fill:#AD8248;}
	.st288{fill:#997440;}
	.st289{fill:#DDCAAE;}
	.st290{fill:#D6BD9B;}
	.st291{fill:#93703E;}
	.st292{fill:#AC8550;}
	.st293{fill:#DDC9AD;}
	.st294{fill:#A37B43;}
	.st295{fill:#A77E46;}
	.st296{fill:#E6D7C2;}
	.st297{fill:#ECE2D3;}
	.st298{fill:#CEB187;}
	.st299{fill:#F4EEE5;}
	.st300{fill:#AE8A59;}
	.st301{fill:#CDAF84;}
	.st302{fill:#C7A677;}
	.st303{fill:#B78F57;}
	.st304{fill:#8D6B3B;}
	.st305{fill:#9B7846;}
	.st306{fill:#B0854D;}
	.st307{fill:#AF854C;}
	.st308{fill:#9B7540;}
	.st309{fill:#C7A676;}
	.st310{fill:#CBAB80;}
	.st311{fill:#CFB189;}
	.st312{fill:#916E3D;}
	.st313{fill:#A6814F;}
	.st314{fill:#8B693A;}
	.st315{fill:#C6A474;}
	.st316{fill:#E5D7C2;}
	.st317{fill:#E8DCCA;}
	.st318{fill:#93703D;}
	.st319{fill:#7F6035;}
	.st320{fill:#A17A42;}
	.st321{fill:#967340;}
	.st322{fill:#9D7741;}
	.st323{fill:#BB925A;}
	.st324{fill:#957240;}
	.st325{fill:#AC8048;}
	.st326{fill:#CAAA7C;}
	.st327{fill:#B38A53;}
	.st328{fill:#755730;}
	.st329{fill:#6A4F2B;}
	.st330{fill:#7D5E33;}
	.st331{fill:#F1EADF;}
	.st332{fill:#F0E7DC;}
	.st333{fill:#E5D5C0;}
	.st334{fill:#AB844E;}
	.st335{fill:#926E3D;}
	.st336{fill:#EDE2D4;}
	.st337{fill:#9D7744;}
	.st338{fill:#A67F49;}
	.st339{fill:#A88049;}
	.st340{fill:#B18349;}
	.st341{fill:#7D5F34;}
	.st342{fill:#98723F;}
	.st343{fill:#B2854B;}
	.st344{fill:#A9814B;}
	.st345{fill:#E2D2BB;}
	.st346{fill:#CDAE82;}
	.st347{fill:#B68A51;}
	.st348{fill:#927040;}
	.st349{fill:#AE834B;}
	.st350{fill:#836437;}
	.st351{fill:#AF8750;}
	.st352{fill:#9A7541;}
	.st353{fill:#AB8552;}
	.st354{fill:#E6D7C3;}
	.st355{fill:#826337;}
	.st356{fill:#71542E;}
	.st357{fill:#BF9B68;}
	.st358{fill:#A8804A;}
	.st359{fill:#866639;}
	.st360{fill:#A77F46;}
	.st361{fill:#A17B45;}
	.st362{fill:#836337;}
	.st363{fill:#DFCDB1;}
	.st364{fill:#876639;}
	.st365{fill:#6F522D;}
	.st366{fill:#876738;}
	.st367{fill:#B4884F;}
	.st368{fill:#DCC6A8;}
	.st369{fill:#6B502C;}
	.st370{fill:#EFE7DC;}
	.st371{fill:#9A7542;}
	.st372{fill:#B6905C;}
	.st373{fill:#967647;}
	.st374{fill:#AE824A;}
	.st375{fill:#8F6D3D;}
	.st376{fill:#BE965F;}
	.st377{fill:#DDC9AC;}
	.st378{fill:#DCC6A7;}
	.st379{fill:#F0E7DB;}
	.st380{fill:#E8DDCB;}
	.st381{fill:#96723F;}
	.st382{fill:#DBC5A7;}
	.st383{fill:#A67E45;}
	.st384{fill:#906E3C;}
	.st385{fill:#70532E;}
	.st386{fill:#684E2B;}
	.st387{fill:#A88047;}
	.st388{fill:#B08449;}
	.st389{fill:#93703F;}
	.st390{fill:#B3854A;}
	.st391{fill:#C5A271;}
	.st392{fill:#AB8149;}
	.st393{fill:#E0CEB3;}
	.st394{fill:#9C7642;}
	.st395{fill:#866637;}
	.st396{fill:#EDE3D5;}
	.st397{fill:#C19B67;}
	.st398{fill:#B68C54;}
	.st399{fill:#9E7B4A;}
	.st400{fill:#DFCCB1;}
	.st401{fill:#785B32;}
	.st402{fill:#BA996A;}
	.st403{fill:#AA814A;}
	.st404{fill:#AE854E;}
	.st405{fill:#C19B66;}
	.st406{fill:#826236;}
	.st407{fill:#B4874B;}
	.st408{fill:#A57C44;}
	.st409{fill:#B98D53;}
	.st410{fill:#94703D;}
	.st411{fill:#B28449;}
	.st412{fill:#A47C44;}
	.st413{fill:#8E6C3B;}
	.st414{fill:#BC935A;}
	.st415{fill:#A27A43;}
	.st416{fill:#765831;}
	.st417{fill:#C29C68;}
	.st418{fill:#C49F6D;}
	.st419{fill:#C19A66;}
	.st420{fill:#C09964;}
	.st421{fill:#755831;}
	.st422{fill:#604827;}
	.st423{fill:#9C7641;}
	.st424{fill:#A17943;}
	.st425{fill:#866537;}
	.st426{fill:#89683A;}
	.st427{fill:#BC945E;}
	.st428{fill:#CEB38C;}
	.st429{fill:#C6A575;}
	.st430{fill:#A27A45;}
	.st431{fill:#B38B55;}
	.st432{fill:#B88B51;}
	.st433{fill:#C4A06E;}
	.st434{fill:#523E21;}
	.st435{fill:#5F4626;}
	.st436{fill:#574124;}
	.st437{fill:#775931;}
	.st438{fill:#7B5D33;}
	.st439{fill:#694F2B;}
	.st440{fill:#CCAD83;}
	.st441{fill:#B0864D;}
	.st442{fill:#EBE0D0;}
	.st443{fill:#E9DECD;}
	.st444{fill:#96723E;}
	.st445{fill:#D1B58E;}
	.st446{fill:#664C2A;}
	.st447{fill:#795B32;}
	.st448{fill:#B7884C;}
	.st449{fill:#795C32;}
	.st450{fill:#D7BE9C;}
	.st451{fill:#826336;}
	.st452{fill:#B88C52;}
	.st453{fill:#C29B67;}
	.st454{fill:#9C7743;}
	.st455{fill:#AD8249;}
	.st456{fill:#B88E57;}
	.st457{fill:#614828;}
	.st458{fill:#533E21;}
	.st459{fill:#775A31;}
	.st460{fill:#B1864D;}
	.st461{fill:#816236;}
	.st462{fill:#B78B51;}
	.st463{fill:#926F3C;}
	.st464{fill:#654C2A;}
	.st465{fill:#4F3C20;}
	.st466{fill:#564124;}
	.st467{fill:#584225;}
	.st468{fill:#584224;}
	.st469{fill:#513D21;}
	.st470{fill:#5E4626;}
	.st471{fill:#6B512D;}
	.st472{fill:#7C5E33;}
	.st473{fill:#6F532D;}
	.st474{fill:#7A5C32;}
	.st475{fill:#70542E;}
	.st476{fill:#D6BE9B;}
	.st477{fill:#C29C67;}
	.st478{fill:#886738;}
	.st479{fill:#9E7742;}
	.st480{fill:#745730;}
	.st481{fill:#B68F5A;}
	.st482{fill:#755731;}
	.st483{fill:#5D4526;}
	.st484{fill:#BA8F55;}
	.st485{fill:#BE9661;}
	.st486{fill:#B18750;}
	.st487{fill:#806035;}
	.st488{fill:#BB9057;}
	.st489{fill:#876637;}
	.st490{fill:#AA8047;}
	.st491{fill:#AC8148;}
	.st492{fill:#BA8E54;}
	.st493{fill:#BD965F;}
	.st494{fill:#B6894D;}
	.st495{fill:#B3864B;}
	.st496{fill:#8A6939;}
	.st497{fill:#7B5D32;}
	.st498{fill:#5A4325;}
	.st499{fill:#EFE7DA;}
	.st500{fill:#A97F47;}
	.st501{fill:#594325;}
	.st502{fill:#BE9660;}
	.st503{fill:#BD955E;}
	.st504{fill:#5B4425;}
	.st505{fill:#523D21;}
	.st506{fill:#9F7742;}
	.st507{fill:#DAC5A5;}
	.st508{fill:#D2B790;}
	.st509{fill:#D4BA95;}
	.st510{fill:#D3B993;}
	.st511{fill:#CCAD81;}
	.st512{fill:#CEB087;}
	.st513{fill:#BB945E;}
	.st514{fill:#755830;}
	.st515{fill:#836436;}
	.st516{fill:#503C20;}
	.st517{fill:#CBAB7F;}
	.st518{fill:#B88F57;}
	.st519{fill:#BA9159;}
	.st520{fill:#554023;}
	.st521{fill:#CAAA7E;}
	.st522{fill:#CFB188;}
	.st523{fill:#DBC5A5;}
	.st524{fill:#E1D0B7;}
	.st525{fill:#735630;}
	.st526{fill:#A37B44;}
	.st527{fill:#C5A16F;}
	.st528{fill:#AE8249;}
	.st529{fill:#B88A4F;}
	.st530{fill:#E0D0B5;}
	.st531{fill:#72552F;}
	.st532{fill:#B58C55;}
	.st533{fill:#664D2B;}
	.st534{fill:#B58C54;}
	.st535{fill:#B08348;}
	.st536{fill:#CEB188;}
	.st537{fill:#C19A65;}
	.st538{fill:#C29D69;}
	.st539{fill:#B18348;}
	.st540{fill:#AF834A;}
	.st541{fill:#AC834B;}
	.st542{fill:#B4854A;}
	.st543{fill:#9C7541;}
	.st544{fill:#A07942;}
	.st545{fill:#ECE0D2;}
	.st546{fill:#AE8248;}
	.st547{fill:#B6894E;}
	.st548{fill:#71552F;}
	.st549{fill:#906E3D;}
	.st550{fill:#CEB186;}
	.st551{fill:#E1D1B7;}
	.st552{fill:#BC9159;}
	.st553{fill:#F5F0E9;}
	.st554{fill:#C9A97B;}
	.st555{fill:#C3A06F;}
	.st556{fill:#AB814A;}
	.st557{fill:#785B31;}
	.st558{fill:#7C5E36;}
	.st559{fill:#826237;}
	.st560{fill:#D5BC99;}
	.st561{fill:#CFB289;}
	.st562{fill:#CAAA7D;}
	.st563{fill:#ECE0D1;}
	.st564{fill:#D5BB96;}
	.st565{fill:#C7A574;}
	.st566{fill:#6D522D;}
	.st567{fill:#D3B891;}
	.st568{fill:#CEB28A;}
	.st569{fill:#D1B792;}
	.st570{fill:#8F6C3C;}
	.st571{fill:#CFB38A;}
	.st572{fill:#F5F1EC;}
	.st573{fill:#BA9058;}
	.st574{fill:#C5A16E;}
	.st575{fill:#B68E59;}
	.st576{fill:#795B31;}
	.st577{fill:#8D6C3D;}
	.st578{fill:#B0834A;}
	.st579{fill:#B28952;}
	.st580{fill:#DAC4A4;}
	.st581{fill:#907143;}
	.st582{fill:#DDCAAC;}
	.st583{fill:#C5A170;}
	.st584{fill:#A87F47;}
	.st585{fill:#9D7945;}
	.st586{fill:#C5A372;}
	.st587{fill:#D8C2A0;}
	.st588{fill:#D8C19F;}
	.st589{fill:#F6F3EE;}
	.st590{fill:#A88048;}
	.st591{fill:#745630;}
	.st592{fill:#765830;}
	.st593{fill:#B08750;}
	.st594{fill:#9F7843;}
	.st595{fill:#AE844C;}
	.st596{fill:#74562F;}
	.st597{fill:#BE9762;}
	.st598{fill:#C29E6A;}
	.st599{fill:#7C5D33;}
	.st600{fill:#BD935B;}
	.st601{fill:#DBC6A7;}
	.st602{fill:#BE9763;}
	.st603{fill:#C5A374;}
	.st604{fill:#AE834A;}
	.st605{fill:#D9C3A2;}
	.st606{fill:#DBC6A8;}
	.st607{fill:#DFCEB2;}
	.st608{fill:#B88E56;}
	.st609{fill:#C09A66;}
	.st610{fill:#B48950;}
	.st611{fill:#E2D1B9;}
	.st612{fill:#94703F;}
	.st613{fill:#F3EDE3;}
	.st614{fill:#AD8148;}
	.st615{fill:#B5884D;}
	.st616{fill:#E5D5C1;}
	.st617{fill:#BE965E;}
	.st618{fill:#9B7745;}
	.st619{fill:#997541;}
	.st620{fill:#977340;}
	.st621{fill:#886739;}
	.st622{fill:#B68950;}
	.st623{fill:#F2EBE0;}
	.st624{fill:#B8905A;}
	.st625{fill:#997542;}
	.st626{fill:#C5A474;}
	.st627{fill:#E7DCC8;}
	.st628{fill:#E8DAC6;}
	.st629{fill:#CAA97C;}
	.st630{fill:#B1874F;}
	.st631{fill:#A37D47;}
	.st632{fill:#E7DAC7;}
	.st633{fill:#987340;}
	.st634{fill:#DBC7A9;}
	.st635{fill:#AE854D;}
	.st636{fill:#C19B65;}
	.st637{fill:#BC945C;}
	.st638{fill:#9D7947;}
	.st639{fill:#C09A65;}
	.st640{fill:#B1854C;}
	.st641{fill:#D3B894;}
	.st642{fill:#B88B50;}
	.st643{fill:#EDE3D6;}
	.st644{fill:#C3A171;}
	.st645{fill:#98733F;}
	.st646{fill:#CCAE82;}
	.st647{fill:#BD945D;}
	.st648{fill:#CCAE83;}
	.st649{fill:#D5BB98;}
	.st650{fill:#D4B993;}
	.st651{fill:#E4D5BE;}
	.st652{fill:#E5D7C1;}
	.st653{fill:#967240;}
	.st654{fill:#EEE4D8;}
	.st655{fill:#B6905B;}
	.st656{fill:#9A7441;}
	.st657{fill:#EFE8DB;}
	.st658{fill:#987441;}
	.st659{fill:#CFB48D;}
	.st660{fill:#D7C09E;}
	.st661{fill:#D3B892;}
	.st662{fill:#9D7642;}
	.st663{fill:#AD834B;}
	.st664{fill:#D0B58F;}
	.st665{fill:#DAC4A3;}
	.st666{fill:#DCC7A9;}
	.st667{fill:#B7894D;}
	.st668{fill:#BC9663;}
	.st669{fill:#9E7945;}
	.st670{fill:#957342;}
	.st671{fill:#A37D49;}
	.st672{fill:#A7885C;}
	.st673{fill:#B88E55;}
	.st674{fill:#926F3E;}
	.st675{fill:#D5BC98;}
	.st676{fill:#AD854F;}
	.st677{fill:#B78E56;}
	.st678{fill:#B18954;}
	.st679{fill:#A77D45;}
	.st680{fill:#B5874D;}
	.st681{fill:#B6884E;}
	.st682{fill:#B88C51;}
	.st683{fill:#B78A50;}
	.st684{fill:#B5884E;}
	.st685{fill:#9D7641;}
	.st686{fill:#B98E54;}
	.st687{fill:#A17A44;}
	.st688{fill:#C5A371;}
	.st689{fill:#B78A4F;}
	.st690{fill:#5F4627;}
	.st691{fill:#B2864D;}
	.st692{fill:#A17B46;}
	.st693{fill:#E7DCCA;}
	.st694{fill:#B2864C;}
	.st695{fill:#AC844E;}
	.st696{fill:#B0844A;}
	.st697{fill:#BA9057;}
	.st698{fill:#A07B47;}
	.st699{fill:#B28D5B;}
	.st700{fill:#8A693A;}
	.st701{fill:#A6824F;}
	.st702{fill:#BE9967;}
	.st703{fill:#906D3C;}
	.st704{fill:#8F6E3F;}
	.st705{fill:#9B7642;}
	.st706{fill:#F0E8DE;}
	.st707{fill:#816237;}
	.st708{fill:#B28B57;}
	.st709{fill:#A37C46;}
	.st710{fill:#AE8651;}
	.st711{fill:#89693C;}
	.st712{fill:#9E7844;}
	.st713{fill:#AC834D;}
	.st714{fill:#E8DCC8;}
	.st715{fill:#A47D47;}
	.st716{fill:#9D7843;}
	.st717{fill:#806236;}
	.st718{fill:#846436;}
	.st719{fill:#7F6138;}
	.st720{fill:#BA925B;}
	.st721{fill:#CBAB7E;}
	.st722{fill:#6C512C;}
	.st723{fill:#896738;}
	.st724{fill:#B28A53;}
	.st725{fill:#D3B893;}
	.st726{fill:#9E7843;}
	.st727{fill:#927244;}
	.st728{fill:#876739;}
	.st729{fill:#644B2A;}
	.st730{fill:#846438;}
	.st731{fill:#DDC8AB;}
	.st732{fill:#614928;}
	.st733{fill:#E9DDCC;}
	.st734{fill:#B48A53;}
	.st735{fill:#A5804D;}
	.st736{fill:#A57F4B;}
	.st737{fill:#B78F59;}
	.st738{fill:#B2874E;}
	.st739{fill:#B48A52;}
	.st740{fill:#8C6A3B;}
	.st741{fill:#D0B58E;}
	.st742{fill:#A17A43;}
	.st743{fill:#B7884D;}
	.st744{fill:#9D7742;}
	.st745{fill:#5F4727;}
	.st746{fill:#B98E53;}
	.st747{fill:#B7894E;}
	.st748{fill:#624928;}
	.st749{fill:#674D2B;}
	.st750{fill:#B99059;}
	.st751{fill:#543F22;}
	.st752{fill:#B4874E;}
	.st753{fill:#634A29;}
	.st754{fill:#876638;}
	.st755{fill:#D0B38C;}
	.st756{fill:#CDAD81;}
	.st757{fill:#A37D48;}
	.st758{fill:#C09B68;}
	.st759{fill:#503D20;}
	.st760{fill:#5C4526;}
	.st761{fill:#B38B54;}
	.st762{fill:#5D4626;}
	.st763{fill:#BE9760;}
	.st764{fill:#AF8348;}
	.st765{fill:#AF8248;}
	.st766{fill:#C6A574;}
	.st767{fill:#B98F57;}
	.st768{fill:#B78A51;}
	.st769{fill:#B98E55;}
	.st770{fill:#DFCCB0;}
	.st771{fill:#BD955F;}
	.st772{fill:#B6874C;}
	.st773{fill:#BD945C;}
	.st774{fill:#765931;}
	.st775{fill:#6D522C;}
	.st776{fill:#6D512C;}
	.st777{fill:#816235;}
	.st778{fill:#A87E46;}
	.st779{fill:#AC8047;}
	.st780{fill:#7A5D32;}
	.st781{fill:#CFB28A;}
	.st782{fill:#D6BD9A;}
	.st783{fill:#73562F;}
	.st784{fill:#85663A;}
	.st785{fill:#CEAF85;}
	.st786{fill:#C7A77C;}
	.st787{fill:#C6A473;}
	.st788{fill:#B68E56;}
	.st789{fill:#BD9660;}
	.st790{fill:#A67F47;}
	.st791{fill:#B28850;}
	.st792{fill:#BD9661;}
	.st793{fill:#B0864E;}
	.st794{fill:#9D7743;}
	.st795{fill:#AC8149;}
	.st796{fill:#B9925D;}
	.st797{fill:#9C7947;}
	.st798{fill:#B58B53;}
	.st799{fill:#B88F58;}
	.st800{fill:#A98049;}
	.st801{fill:#D9C3A3;}
	.st802{fill:#906E3F;}
	.st803{fill:#D4BA96;}
	.st804{fill:#F5F0EB;}
	.st805{fill:#D3B992;}
	.st806{fill:#CEAF84;}
	.st807{fill:#D9C2A1;}
	.st808{fill:#D7BE9D;}
	.st809{fill:#C9A97A;}
	.st810{fill:#BD9763;}
	.st811{fill:#D8C2A2;}
	.st812{fill:#D7C19F;}
	.st813{fill:#DDCAAD;}
	.st814{fill:#D4BB96;}
	.st815{fill:#F5F0EA;}
	.st816{fill:#B3854B;}
	.st817{fill:#B98E56;}
	.st818{fill:#A57D46;}
	.st819{fill:#DECAAF;}
	.st820{fill:#E1D0B6;}
	.st821{fill:#A17D4A;}
	.st822{fill:#EBDFCE;}
	.st823{fill:#9A7B4C;}
	.st824{fill:#B1854A;}
	.st825{fill:#B18953;}
	.st826{fill:#B4894F;}
	.st827{fill:#C6A372;}
	.st828{fill:#997644;}
	.st829{fill:#4B381F;}
	.st830{fill:#CAA97A;}
	.st831{fill:#B38B56;}
	.st832{fill:#B68C52;}
	.st833{fill:#9D7845;}
	.st834{fill:#EDE4D6;}
	.st835{fill:#E8DCCB;}
	.st836{fill:#EBE0D2;}
	.st837{fill:#6E532E;}
	.st838{fill:#9F7844;}
	.st839{fill:#8F6C3B;}
	.st840{fill:#E6D7C1;}
	.st841{fill:#C5A475;}
	.st842{fill:#977442;}
	.st843{fill:#BA8F57;}
	.st844{fill:#C4A271;}
	.st845{fill:#686868;}
	.st846{clip-path:url(#SVGID_00000137837454539027976590000011595181087801574531_);}
	.st847{clip-path:url(#SVGID_00000073692409099984362950000004468091055939260312_);}
	.st848{clip-path:url(#SVGID_00000016069679685021504680000017278826452599856018_);}
	.st849{clip-path:url(#SVGID_00000053533346409220801950000018120448457800139684_);}
	.st850{clip-path:url(#SVGID_00000065038312792089816270000016091604096310674618_);}
	.st851{clip-path:url(#SVGID_00000054236713745374007540000009019589882209414332_);}
	.st852{clip-path:url(#SVGID_00000035522462856382295940000015810372695021317019_);}
	.st853{clip-path:url(#SVGID_00000098900747972836220300000009221609111328588950_);}
</style>
<g id="TX1-1">
	<rect x="-31.12" y="-31.12" class="st0" width="382.25" height="382.25"/>
	<rect x="308.88" y="-31.12" class="st0" width="382.25" height="382.25"/>
	<path class="st9" d="M260.53,114.36c-1.36-5.15-5.62-8.27-11.81-8.05c-4.14,0.15-8.29,0.02-12.43,0.03c-0.36,0-0.7,0.02-1.02,0.05
		c-7.04-0.03-27.34-0.03-30.74-0.05c-0.7,0-1.39,0-2.28,0c0-4.21,0.07-8.15-0.03-12.08c-0.04-1.69-0.21-3.43-0.68-5.05
		c-2.01-6.94-7.97-11.18-15.57-11.31c-0.86-0.02-2.15-0.05-2.5-0.58c-1.74-2.59-4.26-2.77-6.96-2.76c-8.42,0.03-16.84,0-25.26,0.02
		c-3.48,0.01-6.98-0.03-10.45,0.21c-1.13,0.08-2.55,0.68-3.24,1.52c-1.11,1.36-2.3,1.62-3.9,1.63c-8.04,0.07-14.46,5.43-15.55,13.41
		c-0.54,3.94-0.21,8-0.29,12.01c-0.02,0.96-0.09,1.91-0.14,2.97c-0.89,0-1.54,0-2.19,0c-14.87,0-29.73-0.01-44.6,0
		c-7.54,0-11.89,4.3-11.89,11.87c-0.02,25.92-0.01,73.05-0.01,98.97c0,0.19,0.01,0.38,0.02,0.56c-0.02,5.63-0.11,11.27,0.06,16.9
		c0.15,4.81,2.35,8.5,7.09,10.1c1.7,0.57,3.61,0.68,5.43,0.68c58.87,0.02,117.74,0,176.6,0c7.28,0,9.93-1.77,12.59-8.56
		c0.04-0.11,0.18-0.17,0.27-0.26c0-40.39,0-80.79,0-121.18C260.87,115.07,260.63,114.74,260.53,114.36z M188.14,83.6
		c4.68,0.99,8.05,4.76,8.21,9.55c0.14,4.32,0.03,8.65,0.03,13.1c-1.77,0-3.19,0-4.79,0c0-3.56-0.04-7.03,0.01-10.5
		c0.08-5.14-2.5-7.23-6.38-7.24c-0.43,0-1.19-0.77-1.23-1.24C183.64,83.37,184.34,82.8,188.14,83.6z M141.53,89.84
		c0.15-3.07,0.04-6.15,0.04-9.52c0.84,0,1.47,0,2.1,0c11.03-0.02,22.06-0.04,33.08-0.06c0.86,0,1.75-0.18,1.73,1.19
		c-0.04,3.34-0.01,6.67-0.01,10.34c-3.11,0-5.92,0-8.74,0c-8.73-0.01-17.46-0.05-26.19,0C142.04,91.8,141.45,91.49,141.53,89.84z
		 M136.5,94.97c1.73,1.84,3.84,2.6,6.35,2.59c11.57-0.04,23.14-0.03,34.71,0c2.36,0.01,4.39-0.61,5.94-2.5
		c0.44-0.54,1.01-0.96,1.52-1.44c0.18,0.08,0.35,0.17,0.53,0.25c0,4.08,0,8.17,0,12.37c-17.03,0-34.02,0-51.13,0
		c0-4.18,0-8.31,0-13.04C135.4,94.02,136,94.44,136.5,94.97z M123.97,91.34c0.58-4.92,5.77-8.33,10.75-7.86
		c0.44,0.04,1.1,0.68,1.17,1.11c0.16,1.15,0.06,2.34,0.06,3.8c-0.75,0.07-1.39,0.13-2.03,0.18c-3.67,0.3-5.43,2.15-5.46,5.87
		c-0.04,3.87-0.01,7.74-0.01,11.75c-1.57,0-3.04,0-4.6,0C123.84,101.25,123.39,96.24,123.97,91.34z M64.67,117.17
		c0-3.39,1.57-4.85,5-4.96c0.99-0.03,1.97-0.03,2.96-0.03c46.9,0,115.01,0.01,161.91,0.01c0.34,0,0.67-0.01,1.01-0.02
		c0.23,0.01,0.46,0.02,0.71,0.02c4.8,0.03,9.6-0.03,14.4,0.05c2.93,0.05,4.56,1.63,4.56,4.56c0.01,12.7,0.07,25.39-0.21,38.09
		c-0.06,2.92-0.92,6.06-2.26,8.66c-5.08,9.89-14.67,13.17-26.1,11.6c0.02-4.68,0.21-9.63-6.66-9.62c0-4.27,0.01-8.34,0-12.41
		c-0.01-4.31-1.79-6.09-6.14-6.12c-2.89-0.02-5.79,0.04-8.68,0c-6.37-0.07-7.49,1.04-7.44,7.4c0.03,3.67,0.01,7.33,0.01,11.09
		c-7.24-0.1-6.73,5.05-6.6,9.86c-0.52,0.08-0.83,0.17-1.14,0.17c-19.07-0.02-38.15-0.05-57.22-0.09c-3.72-0.01-3.72-0.02-3.85-3.8
		c-0.14-4-1.73-5.7-5.71-6.08c-0.31-0.03-0.61-0.11-0.99-0.18c0-4.24,0.06-8.37-0.02-12.51c-0.07-4.17-1.58-5.69-5.75-5.81
		c-3.48-0.1-6.97-0.07-10.46-0.07c-4.33,0-5.97,1.64-5.97,5.95c-0.01,4.2,0,8.39,0,12.61c-2.55,0.1-5.02,0.45-5.86,3.01
		c-0.69,2.12-0.71,4.46-1.03,6.72c-4.28,0.56-10.15,0.15-13.41-0.95c-9.28-3.12-14.72-10.81-14.93-21.85
		C64.57,140.73,64.66,128.95,64.67,117.17z M220.93,182.61c-2.91,0-5.52-0.01-8.13,0c-4.79,0.02-9.59,0.01-14.38,0.1
		c-1.21,0.02-1.82-0.19-1.78-1.58c0.08-3.26,0.02-6.52,0.02-9.94c1.36,0,2.52,0,3.68,0c6.3,0.01,12.61,0.03,18.91,0.03
		c0.91,0,1.71-0.07,1.69,1.25C220.9,175.73,220.93,179.01,220.93,182.61z M214.5,188.53c-0.21,3.08-0.2,6.1-0.68,9.03
		c-0.37,2.25-2.57,3.54-5.03,3.53c-2.48-0.01-4.57-1.29-4.95-3.62c-0.47-2.87-0.48-5.82-0.7-8.94
		C207.14,188.53,210.59,188.53,214.5,188.53z M214.16,161.7c0.02,3.81,0.03,3.82-3.83,3.85c-1.9,0.02-3.81,0.09-5.7-0.03
		c-0.45-0.03-1.23-0.74-1.24-1.15c-0.1-3.73-0.06-7.46-0.06-11.47c3.72,0,7.1,0,10.82,0C214.16,155.85,214.14,158.78,214.16,161.7z
		 M123.34,180.95c0.03,1.27-0.36,1.69-1.67,1.69c-7.03-0.02-14.06,0.04-21.09,0.12c-1.13,0.01-1.51-0.37-1.49-1.48
		c0.05-2.89,0.05-5.78-0.01-8.67c-0.02-1.11,0.32-1.47,1.47-1.45c3.55,0.08,7.1,0.03,10.64,0.03c0,0.02,0,0.04,0,0.05
		c3.48,0,6.97,0.03,10.45-0.02c1.22-0.02,1.79,0.26,1.73,1.65C123.25,175.56,123.27,178.25,123.34,180.95z M116.6,195.65
		c-0.19,3.4-2.36,5.46-5.47,5.44c-3.23-0.03-5.1-1.99-5.27-5.56c-0.09-1.83-0.23-3.67-0.15-5.49c0.02-0.54,0.71-1.49,1.13-1.51
		c3.19-0.13,6.38-0.07,9.78-0.07C116.63,191.07,116.73,193.37,116.6,195.65z M105.83,154.34c-0.03-1.26,0.4-1.58,1.57-1.57
		c2.56,0.02,5.12-0.05,7.68-0.18c1.19-0.06,1.68,0.32,1.63,1.55c-0.07,1.71-0.02,3.42-0.02,5.12c0,1.64-0.05,3.29,0.01,4.93
		c0.04,1.01-0.29,1.42-1.34,1.4c-2.69-0.05-5.39-0.06-8.08,0c-1.19,0.02-1.61-0.36-1.57-1.6
		C105.84,160.78,105.89,157.56,105.83,154.34z M255.23,234.47c-0.07,3.58-1.63,5.11-5.22,5.27c-1.44,0.06-2.89,0.08-4.34,0.08
		c-55.25,0-110.51-0.01-165.76-0.02c-3.22,0-6.45,0.02-9.67-0.02c-3.95-0.06-5.46-1.56-5.5-5.54c-0.05-4.54,0-9.08-0.03-13.62
		c-0.01-1.02-0.03-2.04-0.09-3.05c0-0.09,0.01-0.17,0.01-0.27c0.09-7.76,0.09-36.73,0.14-44.5c0-0.65,0.09-1.3,0.16-2.24
		c7.76,8.69,17.31,11.46,28.34,10.48c-0.07,4.66,1.88,7.42,6.76,7.49c0,2.45-0.07,4.75,0.01,7.04c0.25,7.23,6.78,12.56,13.52,11.07
		c4.88-1.07,8.31-4.95,8.61-9.97c0.16-2.67,0.03-5.36,0.03-8.01c5.27-0.91,5.79-1.46,6.75-6.6c0.08-0.41,0.96-0.95,1.47-0.95
		c16.44,0,32.89,0.06,49.33,0.11c3.66,0.01,7.32,0,11.2,0c-0.27,4.79,2.15,7.21,6.84,7.33c0,1.68-0.05,3.19,0.01,4.69
		c0.07,1.83-0.02,3.72,0.39,5.48c1.19,5.04,6.68,8.72,11.81,8.14c5.66-0.64,9.8-5.14,9.98-10.92c0.07-2.42,0.01-4.85,0.01-7.44
		c4.82-0.15,6.9-2.81,6.66-7.65c11.16,1.28,20.66-1.78,28.57-10.4c0,1.33,0,1.98,0,2.63c0.01,16.91,0.02,33.81,0.02,50.72
		C255.25,227.36,255.3,230.92,255.23,234.47z"/>
</g>
<g id="GUÃA_TX" class="st6">
</g>
</svg>
