<?xml version="1.0" encoding="utf-8"?>
<!-- Generator: Adobe Illustrator 27.3.1, SVG Export Plug-In . SVG Version: 6.00 Build 0)  -->
<svg version="1.1" xmlns="http://www.w3.org/2000/svg" xmlns:xlink="http://www.w3.org/1999/xlink" x="0px" y="0px"
	 viewBox="0 0 320 320" style="enable-background:new 0 0 320 320;" xml:space="preserve">
<style type="text/css">
	.st0{fill:#2B897E;}
	.st1{clip-path:url(#SVGID_00000039103563127322160130000013292721440712211608_);}
	.st2{opacity:0.43;}
	.st3{opacity:0.43;fill:#2B897E;}
	.st4{opacity:0.43;fill:url(#SVGID_00000048475460494222570730000002570669153017822143_);}
	.st5{opacity:0.43;fill:url(#SVGID_00000022556163703124278910000013560240753565870720_);}
	.st6{display:none;}
	.st7{display:inline;}
	.st8{fill:none;stroke:#FFFFFF;stroke-width:2;stroke-miterlimit:10;}
	.st9{fill:#FFFFFF;}
	.st10{opacity:0.5;fill:#00877F;}
	.st11{opacity:0.5;fill:#97C6AD;}
	.st12{opacity:0.5;fill:#4EB9B0;}
	.st13{clip-path:url(#SVGID_00000003100921218596158650000008096224210389437570_);}
	.st14{clip-path:url(#SVGID_00000127733088179941506250000006078961499565340086_);}
	.st15{clip-path:url(#SVGID_00000014619196746646584840000004772303886699057306_);}
	.st16{clip-path:url(#SVGID_00000074417907190834879390000012442783352208785306_);}
	.st17{clip-path:url(#SVGID_00000039817940868322922790000016929079495875218855_);}
	.st18{clip-path:url(#SVGID_00000070801895237157991470000014412229764569485194_);}
	.st19{clip-path:url(#SVGID_00000000945209288344050570000011630849922323111813_);}
	.st20{clip-path:url(#SVGID_00000177484544817489411920000013798990062932284810_);}
	.st21{clip-path:url(#SVGID_00000024711642149621036140000011777764116284038296_);}
	.st22{clip-path:url(#SVGID_00000057834687183928058070000016557127244364741534_);}
	.st23{clip-path:url(#SVGID_00000013165196364985356050000010195903434631018416_);}
	.st24{clip-path:url(#SVGID_00000012436254484190622010000006330556873711827101_);}
	.st25{clip-path:url(#SVGID_00000097500574053959405420000006814660936860270765_);}
	.st26{clip-path:url(#SVGID_00000005266685336280559760000015585219371047218588_);}
	.st27{clip-path:url(#SVGID_00000000184426022731249880000008160344297609172884_);}
	.st28{clip-path:url(#SVGID_00000158739773425070332950000006530856850449987990_);}
	.st29{clip-path:url(#SVGID_00000047048422713049481030000005490615637324366224_);}
	.st30{fill:#F8F6F3;}
	.st31{fill:#7E5F34;}
	.st32{fill:#E7D9C4;}
	.st33{fill:#BD955D;}
	.st34{fill:#E6D8C3;}
	.st35{fill:#F3ECE3;}
	.st36{fill:#F2EBE2;}
	.st37{fill:#94713F;}
	.st38{fill:#F3ECE2;}
	.st39{fill:#E9DECC;}
	.st40{fill:#F2EBE1;}
	.st41{fill:#AF864E;}
	.st42{fill:#F1E9DE;}
	.st43{fill:#856537;}
	.st44{fill:#E3D3BB;}
	.st45{fill:#EADFCD;}
	.st46{fill:#E5D6C1;}
	.st47{fill:#97723F;}
	.st48{fill:#95713E;}
	.st49{fill:#E9DECB;}
	.st50{fill:#AF844B;}
	.st51{fill:#CFB38B;}
	.st52{fill:#E4D5C0;}
	.st53{fill:#BD945B;}
	.st54{fill:#F1EAE1;}
	.st55{fill:#F1E9DF;}
	.st56{fill:#EADECD;}
	.st57{fill:#E5D6C0;}
	.st58{fill:#EDE3D7;}
	.st59{fill:#EEE4D7;}
	.st60{fill:#BE9761;}
	.st61{fill:#A98047;}
	.st62{fill:#F1EAE0;}
	.st63{fill:#F0E8DD;}
	.st64{fill:#EFE7DB;}
	.st65{fill:#E9DDCA;}
	.st66{fill:#CFB28B;}
	.st67{fill:#CDB088;}
	.st68{fill:#C4A273;}
	.st69{fill:#AF8349;}
	.st70{fill:#EFE6DA;}
	.st71{fill:#E7DAC6;}
	.st72{fill:#9A7440;}
	.st73{fill:#ECE1D3;}
	.st74{fill:#E7DBC6;}
	.st75{fill:#9A7744;}
	.st76{fill:#C9A87A;}
	.st77{fill:#E6D8C4;}
	.st78{fill:#95713F;}
	.st79{fill:#C9A879;}
	.st80{fill:#EEE5D8;}
	.st81{fill:#BA935E;}
	.st82{fill:#BF9862;}
	.st83{fill:#916E3C;}
	.st84{fill:#DECCB0;}
	.st85{fill:#9B7542;}
	.st86{fill:#E8DBC7;}
	.st87{fill:#E9DDCB;}
	.st88{fill:#F0E8DC;}
	.st89{fill:#F4EDE4;}
	.st90{fill:#F3EDE4;}
	.st91{fill:#E6D9C4;}
	.st92{fill:#C6A475;}
	.st93{fill:#916F3F;}
	.st94{fill:#CAA97B;}
	.st95{fill:#906E3E;}
	.st96{fill:#E4D9C6;}
	.st97{fill:#E4D9C7;}
	.st98{fill:#D0B48D;}
	.st99{fill:#9C7744;}
	.st100{fill:#CCAC80;}
	.st101{fill:#ECE1D4;}
	.st102{fill:#B0854C;}
	.st103{fill:#E0CFB6;}
	.st104{fill:#EDE1D4;}
	.st105{fill:#A07A46;}
	.st106{fill:#B0874F;}
	.st107{fill:#E0CEB4;}
	.st108{fill:#E3D3BC;}
	.st109{fill:#E7DAC5;}
	.st110{fill:#EADFCE;}
	.st111{fill:#F3ECE4;}
	.st112{fill:#967342;}
	.st113{fill:#987440;}
	.st114{fill:#DBC5A6;}
	.st115{fill:#E0CFB4;}
	.st116{fill:#896839;}
	.st117{fill:#EEE5D9;}
	.st118{fill:#94703E;}
	.st119{fill:#CFB38C;}
	.st120{fill:#EADFCF;}
	.st121{fill:#F4EDE5;}
	.st122{fill:#C29E6B;}
	.st123{fill:#C8A778;}
	.st124{fill:#977341;}
	.st125{fill:#C7A678;}
	.st126{fill:#C6A577;}
	.st127{fill:#9F7944;}
	.st128{fill:#9F7945;}
	.st129{fill:#E8DBC8;}
	.st130{fill:#E5D6BF;}
	.st131{fill:#997441;}
	.st132{fill:#E1D1B8;}
	.st133{fill:#AD844D;}
	.st134{fill:#E0CFB5;}
	.st135{fill:#A17C48;}
	.st136{fill:#E4D4BD;}
	.st137{fill:#9A7643;}
	.st138{fill:#A47C45;}
	.st139{fill:#D6BF9C;}
	.st140{fill:#DECAAE;}
	.st141{fill:#E7DBC7;}
	.st142{fill:#F0E9DE;}
	.st143{fill:#D0B48C;}
	.st144{fill:#B6884C;}
	.st145{fill:#E8DDC9;}
	.st146{fill:#B08852;}
	.st147{fill:#A98048;}
	.st148{fill:#C29C69;}
	.st149{fill:#AF8853;}
	.st150{fill:#E8DCC9;}
	.st151{fill:#B3864C;}
	.st152{fill:#E1CFB6;}
	.st153{fill:#AA8048;}
	.st154{fill:#E4D5BF;}
	.st155{fill:#C09963;}
	.st156{fill:#DCC8AA;}
	.st157{fill:#C4A16F;}
	.st158{fill:#C8A779;}
	.st159{fill:#997543;}
	.st160{fill:#A57F4A;}
	.st161{fill:#DDC9AB;}
	.st162{fill:#C6A576;}
	.st163{fill:#E3D4BD;}
	.st164{fill:#E2D2BA;}
	.st165{fill:#C49F6C;}
	.st166{fill:#A67D45;}
	.st167{fill:#B8915C;}
	.st168{fill:#BC925A;}
	.st169{fill:#E5D5BF;}
	.st170{fill:#EADFD0;}
	.st171{fill:#A67E46;}
	.st172{fill:#B2854A;}
	.st173{fill:#CEB086;}
	.st174{fill:#DAC4A5;}
	.st175{fill:#B08349;}
	.st176{fill:#C09965;}
	.st177{fill:#C29D6A;}
	.st178{fill:#C8A777;}
	.st179{fill:#BC935B;}
	.st180{fill:#DFCDB2;}
	.st181{fill:#A7804A;}
	.st182{fill:#B98F56;}
	.st183{fill:#C19B68;}
	.st184{fill:#CDAF85;}
	.st185{fill:#C39F6C;}
	.st186{fill:#C6A373;}
	.st187{fill:#EDE2D5;}
	.st188{fill:#C4A06D;}
	.st189{fill:#E4D4BE;}
	.st190{fill:#A17C49;}
	.st191{fill:#C5A270;}
	.st192{fill:#E2D2B9;}
	.st193{fill:#C39E6B;}
	.st194{fill:#CDAE83;}
	.st195{fill:#C4A16E;}
	.st196{fill:#C39D69;}
	.st197{fill:#BF9863;}
	.st198{fill:#DECBAF;}
	.st199{fill:#BA8F56;}
	.st200{fill:#B1844A;}
	.st201{fill:#D7BF9D;}
	.st202{fill:#B4864B;}
	.st203{fill:#AC824A;}
	.st204{fill:#D4B994;}
	.st205{fill:#C39D6A;}
	.st206{fill:#D8C1A0;}
	.st207{fill:#A07A45;}
	.st208{fill:#BB9159;}
	.st209{fill:#EBDFD0;}
	.st210{fill:#E1D1B9;}
	.st211{fill:#C7A575;}
	.st212{fill:#EDE4D7;}
	.st213{fill:#D2B791;}
	.st214{fill:#BB9158;}
	.st215{fill:#D1B68F;}
	.st216{fill:#D6BE9C;}
	.st217{fill:#CBAC80;}
	.st218{fill:#A77F47;}
	.st219{fill:#D0B38B;}
	.st220{fill:#B9915A;}
	.st221{fill:#EADECE;}
	.st222{fill:#C19C69;}
	.st223{fill:#AF8751;}
	.st224{fill:#ECE1D2;}
	.st225{fill:#E1D2BD;}
	.st226{fill:#B4874D;}
	.st227{fill:#D4BA94;}
	.st228{fill:#8F6D3C;}
	.st229{fill:#A07842;}
	.st230{fill:#8C6A3A;}
	.st231{fill:#99733F;}
	.st232{fill:#AF8249;}
	.st233{fill:#B78D53;}
	.st234{fill:#A87F46;}
	.st235{fill:#96713E;}
	.st236{fill:#B6884D;}
	.st237{fill:#AB8047;}
	.st238{fill:#D8C2A1;}
	.st239{fill:#9F7842;}
	.st240{fill:#97723E;}
	.st241{fill:#8E6C3C;}
	.st242{fill:#B78D55;}
	.st243{fill:#AB8048;}
	.st244{fill:#B99461;}
	.st245{fill:#B99360;}
	.st246{fill:#7F5F34;}
	.st247{fill:#9E7741;}
	.st248{fill:#8A6839;}
	.st249{fill:#A97F46;}
	.st250{fill:#B78D56;}
	.st251{fill:#E8DDCA;}
	.st252{fill:#BB9058;}
	.st253{fill:#9A7644;}
	.st254{fill:#846437;}
	.st255{fill:#967341;}
	.st256{fill:#B5874C;}
	.st257{fill:#785A31;}
	.st258{fill:#AF8B5A;}
	.st259{fill:#B18449;}
	.st260{fill:#B1874E;}
	.st261{fill:#936F3D;}
	.st262{fill:#836336;}
	.st263{fill:#856437;}
	.st264{fill:#926F3D;}
	.st265{fill:#CDAE84;}
	.st266{fill:#EBDFCF;}
	.st267{fill:#AF854E;}
	.st268{fill:#866638;}
	.st269{fill:#A17942;}
	.st270{fill:#916F3E;}
	.st271{fill:#F4EEE6;}
	.st272{fill:#B68B51;}
	.st273{fill:#9B7541;}
	.st274{fill:#C19A64;}
	.st275{fill:#CEB085;}
	.st276{fill:#C2A06F;}
	.st277{fill:#E7D9C5;}
	.st278{fill:#6E522D;}
	.st279{fill:#806136;}
	.st280{fill:#806135;}
	.st281{fill:#C4A373;}
	.st282{fill:#B88D53;}
	.st283{fill:#AE844D;}
	.st284{fill:#88683B;}
	.st285{fill:#86663A;}
	.st286{fill:#A57D45;}
	.st287{fill:#AD8248;}
	.st288{fill:#997440;}
	.st289{fill:#DDCAAE;}
	.st290{fill:#D6BD9B;}
	.st291{fill:#93703E;}
	.st292{fill:#AC8550;}
	.st293{fill:#DDC9AD;}
	.st294{fill:#A37B43;}
	.st295{fill:#A77E46;}
	.st296{fill:#E6D7C2;}
	.st297{fill:#ECE2D3;}
	.st298{fill:#CEB187;}
	.st299{fill:#F4EEE5;}
	.st300{fill:#AE8A59;}
	.st301{fill:#CDAF84;}
	.st302{fill:#C7A677;}
	.st303{fill:#B78F57;}
	.st304{fill:#8D6B3B;}
	.st305{fill:#9B7846;}
	.st306{fill:#B0854D;}
	.st307{fill:#AF854C;}
	.st308{fill:#9B7540;}
	.st309{fill:#C7A676;}
	.st310{fill:#CBAB80;}
	.st311{fill:#CFB189;}
	.st312{fill:#916E3D;}
	.st313{fill:#A6814F;}
	.st314{fill:#8B693A;}
	.st315{fill:#C6A474;}
	.st316{fill:#E5D7C2;}
	.st317{fill:#E8DCCA;}
	.st318{fill:#93703D;}
	.st319{fill:#7F6035;}
	.st320{fill:#A17A42;}
	.st321{fill:#967340;}
	.st322{fill:#9D7741;}
	.st323{fill:#BB925A;}
	.st324{fill:#957240;}
	.st325{fill:#AC8048;}
	.st326{fill:#CAAA7C;}
	.st327{fill:#B38A53;}
	.st328{fill:#755730;}
	.st329{fill:#6A4F2B;}
	.st330{fill:#7D5E33;}
	.st331{fill:#F1EADF;}
	.st332{fill:#F0E7DC;}
	.st333{fill:#E5D5C0;}
	.st334{fill:#AB844E;}
	.st335{fill:#926E3D;}
	.st336{fill:#EDE2D4;}
	.st337{fill:#9D7744;}
	.st338{fill:#A67F49;}
	.st339{fill:#A88049;}
	.st340{fill:#B18349;}
	.st341{fill:#7D5F34;}
	.st342{fill:#98723F;}
	.st343{fill:#B2854B;}
	.st344{fill:#A9814B;}
	.st345{fill:#E2D2BB;}
	.st346{fill:#CDAE82;}
	.st347{fill:#B68A51;}
	.st348{fill:#927040;}
	.st349{fill:#AE834B;}
	.st350{fill:#836437;}
	.st351{fill:#AF8750;}
	.st352{fill:#9A7541;}
	.st353{fill:#AB8552;}
	.st354{fill:#E6D7C3;}
	.st355{fill:#826337;}
	.st356{fill:#71542E;}
	.st357{fill:#BF9B68;}
	.st358{fill:#A8804A;}
	.st359{fill:#866639;}
	.st360{fill:#A77F46;}
	.st361{fill:#A17B45;}
	.st362{fill:#836337;}
	.st363{fill:#DFCDB1;}
	.st364{fill:#876639;}
	.st365{fill:#6F522D;}
	.st366{fill:#876738;}
	.st367{fill:#B4884F;}
	.st368{fill:#DCC6A8;}
	.st369{fill:#6B502C;}
	.st370{fill:#EFE7DC;}
	.st371{fill:#9A7542;}
	.st372{fill:#B6905C;}
	.st373{fill:#967647;}
	.st374{fill:#AE824A;}
	.st375{fill:#8F6D3D;}
	.st376{fill:#BE965F;}
	.st377{fill:#DDC9AC;}
	.st378{fill:#DCC6A7;}
	.st379{fill:#F0E7DB;}
	.st380{fill:#E8DDCB;}
	.st381{fill:#96723F;}
	.st382{fill:#DBC5A7;}
	.st383{fill:#A67E45;}
	.st384{fill:#906E3C;}
	.st385{fill:#70532E;}
	.st386{fill:#684E2B;}
	.st387{fill:#A88047;}
	.st388{fill:#B08449;}
	.st389{fill:#93703F;}
	.st390{fill:#B3854A;}
	.st391{fill:#C5A271;}
	.st392{fill:#AB8149;}
	.st393{fill:#E0CEB3;}
	.st394{fill:#9C7642;}
	.st395{fill:#866637;}
	.st396{fill:#EDE3D5;}
	.st397{fill:#C19B67;}
	.st398{fill:#B68C54;}
	.st399{fill:#9E7B4A;}
	.st400{fill:#DFCCB1;}
	.st401{fill:#785B32;}
	.st402{fill:#BA996A;}
	.st403{fill:#AA814A;}
	.st404{fill:#AE854E;}
	.st405{fill:#C19B66;}
	.st406{fill:#826236;}
	.st407{fill:#B4874B;}
	.st408{fill:#A57C44;}
	.st409{fill:#B98D53;}
	.st410{fill:#94703D;}
	.st411{fill:#B28449;}
	.st412{fill:#A47C44;}
	.st413{fill:#8E6C3B;}
	.st414{fill:#BC935A;}
	.st415{fill:#A27A43;}
	.st416{fill:#765831;}
	.st417{fill:#C29C68;}
	.st418{fill:#C49F6D;}
	.st419{fill:#C19A66;}
	.st420{fill:#C09964;}
	.st421{fill:#755831;}
	.st422{fill:#604827;}
	.st423{fill:#9C7641;}
	.st424{fill:#A17943;}
	.st425{fill:#866537;}
	.st426{fill:#89683A;}
	.st427{fill:#BC945E;}
	.st428{fill:#CEB38C;}
	.st429{fill:#C6A575;}
	.st430{fill:#A27A45;}
	.st431{fill:#B38B55;}
	.st432{fill:#B88B51;}
	.st433{fill:#C4A06E;}
	.st434{fill:#523E21;}
	.st435{fill:#5F4626;}
	.st436{fill:#574124;}
	.st437{fill:#775931;}
	.st438{fill:#7B5D33;}
	.st439{fill:#694F2B;}
	.st440{fill:#CCAD83;}
	.st441{fill:#B0864D;}
	.st442{fill:#EBE0D0;}
	.st443{fill:#E9DECD;}
	.st444{fill:#96723E;}
	.st445{fill:#D1B58E;}
	.st446{fill:#664C2A;}
	.st447{fill:#795B32;}
	.st448{fill:#B7884C;}
	.st449{fill:#795C32;}
	.st450{fill:#D7BE9C;}
	.st451{fill:#826336;}
	.st452{fill:#B88C52;}
	.st453{fill:#C29B67;}
	.st454{fill:#9C7743;}
	.st455{fill:#AD8249;}
	.st456{fill:#B88E57;}
	.st457{fill:#614828;}
	.st458{fill:#533E21;}
	.st459{fill:#775A31;}
	.st460{fill:#B1864D;}
	.st461{fill:#816236;}
	.st462{fill:#B78B51;}
	.st463{fill:#926F3C;}
	.st464{fill:#654C2A;}
	.st465{fill:#4F3C20;}
	.st466{fill:#564124;}
	.st467{fill:#584225;}
	.st468{fill:#584224;}
	.st469{fill:#513D21;}
	.st470{fill:#5E4626;}
	.st471{fill:#6B512D;}
	.st472{fill:#7C5E33;}
	.st473{fill:#6F532D;}
	.st474{fill:#7A5C32;}
	.st475{fill:#70542E;}
	.st476{fill:#D6BE9B;}
	.st477{fill:#C29C67;}
	.st478{fill:#886738;}
	.st479{fill:#9E7742;}
	.st480{fill:#745730;}
	.st481{fill:#B68F5A;}
	.st482{fill:#755731;}
	.st483{fill:#5D4526;}
	.st484{fill:#BA8F55;}
	.st485{fill:#BE9661;}
	.st486{fill:#B18750;}
	.st487{fill:#806035;}
	.st488{fill:#BB9057;}
	.st489{fill:#876637;}
	.st490{fill:#AA8047;}
	.st491{fill:#AC8148;}
	.st492{fill:#BA8E54;}
	.st493{fill:#BD965F;}
	.st494{fill:#B6894D;}
	.st495{fill:#B3864B;}
	.st496{fill:#8A6939;}
	.st497{fill:#7B5D32;}
	.st498{fill:#5A4325;}
	.st499{fill:#EFE7DA;}
	.st500{fill:#A97F47;}
	.st501{fill:#594325;}
	.st502{fill:#BE9660;}
	.st503{fill:#BD955E;}
	.st504{fill:#5B4425;}
	.st505{fill:#523D21;}
	.st506{fill:#9F7742;}
	.st507{fill:#DAC5A5;}
	.st508{fill:#D2B790;}
	.st509{fill:#D4BA95;}
	.st510{fill:#D3B993;}
	.st511{fill:#CCAD81;}
	.st512{fill:#CEB087;}
	.st513{fill:#BB945E;}
	.st514{fill:#755830;}
	.st515{fill:#836436;}
	.st516{fill:#503C20;}
	.st517{fill:#CBAB7F;}
	.st518{fill:#B88F57;}
	.st519{fill:#BA9159;}
	.st520{fill:#554023;}
	.st521{fill:#CAAA7E;}
	.st522{fill:#CFB188;}
	.st523{fill:#DBC5A5;}
	.st524{fill:#E1D0B7;}
	.st525{fill:#735630;}
	.st526{fill:#A37B44;}
	.st527{fill:#C5A16F;}
	.st528{fill:#AE8249;}
	.st529{fill:#B88A4F;}
	.st530{fill:#E0D0B5;}
	.st531{fill:#72552F;}
	.st532{fill:#B58C55;}
	.st533{fill:#664D2B;}
	.st534{fill:#B58C54;}
	.st535{fill:#B08348;}
	.st536{fill:#CEB188;}
	.st537{fill:#C19A65;}
	.st538{fill:#C29D69;}
	.st539{fill:#B18348;}
	.st540{fill:#AF834A;}
	.st541{fill:#AC834B;}
	.st542{fill:#B4854A;}
	.st543{fill:#9C7541;}
	.st544{fill:#A07942;}
	.st545{fill:#ECE0D2;}
	.st546{fill:#AE8248;}
	.st547{fill:#B6894E;}
	.st548{fill:#71552F;}
	.st549{fill:#906E3D;}
	.st550{fill:#CEB186;}
	.st551{fill:#E1D1B7;}
	.st552{fill:#BC9159;}
	.st553{fill:#F5F0E9;}
	.st554{fill:#C9A97B;}
	.st555{fill:#C3A06F;}
	.st556{fill:#AB814A;}
	.st557{fill:#785B31;}
	.st558{fill:#7C5E36;}
	.st559{fill:#826237;}
	.st560{fill:#D5BC99;}
	.st561{fill:#CFB289;}
	.st562{fill:#CAAA7D;}
	.st563{fill:#ECE0D1;}
	.st564{fill:#D5BB96;}
	.st565{fill:#C7A574;}
	.st566{fill:#6D522D;}
	.st567{fill:#D3B891;}
	.st568{fill:#CEB28A;}
	.st569{fill:#D1B792;}
	.st570{fill:#8F6C3C;}
	.st571{fill:#CFB38A;}
	.st572{fill:#F5F1EC;}
	.st573{fill:#BA9058;}
	.st574{fill:#C5A16E;}
	.st575{fill:#B68E59;}
	.st576{fill:#795B31;}
	.st577{fill:#8D6C3D;}
	.st578{fill:#B0834A;}
	.st579{fill:#B28952;}
	.st580{fill:#DAC4A4;}
	.st581{fill:#907143;}
	.st582{fill:#DDCAAC;}
	.st583{fill:#C5A170;}
	.st584{fill:#A87F47;}
	.st585{fill:#9D7945;}
	.st586{fill:#C5A372;}
	.st587{fill:#D8C2A0;}
	.st588{fill:#D8C19F;}
	.st589{fill:#F6F3EE;}
	.st590{fill:#A88048;}
	.st591{fill:#745630;}
	.st592{fill:#765830;}
	.st593{fill:#B08750;}
	.st594{fill:#9F7843;}
	.st595{fill:#AE844C;}
	.st596{fill:#74562F;}
	.st597{fill:#BE9762;}
	.st598{fill:#C29E6A;}
	.st599{fill:#7C5D33;}
	.st600{fill:#BD935B;}
	.st601{fill:#DBC6A7;}
	.st602{fill:#BE9763;}
	.st603{fill:#C5A374;}
	.st604{fill:#AE834A;}
	.st605{fill:#D9C3A2;}
	.st606{fill:#DBC6A8;}
	.st607{fill:#DFCEB2;}
	.st608{fill:#B88E56;}
	.st609{fill:#C09A66;}
	.st610{fill:#B48950;}
	.st611{fill:#E2D1B9;}
	.st612{fill:#94703F;}
	.st613{fill:#F3EDE3;}
	.st614{fill:#AD8148;}
	.st615{fill:#B5884D;}
	.st616{fill:#E5D5C1;}
	.st617{fill:#BE965E;}
	.st618{fill:#9B7745;}
	.st619{fill:#997541;}
	.st620{fill:#977340;}
	.st621{fill:#886739;}
	.st622{fill:#B68950;}
	.st623{fill:#F2EBE0;}
	.st624{fill:#B8905A;}
	.st625{fill:#997542;}
	.st626{fill:#C5A474;}
	.st627{fill:#E7DCC8;}
	.st628{fill:#E8DAC6;}
	.st629{fill:#CAA97C;}
	.st630{fill:#B1874F;}
	.st631{fill:#A37D47;}
	.st632{fill:#E7DAC7;}
	.st633{fill:#987340;}
	.st634{fill:#DBC7A9;}
	.st635{fill:#AE854D;}
	.st636{fill:#C19B65;}
	.st637{fill:#BC945C;}
	.st638{fill:#9D7947;}
	.st639{fill:#C09A65;}
	.st640{fill:#B1854C;}
	.st641{fill:#D3B894;}
	.st642{fill:#B88B50;}
	.st643{fill:#EDE3D6;}
	.st644{fill:#C3A171;}
	.st645{fill:#98733F;}
	.st646{fill:#CCAE82;}
	.st647{fill:#BD945D;}
	.st648{fill:#CCAE83;}
	.st649{fill:#D5BB98;}
	.st650{fill:#D4B993;}
	.st651{fill:#E4D5BE;}
	.st652{fill:#E5D7C1;}
	.st653{fill:#967240;}
	.st654{fill:#EEE4D8;}
	.st655{fill:#B6905B;}
	.st656{fill:#9A7441;}
	.st657{fill:#EFE8DB;}
	.st658{fill:#987441;}
	.st659{fill:#CFB48D;}
	.st660{fill:#D7C09E;}
	.st661{fill:#D3B892;}
	.st662{fill:#9D7642;}
	.st663{fill:#AD834B;}
	.st664{fill:#D0B58F;}
	.st665{fill:#DAC4A3;}
	.st666{fill:#DCC7A9;}
	.st667{fill:#B7894D;}
	.st668{fill:#BC9663;}
	.st669{fill:#9E7945;}
	.st670{fill:#957342;}
	.st671{fill:#A37D49;}
	.st672{fill:#A7885C;}
	.st673{fill:#B88E55;}
	.st674{fill:#926F3E;}
	.st675{fill:#D5BC98;}
	.st676{fill:#AD854F;}
	.st677{fill:#B78E56;}
	.st678{fill:#B18954;}
	.st679{fill:#A77D45;}
	.st680{fill:#B5874D;}
	.st681{fill:#B6884E;}
	.st682{fill:#B88C51;}
	.st683{fill:#B78A50;}
	.st684{fill:#B5884E;}
	.st685{fill:#9D7641;}
	.st686{fill:#B98E54;}
	.st687{fill:#A17A44;}
	.st688{fill:#C5A371;}
	.st689{fill:#B78A4F;}
	.st690{fill:#5F4627;}
	.st691{fill:#B2864D;}
	.st692{fill:#A17B46;}
	.st693{fill:#E7DCCA;}
	.st694{fill:#B2864C;}
	.st695{fill:#AC844E;}
	.st696{fill:#B0844A;}
	.st697{fill:#BA9057;}
	.st698{fill:#A07B47;}
	.st699{fill:#B28D5B;}
	.st700{fill:#8A693A;}
	.st701{fill:#A6824F;}
	.st702{fill:#BE9967;}
	.st703{fill:#906D3C;}
	.st704{fill:#8F6E3F;}
	.st705{fill:#9B7642;}
	.st706{fill:#F0E8DE;}
	.st707{fill:#816237;}
	.st708{fill:#B28B57;}
	.st709{fill:#A37C46;}
	.st710{fill:#AE8651;}
	.st711{fill:#89693C;}
	.st712{fill:#9E7844;}
	.st713{fill:#AC834D;}
	.st714{fill:#E8DCC8;}
	.st715{fill:#A47D47;}
	.st716{fill:#9D7843;}
	.st717{fill:#806236;}
	.st718{fill:#846436;}
	.st719{fill:#7F6138;}
	.st720{fill:#BA925B;}
	.st721{fill:#CBAB7E;}
	.st722{fill:#6C512C;}
	.st723{fill:#896738;}
	.st724{fill:#B28A53;}
	.st725{fill:#D3B893;}
	.st726{fill:#9E7843;}
	.st727{fill:#927244;}
	.st728{fill:#876739;}
	.st729{fill:#644B2A;}
	.st730{fill:#846438;}
	.st731{fill:#DDC8AB;}
	.st732{fill:#614928;}
	.st733{fill:#E9DDCC;}
	.st734{fill:#B48A53;}
	.st735{fill:#A5804D;}
	.st736{fill:#A57F4B;}
	.st737{fill:#B78F59;}
	.st738{fill:#B2874E;}
	.st739{fill:#B48A52;}
	.st740{fill:#8C6A3B;}
	.st741{fill:#D0B58E;}
	.st742{fill:#A17A43;}
	.st743{fill:#B7884D;}
	.st744{fill:#9D7742;}
	.st745{fill:#5F4727;}
	.st746{fill:#B98E53;}
	.st747{fill:#B7894E;}
	.st748{fill:#624928;}
	.st749{fill:#674D2B;}
	.st750{fill:#B99059;}
	.st751{fill:#543F22;}
	.st752{fill:#B4874E;}
	.st753{fill:#634A29;}
	.st754{fill:#876638;}
	.st755{fill:#D0B38C;}
	.st756{fill:#CDAD81;}
	.st757{fill:#A37D48;}
	.st758{fill:#C09B68;}
	.st759{fill:#503D20;}
	.st760{fill:#5C4526;}
	.st761{fill:#B38B54;}
	.st762{fill:#5D4626;}
	.st763{fill:#BE9760;}
	.st764{fill:#AF8348;}
	.st765{fill:#AF8248;}
	.st766{fill:#C6A574;}
	.st767{fill:#B98F57;}
	.st768{fill:#B78A51;}
	.st769{fill:#B98E55;}
	.st770{fill:#DFCCB0;}
	.st771{fill:#BD955F;}
	.st772{fill:#B6874C;}
	.st773{fill:#BD945C;}
	.st774{fill:#765931;}
	.st775{fill:#6D522C;}
	.st776{fill:#6D512C;}
	.st777{fill:#816235;}
	.st778{fill:#A87E46;}
	.st779{fill:#AC8047;}
	.st780{fill:#7A5D32;}
	.st781{fill:#CFB28A;}
	.st782{fill:#D6BD9A;}
	.st783{fill:#73562F;}
	.st784{fill:#85663A;}
	.st785{fill:#CEAF85;}
	.st786{fill:#C7A77C;}
	.st787{fill:#C6A473;}
	.st788{fill:#B68E56;}
	.st789{fill:#BD9660;}
	.st790{fill:#A67F47;}
	.st791{fill:#B28850;}
	.st792{fill:#BD9661;}
	.st793{fill:#B0864E;}
	.st794{fill:#9D7743;}
	.st795{fill:#AC8149;}
	.st796{fill:#B9925D;}
	.st797{fill:#9C7947;}
	.st798{fill:#B58B53;}
	.st799{fill:#B88F58;}
	.st800{fill:#A98049;}
	.st801{fill:#D9C3A3;}
	.st802{fill:#906E3F;}
	.st803{fill:#D4BA96;}
	.st804{fill:#F5F0EB;}
	.st805{fill:#D3B992;}
	.st806{fill:#CEAF84;}
	.st807{fill:#D9C2A1;}
	.st808{fill:#D7BE9D;}
	.st809{fill:#C9A97A;}
	.st810{fill:#BD9763;}
	.st811{fill:#D8C2A2;}
	.st812{fill:#D7C19F;}
	.st813{fill:#DDCAAD;}
	.st814{fill:#D4BB96;}
	.st815{fill:#F5F0EA;}
	.st816{fill:#B3854B;}
	.st817{fill:#B98E56;}
	.st818{fill:#A57D46;}
	.st819{fill:#DECAAF;}
	.st820{fill:#E1D0B6;}
	.st821{fill:#A17D4A;}
	.st822{fill:#EBDFCE;}
	.st823{fill:#9A7B4C;}
	.st824{fill:#B1854A;}
	.st825{fill:#B18953;}
	.st826{fill:#B4894F;}
	.st827{fill:#C6A372;}
	.st828{fill:#997644;}
	.st829{fill:#4B381F;}
	.st830{fill:#CAA97A;}
	.st831{fill:#B38B56;}
	.st832{fill:#B68C52;}
	.st833{fill:#9D7845;}
	.st834{fill:#EDE4D6;}
	.st835{fill:#E8DCCB;}
	.st836{fill:#EBE0D2;}
	.st837{fill:#6E532E;}
	.st838{fill:#9F7844;}
	.st839{fill:#8F6C3B;}
	.st840{fill:#E6D7C1;}
	.st841{fill:#C5A475;}
	.st842{fill:#977442;}
	.st843{fill:#BA8F57;}
	.st844{fill:#C4A271;}
	.st845{fill:#686868;}
	.st846{clip-path:url(#SVGID_00000163769143844913348730000010388864704489550014_);}
	.st847{clip-path:url(#SVGID_00000107561965194223297190000008005401383507114134_);}
	.st848{clip-path:url(#SVGID_00000134947456067059586990000012037122988248352693_);}
	.st849{clip-path:url(#SVGID_00000125590369106559936220000011550942715152721589_);}
	.st850{clip-path:url(#SVGID_00000173118882022386766020000017861442099767743416_);}
	.st851{clip-path:url(#SVGID_00000096771823673216044900000013246704430896850850_);}
	.st852{clip-path:url(#SVGID_00000093893238266769343270000003890041548198640819_);}
	.st853{clip-path:url(#SVGID_00000092448916087898050100000005506421161869872784_);}
</style>
<g id="TX1-1">
	<rect x="-31.12" y="-31.12" class="st0" width="382.25" height="382.25"/>
	<g>
		<path class="st9" d="M219.63,145.45c6-4.29,11.92-8.69,17.92-12.97c1.75-1.25,2.78-2.8,3.43-4.85
			c6.64-20.71,13.37-41.39,20.07-62.09c0-0.13,0-0.26,0-0.4c-2.41-2.83-2.81-2.89-5.83-0.82c-0.27,0.19-0.54,0.37-0.81,0.56
			c-6.87,4.99-13.75,9.97-20.61,14.97c-1.03,0.75-1.83,1.14-3.1,0.16c-5.12-3.92-10.38-7.66-15.54-11.54
			c-2.13-1.61-4.43-1.94-6.65-0.69c-2.55,1.44-5.14,3.01-7.26,5.01c-9.48,8.9-16.86,19.51-23.95,30.3
			c-3.14,4.78-5.92,9.81-6.91,15.59c-0.53,3.08,0.35,5.53,2.95,7.4c5.08,3.65,10.08,7.41,15.16,11.07c1.23,0.89,1.65,1.69,1.11,3.28
			c-2.93,8.52-5.72,17.08-8.53,25.63c-0.49,1.48-0.8,2.99,0.76,4.1c1.51,1.08,2.85,0.51,4.16-0.43c5.13-3.7,10.27-7.37,15.38-11.08
			c3.72-2.7,7.4-5.45,11.38-8.39c0.54,1.44,0.9,2.53,1.36,3.58c3.63,8.15,10.58,11.41,18.81,12.94c4.18,0.78,8.3,1.88,12.43,2.91
			c1.65,0.41,3.24,1.11,4.89,1.54c3.58,0.94,7.18-1.71,7.34-5.42c0.06-1.44,0.03-2.91-0.16-4.34c-0.57-4.28-4.49-6.54-8.45-4.87
			c-2.48,1.05-4.99,2.09-7.32,3.41c-2.5,1.41-4.98,1.62-7.77,1.22c-8.02-1.16-13.44-5.55-15.32-12.58
			C218.18,147.26,218.4,146.33,219.63,145.45z M246.05,164.18c1.39-0.65,3.7-1.82,5.38-2.61c0.12,1.54,0.21,2.67,0.34,4.26
			C250,165.28,247.52,164.64,246.05,164.18C246.04,164.06,246.05,164.12,246.05,164.18z M176.77,118.21
			c2.23-4.74,4.22-9.64,6.89-14.13c5.78-9.71,12.62-18.65,21.06-26.25c1.81-1.63,3.85-3.01,5.79-4.5c0.15,0.17,0.29,0.34,0.44,0.51
			c-0.93,10.19-22.28,40.1-34.49,46.68C176.57,119.62,176.48,118.83,176.77,118.21z M181.26,124.93
			c15.27-13.46,27.65-29.05,35.41-48.35c4.37,3.29,8.77,6.52,13.04,9.9c0.48,0.38,0.63,1.73,0.36,2.39
			c-1.72,4.18-3.28,8.48-5.5,12.4c-5.59,9.9-12.43,18.91-20.62,26.83c-2.07,2.01-4.42,3.72-6.61,5.62
			c-1.42,1.24-2.65,1.21-4.18,0.02C189.28,130.73,185.27,127.88,181.26,124.93z M190.78,159.09c-0.31,0.22-0.64,0.43-0.96,0.64
			c-0.16-0.07-0.32-0.14-0.48-0.21c0.95-3.05,1.9-6.1,2.87-9.14c0.9-2.82,1.79-5.64,2.76-8.43c0.2-0.57,0.61-1.32,1.1-1.49
			c6.34-2.24,10.81-6.94,15.24-11.63c8.28-8.76,15.24-18.48,20.71-29.22c2.15-4.23,3.95-8.61,3.97-13.51c0-0.56,0.4-1.31,0.85-1.63
			c4.73-3.44,9.51-6.82,14.29-10.2c0.3-0.21,0.68-0.29,1.26-0.54c-0.13,0.66-0.17,1.09-0.3,1.5c-5.42,16.69-10.82,33.38-16.33,50.04
			c-0.41,1.25-1.37,2.56-2.44,3.33C219.16,138.8,204.96,148.93,190.78,159.09z"/>
		<path class="st9" d="M108.9,151.67c3.57,1.22,6.55,0.48,8.96-2.56c3.23-4.08,6.55-8.08,9.84-12.11c2.73-3.34,2.74-3.34,6.65-1.82
			c0.67,0.26,1.47,0.41,1.97,0.87c0.58,0.53,1.27,1.34,1.29,2.05c0.12,4.54,0.15,9.09,0.02,13.63c-0.05,1.8-0.41,3.66-0.98,5.38
			c-1.02,3.05-2.39,5.98-3.45,9.02c-1.36,3.89,0.74,7.35,4.82,8c1.29,0.21,2.63,0.16,3.94,0.11c4.76-0.18,7.39-3.97,5.8-8.47
			c-0.79-2.23-1.73-4.41-2.72-6.55c-1.35-2.93-1.96-5.93-1.77-9.19c0.18-3.02,0-6.05,0-9.08c0-0.68,0.11-1.36,0.18-2.23
			c0.75,0.29,1.23,0.47,1.71,0.65c4.29,1.67,8.54,3.44,12.89,4.92c0.96,0.33,2.47-0.04,3.35-0.65c1.14-0.79,0.98-2.18,0.26-3.39
			c-0.57-0.96-1.1-1.95-1.7-2.89c-10.83-16.89-21.71-33.75-32.48-50.68c-1.43-2.24-3.22-3.66-5.66-4.6
			c-16.99-6.53-33.96-13.11-50.93-19.69c-2.92-1.13-5.8-2.39-8.7-3.58c-0.79,0-1.58,0-2.37,0c0.07,0.24,0.28,0.62,0.19,0.71
			c-2.08,2.16-0.64,3.97,0.54,5.81c4.67,7.32,9.31,14.66,14.03,21.95c0.71,1.09,0.59,1.7-0.25,2.67c-4.13,4.78-8.14,9.67-12.21,14.5
			c-1.6,1.9-2.04,4.03-0.95,6.24c1.12,2.29,2.3,4.61,3.81,6.65c6.96,9.38,15.16,17.51,24.89,24.04
			C95.87,145.42,101.98,149.3,108.9,151.67z M143.35,122.97c0.18-0.04,0.36-0.07,0.54-0.11c2.64,4.13,5.28,8.27,7.92,12.4
			c-0.2,0.16-0.39,0.33-0.59,0.49c-2.32-0.89-4.65-1.75-6.95-2.69c-0.37-0.15-0.87-0.62-0.88-0.95
			C143.32,129.06,143.35,126.01,143.35,122.97z M140.31,163.11c0.76,1.47,2.01,3.83,2.48,4.95c-1.01,0.14-3.55,0.19-4.57,0.13
			C138.61,167.02,139.67,164.61,140.31,163.11z M69.29,68.81c-0.1-0.15-0.12-0.35-0.36-1.04c1.12,0.35,1.86,0.53,2.57,0.8
			c16.23,6.3,32.46,12.61,48.67,18.96c0.81,0.32,1.7,0.86,2.15,1.56c4.83,7.45,9.6,14.94,14.3,22.47c0.59,0.95,0.95,2.2,0.98,3.32
			c0.1,4.99,0.04,9.99,0.04,14.98c-3.12,0.15-4.52-0.79-5.48-3.49c-1.77-4.95-5.16-8.84-8.59-12.66
			c-8.42-9.39-18.42-16.89-28.99-23.62c-4.27-2.72-8.86-4.91-14.11-5.17c-0.47-0.02-1.08-0.45-1.35-0.86
			C75.82,78.99,72.56,73.9,69.29,68.81z M72,117.34c-2.02-2.37-3.73-5.01-5.58-7.52c0.14-0.19,0.28-0.38,0.42-0.57
			c1.31,0.28,2.66,0.46,3.93,0.87c6.22,1.99,11.21,6.03,16.17,10.05c3.38,2.73,6.6,5.66,9.92,8.47c1.78,1.5,2.97,1.56,4.14,0.27
			c1.11-1.23,1.4-2.57,0.06-3.83c-8.73-8.26-17.69-16.2-29.27-20.41c-0.52-0.19-0.98-0.51-1.61-0.85
			c3.63-4.33,7.05-8.49,10.61-12.52c0.41-0.46,1.78-0.53,2.44-0.22c3.61,1.73,7.29,3.38,10.65,5.53
			c10.72,6.84,20.34,15.01,28.62,24.69c1.61,1.89,2.9,4.07,4.24,6.18c0.27,0.43,0.36,1.36,0.09,1.7c-3.4,4.19-6.88,8.32-10.35,12.46
			c-0.11,0.13-0.34,0.16-0.6,0.27c-1.09-1.51-2.07-2.92-3.1-4.28c-1.46-1.93-2.49-2.18-4.12-1.08c-1.48,1-1.62,1.98-0.37,4.1
			c1.06,1.8,2.24,3.51,3.14,5.73c-0.89-0.21-1.88-0.22-2.64-0.65c-4.59-2.55-9.33-4.91-13.65-7.86
			C86.58,132.02,78.75,125.26,72,117.34z"/>
		<path class="st9" d="M221.04,178.18c-0.82-0.33-1.81-0.28-2.73-0.3c-21.6-0.42-43.19-0.79-64.79-1.29
			c-2.93-0.07-5.33,0.7-7.69,2.37c-11.72,8.28-23.52,16.43-35.25,24.68c-6.35,4.47-12.64,9.02-18.95,13.55
			c-1.13,0.81-2.36,1.62-1.94,3.3c0.46,1.83,1.84,2.43,3.58,2.48c0.85,0.03,1.71,0.16,2.56,0.17c3.81,0.02,7.61,0.01,11.77,0.01
			c0,5.38,0.09,10.31-0.05,15.24c-0.05,1.86-0.38,3.79-0.99,5.55c-1.12,3.22-2.71,6.28-3.79,9.51c-1.05,3.15,0.71,6.33,3.83,7.16
			c1.63,0.43,3.4,0.66,5.07,0.53c4.81-0.36,7.3-4.26,5.76-8.82c-0.46-1.36-1.2-2.63-1.64-4c-0.92-2.86-2.17-5.71-2.47-8.65
			c-0.44-4.24-0.15-8.55-0.17-12.83c0-1.09,0-2.19,0-3.23c3.34,0,6.35,0.07,9.36-0.03c1.38-0.05,1.91,0.46,2.3,1.76
			c1.99,6.61,4.13,13.16,6.14,19.76c0.5,1.65,1.41,2.68,3.14,2.75c3.87,0.15,7.76,0.47,11.62,0.31
			c20.77-0.87,39.28-7.89,55.64-20.68c1.59-1.24,1.95-2.6,1.36-4.48c-2.03-6.45-3.94-12.95-6-19.39c-0.49-1.52-0.18-2.32,1.15-3.21
			c6.82-4.59,13.58-9.29,20.34-13.97c1.51-1.05,3.13-2.04,4.36-3.37c0.66-0.71,0.98-2.18,0.75-3.14
			C223.13,179.19,221.92,178.54,221.04,178.18z M107.99,255.21c0.73-1.81,1.33-3.31,2.16-5.35c0.89,2.03,1.52,3.48,2.34,5.35
			C110.91,255.21,109.72,255.21,107.99,255.21z M209.62,185.49c-9.03,6.27-18.09,12.51-27.1,18.8c-2.14,1.5-2.44,3.31-0.95,4.75
			c1.14,1.12,2.4,1.28,3.74,0.34c1.93-1.34,3.87-2.67,6.05-4.18c1.26,4.03,2.46,7.83,3.65,11.64c0.59,1.88,1.22,3.76,1.65,5.68
			c0.13,0.58-0.13,1.57-0.57,1.91c-12.05,9.22-25.48,15.29-40.64,16.96c-5.93,0.66-11.95,0.62-17.93,0.81
			c-0.6,0.02-1.6-0.49-1.76-0.97c-1.82-5.67-3.52-11.39-5.32-17.34c3.5,0,6.7-0.06,9.89,0.01c7.05,0.15,14.09,0.44,21.14,0.48
			c1.47,0.01,3.08-0.58,4.38-1.32c2.11-1.19,4.07-2.68,6.02-4.13c1.86-1.37,2.14-2.82,0.98-4.37c-0.96-1.27-2.14-1.75-3.59-0.83
			c-1.5,0.95-3.08,1.83-4.42,2.97c-1.67,1.41-3.44,1.9-5.61,1.85c-18.44-0.43-36.89-0.78-55.33-1.16c-0.64-0.01-1.29-0.09-2.04-0.39
			c3.3-2.21,5.97-5.31,10.21-6.02c14.6-2.45,29.18-4.99,43.76-7.5c3.03-0.52,4.2-2.21,3.06-4.35c-0.78-1.48-2.06-1.68-3.54-1.41
			c-10.49,1.88-20.97,3.76-31.47,5.62c-0.73,0.13-1.5,0.11-2.24,0.16c-0.05-0.18-0.11-0.36-0.16-0.54
			c7.07-4.91,14.15-9.83,21.23-14.74c1.73-1.2,3.64-2.18,5.21-3.57c2.31-2.04,4.9-2.49,7.84-2.4c18.37,0.54,36.74,1,55.11,1.49
			c0.13,0,0.26,0.05,0.84,0.16C210.86,184.56,210.26,185.05,209.62,185.49z"/>
	</g>
</g>
<g id="GUÃA_TX" class="st6">
</g>
</svg>
