<?xml version="1.0" encoding="utf-8"?>
<!-- Generator: Adobe Illustrator 27.0.1, SVG Export Plug-In . SVG Version: 6.00 Build 0)  -->
<svg version="1.1" id="Capa_1" xmlns="http://www.w3.org/2000/svg" xmlns:xlink="http://www.w3.org/1999/xlink" x="0px" y="0px"
	 viewBox="0 0 480 480" style="enable-background:new 0 0 480 480;" xml:space="preserve">
<style type="text/css">
	.st0{fill:#FF2B00;}
	.st1{fill:#FFFFFF;}
</style>
<rect x="-14" y="-12.13" class="st0" width="507" height="508"/>
<g>
	<path class="st1" d="M57,387.81c0-100.35,0-200.69,0-301.04c0.3-1.09,0.61-2.17,0.9-3.27c2.49-9.58,7.82-17.15,16.54-21.88
		c3.85-2.09,8.26-3.13,12.42-4.65c82.17,0,164.33,0,246.5,0c6.55,3.11,8.75,8.32,8.48,15.42c-0.38,10.28-0.1,20.6-0.1,30.9
		c0,1.45,0,2.9,0,5.12c1.67-1.59,2.69-2.51,3.65-3.47c13.78-13.77,27.52-27.58,41.39-41.25c2.57-2.53,5.7-4.5,8.57-6.73
		c1.79,0,3.57,0,5.36,0c2.02,1.28,4.34,2.26,6.01,3.89c10.56,10.35,21.03,20.79,31.42,31.3c5.46,5.52,5.35,11.89-0.13,17.52
		c-2.37,2.43-4.9,4.69-7.66,7.31c9.08,7.88,16.51,16.14,18.59,27.85c0,3.05,0,6.11,0,9.16c-2.44,5.51-3.76,12.03-7.55,16.36
		c-9.56,10.89-20.01,21.04-30.56,31.02c-5.99,5.67-15.87,2.44-18.16-5.41c-1.38-4.71,0.07-8.7,3.55-12.14
		c8.7-8.6,17.36-17.23,25.97-25.93c4.48-4.53,5.16-10.63,1.41-15.19c-2.72-3.3-6.02-6.13-9.19-9.3c-1.06,1-1.99,1.83-2.87,2.71
		c-22.38,22.31-44.71,44.66-67.16,66.91c-2,1.98-2.7,3.93-2.7,6.67c0.08,64.66,0.08,129.34,0.09,194c0,9.67-4.26,13.87-14.02,13.87
		c-39.67,0-79.33,0-119,0c-1.49,0-2.96,0-4.76,0c0,6.82,0.1,13.17-0.04,19.5c-0.09,4.43-2.29,7.76-6.26,9.77
		c-3.97,2.02-7.9,1.69-11.58-0.78c-1.37-0.92-2.6-2.04-3.88-3.11c-5.63-4.71-11.24-9.43-16.88-14.17c-1.32,1.08-2.31,1.88-3.28,2.69
		c-5.47,4.58-10.9,9.21-16.41,13.74c-3.77,3.1-8.01,3.9-12.49,1.75c-4.43-2.14-6.58-5.84-6.56-10.76c0.01-2.17,0-4.33,0-6.49
		c0-4.01,0-8.02,0-12.17c-12.36,0-24.09,0.13-35.83-0.04c-14.61-0.21-27.51-9.79-32.05-23.55C58.07,391.98,57.58,389.88,57,387.81z
		 M318.57,229.18c-1.3,1.19-2.24,1.99-3.1,2.85c-5.51,5.49-10.98,11.01-16.51,16.47c-10.85,10.7-23.48,13.57-37.95,8.65
		c-1.08-0.37-2.96,0.05-3.83,0.83c-3.32,2.96-6.34,6.27-9.56,9.36c-5.07,4.88-12.21,4.97-16.76,0.31
		c-4.48-4.57-4.31-11.46,0.47-16.44c3.09-3.21,6.41-6.22,9.39-9.53c0.79-0.88,1.27-2.76,0.9-3.84c-5.08-14.78-1.9-27.48,9.12-38.44
		c21.87-21.76,43.66-43.58,65.54-65.32c1.74-1.73,2.59-3.43,2.57-5.95c-0.13-14.77-0.05-29.54-0.07-44.31
		c0-1.23-0.11-2.45-0.17-3.62c-64.16,0-127.99,0-191.76,0c0,89.63,0,178.97,0,268.38c64.04,0,127.87,0,191.73,0
		C318.57,308.79,318.57,269.28,318.57,229.18z M103.39,348.45c0-89.5,0-178.9,0-268.55c-3.31,0-6.35,0-9.4,0
		c-9.77,0.01-14.02,4.2-14.02,13.87c0,84.14,0,168.28,0,252.42c0,1.36,0,2.72,0,3.63C87.92,349.36,95.51,348.91,103.39,348.45z
		 M318.69,372.07c-38.4,0-76.45,0-114.44,0c0,7.63,0,14.96,0,22.31c38.27,0,76.32,0,114.44,0
		C318.69,386.84,318.69,379.61,318.69,372.07z M354.25,161.28c-5.67-5.63-11.01-10.95-16.42-16.32c0.05-0.05-0.33,0.28-0.69,0.64
		c-23.54,23.48-47.07,46.97-70.6,70.47c-0.81,0.81-1.61,1.65-2.25,2.59c-4.64,6.81-1,15.97,7.06,17.65
		c4.68,0.98,8.38-0.94,11.65-4.22c20.16-20.19,40.36-40.35,60.58-60.48C347.29,167.91,351.08,164.34,354.25,161.28z M398.17,85.3
		c-14.26,14.2-28.49,28.37-42.38,42.21c5.24,5.2,10.59,10.51,15.39,15.27c13.97-13.92,28.26-28.16,42.28-42.14
		C408.56,95.72,403.37,90.51,398.17,85.3z M149.87,371.92c0,13.31,0,26.29,0,39.53c5.33-3.18,8.65-9.04,15.37-9.12
		c6.86-0.08,10.19,6.01,15.59,9.1c0-13.36,0-26.37,0-39.52C170.45,371.92,160.3,371.92,149.87,371.92z M126.45,371.77
		c-11.85,0-23.31-0.05-34.79,0.02c-6.5,0.04-11.62,5.06-11.69,11.2c-0.08,6.42,4.92,11.56,11.62,11.67
		c7.27,0.12,14.54,0.03,21.81,0.04c4.3,0,8.59,0,13.05,0C126.45,386.92,126.45,379.59,126.45,371.77z"/>
	<path class="st1" d="M222.23,113.5c20.4,0,40.8-0.04,61.2,0.03c6.27,0.02,11.09,4.49,11.61,10.45c0.5,5.71-3.5,10.96-9.35,12.19
		c-1.11,0.23-2.28,0.24-3.42,0.24c-39.91,0.01-79.82,0.02-119.73,0c-7.75,0-12.94-4.66-12.93-11.49c0-6.87,5.13-11.41,12.95-11.41
		C182.44,113.49,202.34,113.5,222.23,113.5z"/>
	<path class="st1" d="M178.16,182.25c-5.48,0-10.95,0.06-16.42-0.02c-7.08-0.1-12.14-4.95-12.13-11.51
		c0.02-6.6,5.05-11.35,12.19-11.38c11.08-0.04,22.16-0.05,33.24,0.01c6.85,0.04,11.89,4.85,11.98,11.25
		c0.1,6.5-5.04,11.52-12.04,11.63C189.36,182.32,183.76,182.25,178.16,182.25z"/>
</g>
</svg>
