<?xml version="1.0" encoding="utf-8"?>
<!-- Generator: Adobe Illustrator 27.0.1, SVG Export Plug-In . SVG Version: 6.00 Build 0)  -->
<svg version="1.1" id="Capa_1" xmlns="http://www.w3.org/2000/svg" xmlns:xlink="http://www.w3.org/1999/xlink" x="0px" y="0px"
	 viewBox="0 0 480 480" style="enable-background:new 0 0 480 480;" xml:space="preserve">
<style type="text/css">
	.st0{fill:#FF2B00;}
	.st1{fill:#FFFFFF;}
</style>
<rect x="-57" y="-18.13" class="st0" width="551" height="503"/>
<g>
	<path class="st1" d="M300.81,58.26c0-6.79-0.05-12.96,0.02-19.12c0.06-5.27,2.51-7.8,7.75-7.8c26.3-0.04,52.6-0.04,78.89,0
		c5.28,0.01,7.77,2.51,7.83,7.73c0.08,6.17,0.02,12.35,0.02,19.2c5.39,0,10.66,0,15.94,0c9.57,0,11.07,1.47,11.07,10.85
		c0,75.36,0,150.72,0,226.08c0,1.67,0,3.34,0,5.6c2.27,0,4.32-0.08,6.36,0.02c4.47,0.2,6.9,2.68,7.12,7.17
		c0.05,1.12,0.02,2.24,0.02,3.37c0,39.58,0,79.15,0,118.73c0,1.66,0,3.31,0,5.28c4.49,0,8.66,0,13.17,0c0,4.55,0,8.82,0,13.36
		c-139.18,0-278.46,0-417.98,0c0-4.19,0-8.35,0-12.97c4.14,0,8.42,0,13.25,0c0-2.08,0-3.71,0-5.33c0-80.27,0-160.54,0-240.82
		c0-8.28,1.8-10.06,10.16-10.06c47.39,0,94.79,0,142.18,0c7.73,0,9.68,1.96,9.68,9.71c0,39.86,0,79.71,0,119.56
		c0,1.66,0,3.31,0,5.21c4.48,0,8.65,0,13.5,0c0-1.49,0-3.1,0-4.71c0-39.72,0-79.43,0-119.14c0-9.09,1.57-10.64,10.86-10.64
		c14.19,0,28.37,0,43.15,0c0-1.85,0-3.47,0-5.09c0-35.51,0-71.01,0-106.52c0-7.72,1.95-9.65,9.73-9.65
		C289.13,58.25,294.73,58.26,300.81,58.26z M58.07,193.15c0,80.99,0,161.56,0,242.02c24.81,0,49.32,0,73.96,0c0-2.02,0-3.7,0-5.38
		c0-35.63-0.01-71.26,0.01-106.89c0-6.35,2.28-8.62,8.62-8.63c15.75-0.03,31.49-0.01,47.23-0.01c1.51,0,3.01,0,4.65,0
		c0-40.61,0-80.77,0-121.11C147.64,193.15,102.98,193.15,58.07,193.15z M422.04,435.32c0-40.49,0-80.66,0-120.74
		c-29.3,0-58.31,0-87.26,0c0,40.41,0,80.47,0,120.74C363.91,435.32,392.81,435.32,422.04,435.32z M253.37,328.02
		c-36.11,0-71.86,0-107.49,0c0,27,0,53.7,0,80.32c35.99,0,71.65,0,107.49,0C253.37,381.51,253.37,354.91,253.37,328.02z
		 M287.51,84.9c40.58,0,80.85,0,121.11,0c0-4.46,0-8.61,0-13.18c-6.21,0-12.22,0.03-18.22-0.01c-6.27-0.03-8.55-2.35-8.57-8.7
		c-0.03-5.98-0.01-11.96-0.01-17.94c-22.78,0-45.04,0-67.52,0c0,6.18,0.02,12.06-0.01,17.94c-0.03,6.35-2.31,8.66-8.58,8.69
		c-6.01,0.03-12.02,0.01-18.22,0.01C287.51,76.3,287.51,80.45,287.51,84.9z M233.48,246.58c18.1,0,35.85,0,53.49,0
		c0-18.02,0-35.73,0-53.36c-18,0-35.65,0-53.49,0C233.48,211.06,233.48,228.67,233.48,246.58z M354.62,193.28
		c-18.06,0-35.81,0-53.49,0c0,18.01,0,35.72,0,53.39c17.98,0,35.64,0,53.49,0C354.62,228.84,354.62,211.23,354.62,193.28z
		 M267.35,381.81c0,18.06,0,35.78,0,53.37c18.06,0,35.81,0,53.48,0c0-17.95,0-35.58,0-53.37
		C302.96,381.81,285.3,381.81,267.35,381.81z M381.54,300.57c0-67.43,0-134.53,0-201.56c-4.55,0-8.82,0-13.01,0
		c0,67.34,0,134.35,0,201.56C372.9,300.57,377.06,300.57,381.54,300.57z M408.67,99.01c-4.69,0-8.95,0-13.14,0
		c0,67.34,0,134.35,0,201.51c4.47,0,8.74,0,13.14,0C408.67,233.25,408.67,166.24,408.67,99.01z M267.05,340.94
		c6.96,0,13.46,0,19.97,0c0-17.97,0-35.68,0-53.32c-18.03,0-35.78,0-53.52,0c0,8.95,0,17.59,0,26.64c8.58,0,16.96-0.03,25.35,0.01
		c5.76,0.03,8.15,2.43,8.2,8.21C267.09,328.49,267.05,334.5,267.05,340.94z M233.49,273.62c40.64,0,80.79,0,121.06,0
		c0-4.46,0-8.72,0-12.97c-40.51,0-80.76,0-121.06,0C233.49,265.09,233.49,269.24,233.49,273.62z M354.65,287.62
		c-18.15,0-35.89,0-53.5,0c0,18.01,0,35.72,0,53.35c6.74,0,13.15,0,19.92,0c0-10.56-0.01-20.89,0.01-31.22
		c0.01-6.82,2.19-8.95,9.13-8.96c8.1-0.02,16.19,0,24.45,0C354.65,296.15,354.65,292,354.65,287.62z M145.72,435.21
		c36.13,0,71.87,0,107.63,0c0-4.46,0-8.61,0-12.95c-35.95,0-71.7,0-107.63,0C145.72,426.64,145.72,430.79,145.72,435.21z
		 M287.5,179.28c4.65,0,8.82,0,13.05,0c0-26.93,0-53.62,0-80.29c-4.53,0-8.79,0-13.05,0C287.5,125.9,287.5,152.48,287.5,179.28z
		 M327.52,179.33c0-27.05,0-53.74,0-80.31c-4.57,0-8.83,0-12.98,0c0,26.93,0,53.53,0,80.31
		C318.91,179.33,323.07,179.33,327.52,179.33z M354.52,179.33c0-27.05,0-53.74,0-80.31c-4.57,0-8.83,0-12.98,0
		c0,26.93,0,53.53,0,80.31C345.92,179.33,350.08,179.33,354.52,179.33z M267.25,367.85c18.08,0,35.82,0,53.48,0
		c0-4.55,0-8.8,0-12.97c-17.99,0-35.63,0-53.48,0C267.25,359.25,267.25,363.4,267.25,367.85z"/>
	<path class="st1" d="M125.34,51.53c13.3,0.03,22.97,12.63,19.32,25.45c-0.76,2.65-0.47,4.27,1.56,6.16
		c5.12,4.8,10.06,9.81,14.93,14.87c1.72,1.79,3.13,2.26,5.78,1.7c3.58-0.75,7.53-0.71,11.14-0.03c2.55,0.48,4.01,0.25,5.82-1.57
		c11.65-11.79,23.38-23.51,35.2-35.13c1.94-1.91,2.42-3.46,1.61-6.15c-2.54-8.43,0.87-17.25,8.14-22.1
		c7.27-4.85,16.77-4.5,23.64,0.89c6.91,5.41,9.56,14.46,6.61,22.67c-2.91,8.14-10.84,13.59-19.51,13.4
		c-0.71-0.02-1.53,0.15-2.08-0.17c-5.48-3.02-8.55,0.45-11.99,3.97c-10.52,10.74-21.19,21.32-31.9,31.86
		c-1.88,1.85-2.57,3.36-1.73,6.12c2.55,8.34-0.62,16.85-7.66,21.9c-6.89,4.93-16.31,4.93-23.32-0.01
		c-6.98-4.92-10.21-13.59-7.66-21.9c0.85-2.76,0.18-4.3-1.73-6.12c-5.28-5.05-10.3-10.36-15.63-15.36c-0.94-0.88-2.82-1-4.27-1.06
		c-4.27-0.15-8.55-0.17-12.83-0.07c-1.33,0.03-3.08,0.16-3.92,0.98c-7.87,7.62-15.66,15.33-23.24,23.24
		c-0.99,1.03-1.22,3.48-0.83,5.02c2.69,10.56-2.85,21.25-13.03,24.66c-10.05,3.37-21.01-1.6-25.12-11.37
		c-4.12-9.8,0-20.97,9.55-25.79c4.72-2.38,9.72-3.09,14.7-1.25c2.62,0.97,4.05,0.21,5.79-1.58c7.07-7.23,14.23-14.38,21.48-21.42
		c2.01-1.95,2.61-3.57,1.76-6.5C102.22,64.07,112.02,51.5,125.34,51.53z M240.08,44.81c-3.64-0.01-6.67,2.94-6.75,6.57
		c-0.09,3.78,3.1,6.95,6.9,6.84c3.63-0.1,6.58-3.17,6.54-6.78C246.72,47.81,243.71,44.82,240.08,44.81z M125.15,78.44
		c3.62,0.07,6.72-2.85,6.85-6.47c0.13-3.61-2.76-6.76-6.37-6.94c-3.78-0.19-7.04,2.89-7.06,6.68
		C118.54,75.32,121.51,78.37,125.15,78.44z M179.25,118.89c0-3.62-2.97-6.64-6.61-6.71c-3.78-0.08-6.95,3.12-6.84,6.91
		c0.11,3.61,3.2,6.57,6.82,6.51C176.25,125.54,179.25,122.51,179.25,118.89z M71.29,118.92c-3.64,0-6.66,2.96-6.73,6.59
		c-0.08,3.78,3.13,6.94,6.91,6.82c3.63-0.11,6.57-3.18,6.52-6.8C77.94,121.9,74.91,118.92,71.29,118.92z"/>
	<path class="st1" d="M172.54,280.89c0,4.07,0.06,8.14-0.02,12.21c-0.1,5.01-2.56,7.59-7.49,7.65c-8.44,0.1-16.87,0.08-25.31,0.01
		c-5.03-0.04-7.6-2.54-7.66-7.47c-0.09-8.41-0.08-16.84-0.01-25.26c0.04-5.02,2.54-7.59,7.47-7.64c8.44-0.09,16.87-0.08,25.31-0.01
		c5.18,0.04,7.6,2.58,7.68,7.88C172.58,272.47,172.54,276.68,172.54,280.89z M158.82,274.08c-4.46,0-8.72,0-13.01,0
		c0,4.49,0,8.74,0,12.9c4.54,0,8.8,0,13.01,0C158.82,282.52,158.82,278.37,158.82,274.08z"/>
	<path class="st1" d="M78.03,280.52c0-4.21-0.07-8.42,0.02-12.63c0.1-4.8,2.53-7.43,7.19-7.49c8.72-0.11,17.44-0.11,26.16,0
		c4.46,0.06,7.04,2.66,7.1,7.15c0.11,8.7,0.11,17.4-0.01,26.1c-0.06,4.46-2.68,7.03-7.18,7.08c-8.72,0.11-17.44,0.11-26.16,0
		c-4.47-0.06-6.98-2.67-7.1-7.16C77.94,289.22,78.04,284.87,78.03,280.52z M91.84,274.01c0,4.63,0,8.88,0,13.1
		c4.47,0,8.62,0,12.95,0c0-4.45,0-8.68,0-13.1C100.4,274.01,96.24,274.01,91.84,274.01z"/>
	<path class="st1" d="M98.57,354.67c-4.22,0-8.44,0.05-12.65-0.02c-5.29-0.08-7.82-2.5-7.87-7.69c-0.08-8.27-0.07-16.56,0-24.83
		c0.04-5.28,2.49-7.8,7.7-7.86c8.29-0.08,16.59-0.07,24.89,0c5.29,0.04,7.83,2.49,7.88,7.68c0.08,8.27,0.07,16.56,0,24.83
		c-0.04,5.43-2.55,7.81-8.13,7.87C106.44,354.71,102.51,354.67,98.57,354.67z M91.67,340.86c4.71,0,8.96,0,13.12,0
		c0-4.48,0-8.63,0-12.88c-4.48,0-8.73,0-13.12,0C91.67,332.39,91.67,336.53,91.67,340.86z"/>
	<path class="st1" d="M172.54,226.95c0,4.07,0.06,8.14-0.02,12.21c-0.1,5.03-2.54,7.64-7.45,7.7c-8.58,0.1-17.16,0.1-25.73-0.01
		c-4.7-0.06-7.23-2.65-7.28-7.41c-0.09-8.56-0.1-17.12,0.01-25.68c0.06-4.7,2.64-7.22,7.41-7.26c8.58-0.09,17.16-0.1,25.73,0.01
		c4.7,0.06,7.18,2.64,7.3,7.4C172.61,218.24,172.54,222.6,172.54,226.95z M158.74,233.22c0-4.57,0-8.81,0-12.95
		c-4.55,0-8.81,0-12.99,0c0,4.47,0,8.62,0,12.95C150.12,233.22,154.27,233.22,158.74,233.22z"/>
	<path class="st1" d="M78.04,226.26c0-4.21-0.1-8.42,0.03-12.63c0.13-4.49,2.64-7.06,7.13-7.12c8.72-0.11,17.44-0.11,26.16,0
		c4.49,0.06,7.08,2.63,7.14,7.11c0.11,8.7,0.11,17.4,0,26.1c-0.06,4.47-2.65,7.06-7.13,7.12c-8.72,0.11-17.44,0.11-26.16,0
		c-4.49-0.06-7.02-2.64-7.14-7.12C77.94,235.24,78.04,230.74,78.04,226.26z M104.74,233.22c0-4.57,0-8.81,0-12.95
		c-4.55,0-8.81,0-12.99,0c0,4.47,0,8.62,0,12.95C96.11,233.22,100.26,233.22,104.74,233.22z"/>
	<path class="st1" d="M98.08,408.56c-4.22,0-8.44,0.08-12.65-0.02c-4.74-0.11-7.31-2.62-7.37-7.33c-0.1-8.56-0.1-17.12,0-25.68
		c0.05-4.73,2.6-7.3,7.33-7.35c8.58-0.1,17.16-0.1,25.73,0c4.73,0.05,7.32,2.6,7.37,7.32c0.1,8.56,0.1,17.12,0,25.68
		c-0.05,4.73-2.62,7.25-7.34,7.36C106.8,408.64,102.44,408.56,98.08,408.56z M104.87,381.94c-4.68,0-8.94,0-13.13,0
		c0,4.47,0,8.61,0,12.9c4.46,0,8.72,0,13.13,0C104.87,390.45,104.87,386.3,104.87,381.94z"/>
	<path class="st1" d="M348.22,354.35c0-4.33,0-8.48,0-12.89c20.15,0,40.14,0,60.37,0c0,4.26,0,8.41,0,12.89
		C388.67,354.35,368.68,354.35,348.22,354.35z"/>
	<path class="st1" d="M408.63,368.43c0,4.46,0,8.61,0,12.97c-20.09,0-39.99,0-60.23,0c0-4.17,0-8.42,0-12.97
		C368.31,368.43,388.3,368.43,408.63,368.43z"/>
	<path class="st1" d="M408.63,395.38c0,4.45,0,8.6,0,12.97c-20.09,0-39.99,0-60.23,0c0-4.16,0-8.41,0-12.97
		C368.3,395.38,388.29,395.38,408.63,395.38z"/>
	<path class="st1" d="M199.56,341.2c10.69,0,21.38-0.03,32.06,0.01c6.04,0.02,8.4,2.37,8.41,8.43c0.03,12.35,0.03,24.7,0,37.05
		c-0.02,6.03-2.39,8.39-8.46,8.4c-21.38,0.03-42.75,0.03-64.13,0c-6.04-0.01-8.39-2.38-8.41-8.44c-0.03-12.35-0.03-24.7,0-37.05
		c0.02-6.03,2.37-8.37,8.45-8.39C178.19,341.17,188.87,341.2,199.56,341.2z M172.72,381.32c6.85,0,13.36,0,19.73,0
		c0-9.04,0-17.77,0-26.42c-6.74,0-13.15,0-19.73,0C172.72,363.76,172.72,372.39,172.72,381.32z M206.47,381.32
		c6.85,0,13.36,0,19.73,0c0-9.04,0-17.77,0-26.42c-6.74,0-13.15,0-19.73,0C206.47,363.76,206.47,372.39,206.47,381.32z"/>
</g>
</svg>
