<?xml version="1.0" encoding="utf-8"?>
<!-- Generator: Adobe Illustrator 27.0.1, SVG Export Plug-In . SVG Version: 6.00 Build 0)  -->
<svg version="1.1" id="Capa_1" xmlns="http://www.w3.org/2000/svg" xmlns:xlink="http://www.w3.org/1999/xlink" x="0px" y="0px"
	 viewBox="0 0 480 480" style="enable-background:new 0 0 480 480;" xml:space="preserve">
<style type="text/css">
	.st0{fill:#2D00FF;}
	.st1{fill:#FFFFFF;}
</style>
<rect x="-31" y="-12.13" class="st0" width="530" height="508"/>
<g>
	<path class="st1" d="M243.31,28.6c10.82,3.57,21.62,7.23,32.47,10.69c30.59,9.75,61.2,19.42,91.8,29.13
		c1.18,0.37,2.35,0.8,3.49,1.29c5.64,2.45,8.66,7.54,8.07,13.53c-0.56,5.65-4.54,10.34-10.36,11.43
		c-11.25,2.1-22.53,4.04-33.84,5.78c-3.03,0.47-4.22,1.4-4.11,4.64c0.26,6.88,0.45,13.81-0.09,20.65c-0.26,3.35-2.25,6.55-3.44,9.82
		c-0.57,1.6-1.53,3.22-1.54,4.82c-0.11,14.88-0.19,29.77,0,44.64c0.11,9.01-3.29,15.39-12.05,18.59c-0.97,0.35-2.02,1.83-2.18,2.91
		c-2.72,19.03-11.7,34.45-26.48,46.66c-2.99,2.46-2.48,8.83,0.8,10.98c16.73,10.94,33.36,22.04,50.32,32.62
		c3.96,2.47,9,3.28,13.61,4.64c10.96,3.26,22.15,5.93,31.57,12.92c17.62,13.09,26.34,30.71,26.53,52.51
		c0.16,19.15,0.13,38.31,0,57.46c-0.11,16.6-11.34,27.6-28.01,27.61c-93.19,0.02-186.39,0.02-279.58,0
		c-16.93,0-28.02-11.01-28.19-27.87c-0.04-3.3-0.09-6.62,0.03-9.92c0.16-4.57,2.54-7.1,6.39-7.02c3.74,0.08,5.87,2.46,5.98,6.91
		c0.1,3.72-0.08,7.45,0.06,11.16c0.33,8.75,6.05,14.27,14.86,14.33c8.67,0.05,17.32,0.01,26.42,0.01c0-7.8,0-15.2,0-22.6
		c0-1.52-0.1-3.05,0.1-4.54c0.46-3.51,3.24-5.93,6.43-5.78c3.27,0.15,5.79,2.65,5.84,6.29c0.11,8.67,0.04,17.32,0.04,26.32
		c67.85,0,135.4,0,203.51,0c0-6.97,0-13.95,0-20.94c0-1.65-0.04-3.31,0.03-4.96c0.17-3.95,2.47-6.55,5.87-6.7
		c3.49-0.16,6.38,2.55,6.47,6.6c0.17,7.16,0.06,14.33,0.06,21.49c0,1.48,0,2.95,0,4.7c10.07,0,19.72,0.38,29.31-0.13
		c6.66-0.35,11.84-6.18,11.88-13.25c0.14-21.62,0.59-43.29-0.42-64.87c-0.96-20.55-15.63-37.74-35.4-43.89
		c-6.97-2.17-13.98-4.22-21.06-6.03c-1.62-0.42-3.86-0.11-5.3,0.72c-28.75,16.92-57.49,33.86-86.07,51.07
		c-4.98,3-8.84,3.23-13.97,0.14c-28.31-17.11-56.87-33.83-85.26-50.81c-2.62-1.56-4.87-1.87-7.72-0.95
		c-6.02,1.97-12.16,3.58-18.21,5.45c-23.29,7.23-37.18,25.89-37.43,50.22c-0.05,5.64,0.07,11.3-0.08,16.95
		c-0.11,3.78-2.43,6.15-5.77,6.32c-3.33,0.17-6.36-2.08-6.41-5.66c-0.2-13.33-1.33-26.77,3.42-39.68
		c7.52-20.41,21.89-33.61,42.61-40.03c4.87-1.51,9.75-3.01,14.69-4.25c6.09-1.52,11.6-4.01,16.84-7.53
		c14.2-9.53,28.59-18.74,42.92-28.08c5.25-3.42,5.6-8.92,0.9-12.97c-13.81-11.88-22.31-26.7-25.1-44.78
		c-0.22-1.42-1.44-3.36-2.68-3.84c-7.94-3.12-11.61-8.86-11.59-17.23c0.03-14.88,0.1-29.77-0.12-44.64
		c-0.04-2.35-1.53-4.67-2.29-7.02c-0.95-2.95-2.47-5.89-2.64-8.9c-0.39-7.15-0.04-14.33-0.22-21.48c-0.03-1.14-1.1-3.08-1.97-3.25
		c-9.33-1.78-18.72-3.28-28.46-4.92c0,10.03,0,19.72,0,28.31c3.82,2.64,7.54,4.61,10.42,7.43c1.55,1.52,2.45,4.53,2.33,6.8
		c-1.04,19.94,4.4,39.04,7.2,58.48c0.43,2.99,1.15,5.97,1.27,8.98c0.32,7.73-5.26,14.04-12.99,14.26
		c-9.8,0.28-19.61,0.29-29.41,0.01c-8.66-0.25-14.43-7.77-12.98-16.6c2.46-14.94,5.32-29.81,7.53-44.79
		c0.87-5.94,0.55-12.08,0.64-18.13c0.11-8.81,4.06-13.48,13.21-14.96c0-10.78,0.03-21.63-0.06-32.49c-0.01-0.8-0.82-1.65-1.4-2.38
		c-6.75-8.43-3.81-18.66,6.53-21.97c27.55-8.83,55.14-17.55,82.71-26.32c13.79-4.38,27.58-8.77,41.36-13.18
		c0.62-0.19,1.17-0.61,1.76-0.92C238.9,28.6,241.1,28.6,243.31,28.6z M193.77,139.58c0,4.2,0.11,8.42-0.02,12.63
		c-0.33,10.95-8.59,19.1-19.6,19.42c-2.31,0.06-4.63,0.01-7.31,0.01c0,5.74-0.28,11.09,0.19,16.38c0.12,1.35,2.45,3.18,4.07,3.6
		c6.34,1.64,8.74,4.03,9.33,10.32c2.91,31.09,28.69,54.77,59.64,54.73c30.78-0.04,56.48-23.54,59.5-54.45
		c0.65-6.7,2.85-8.9,9.46-10.63c1.6-0.42,3.86-2.31,3.98-3.7c0.47-5.26,0.19-10.6,0.19-16.24c-2.25,0-4.02,0.01-5.79,0
		c-12.98-0.1-21.09-8.2-21.18-21.2c-0.03-3.55,0-7.09,0-10.87C255.32,139.58,224.88,139.58,193.77,139.58z M161.74,126.65
		c52.42,0,104.39,0,156.51,0c0-8.5,0-16.7,0-25.11c-3.6-0.47-7.02-0.8-10.4-1.39c-4.26-0.75-6.3-3.36-5.81-7.09
		c0.44-3.46,3.07-5.36,7.21-5.12c1.78,0.11,3.57,0.42,5.35,0.53c4.36,0.26,8.82,1.09,13.09,0.53c10.65-1.38,21.24-3.37,31.84-5.18
		c2.39-0.41,4.76-1.02,7.14-1.55c-1.13-1.33-2.1-1.78-3.12-2.1c-40.31-12.8-80.61-25.61-120.95-38.28c-1.78-0.57-4.09-0.37-5.92,0.2
		c-38.23,12.03-76.43,24.17-114.63,36.3c-2.94,0.94-5.84,1.99-9.78,3.33c1.96,0.72,2.78,1.17,3.65,1.32
		c8.69,1.48,17.39,2.96,26.1,4.35c5.02,0.8,10.15,2.46,15.08,2.02c14-1.22,27.94-3.27,41.89-5.08c21.9-2.85,43.78-5.97,65.9-2
		c4.74,0.85,9.58,1.13,14.36,1.8c4.07,0.57,6.56,3.52,6.11,6.96c-0.44,3.41-3.18,5.49-7.13,5.36c-1.38-0.04-2.74-0.32-4.12-0.42
		c-13.32-1.04-26.63-2.84-39.96-2.86c-10.69-0.02-21.39,2.04-32.07,3.3c-13.4,1.6-26.78,3.33-40.35,5.03
		C161.74,109.98,161.74,118.17,161.74,126.65z M209.29,262.25c-0.62,11.61,0.74,22.45,3.6,33.1c0.24,0.9,1.87,1.84,2.99,2.04
		c15.47,2.84,30.97,2.6,46.53,0.52c3.7-0.49,5.19-2.2,5.64-5.6c0.36-2.72,1.23-5.39,1.49-8.11c0.68-7.13,1.16-14.27,1.78-22.26
		C249.96,271.27,229.76,271.16,209.29,262.25z M261.37,339.99c20.42-12.11,40.85-24.23,61.81-36.66
		c-13.44-8.77-26.53-17.3-40.22-26.24C280.68,300.05,273.38,320.66,261.37,339.99z M197.06,277.12
		c-13.64,8.9-26.74,17.43-40.21,26.22c20.95,12.42,41.38,24.53,61.8,36.63C206.8,320.81,199.37,300.37,197.06,277.12z M96.5,207.18
		c0.9,0.42,1.27,0.73,1.63,0.73c8.96,0.05,17.91,0.06,26.86,0.11c2.52,0.02,2.55-1.55,2.25-3.34c-2.25-13.27-4.48-26.54-6.87-39.8
		c-0.17-0.95-1.59-2.32-2.49-2.38c-4.51-0.25-9.04-0.11-13.77-0.11C101.53,177.61,99,192.45,96.5,207.18z M262.87,311.3
		c-15.79,0-30.15,0-45.73,0c7.51,12.49,14.81,24.65,22.87,38.04C248.04,335.97,255.34,323.82,262.87,311.3z M166.87,159.21
		c2.82,0,5.15,0.17,7.46-0.04c3.67-0.33,6.46-2.28,6.8-6.02c0.41-4.44,0.1-8.96,0.1-13.54c-4.97,0-9.58,0-14.35,0
		C166.87,146.15,166.87,152.43,166.87,159.21z M313.05,139.57c-4.81,0-9.41,0-14.3,0c0,4.58-0.19,8.95,0.06,13.29
		c0.2,3.42,2.52,5.59,5.76,6.11c2.76,0.44,5.64,0.09,8.48,0.09C313.05,152.35,313.05,146.08,313.05,139.57z M105.18,149.75
		c4.78,0,9.12,0,13.51,0c0-3.86,0-7.46,0-10.93c-4.69,0-9.03,0-13.51,0C105.18,142.54,105.18,145.95,105.18,149.75z"/>
</g>
</svg>
