<?xml version="1.0" encoding="utf-8"?>
<!-- Generator: Adobe Illustrator 27.0.1, SVG Export Plug-In . SVG Version: 6.00 Build 0)  -->
<svg version="1.1" id="Capa_1" xmlns="http://www.w3.org/2000/svg" xmlns:xlink="http://www.w3.org/1999/xlink" x="0px" y="0px"
	 viewBox="0 0 480 480" style="enable-background:new 0 0 480 480;" xml:space="preserve">
<style type="text/css">
	.st0{fill:#2D00FF;}
	.st1{fill:#FFFFFF;}
</style>
<rect x="-5.86" y="-7.13" class="st0" width="496" height="497.14"/>
<g>
	<path class="st1" d="M123.82,48.84c8.57,3.37,12.11,9.74,11.23,18.76c-0.08,0.86,0.01,1.74,0.04,2.6c0.01,0.23,0.14,0.45,0.37,1.2
		c4.01,0,8.2-0.01,12.38,0c10.8,0.02,16.57,5.77,16.59,16.6c0.03,22.39,0.03,44.77,0,67.16c-0.02,10.63-5.69,16.34-16.36,16.45
		c-7.85,0.08-15.71,0.12-23.55-0.04c-5.27-0.1-8.35-4.77-5.49-8.41c1.16-1.48,3.73-2.52,5.69-2.6c7.59-0.29,15.2-0.1,22.8-0.14
		c4.89-0.02,5.68-0.8,5.69-5.61c0.02-11.91,0.01-23.84,0.01-35.82c-13.69,0-27.06,0-40.39,0c-1.24,8.43-2.46,10.44-6.17,10.37
		c-3.58-0.07-4.72-2.04-5.81-10.33c-13.34,0-26.74,0-40.43,0c-0.04,0.71-0.14,1.79-0.15,2.88c-0.02,11.07-0.02,22.13,0,33.2
		c0.01,4.31,0.93,5.28,5.26,5.31c9.6,0.06,19.19,0.02,28.78,0.02c1.12,0,2.25-0.05,3.36,0.06c3.16,0.3,5.05,1.99,5.26,5.22
		c0.21,3.11-1.74,5.29-5.11,5.77c-1.1,0.16-2.24,0.14-3.35,0.14c-9.1,0.01-18.2-0.25-27.29,0.08c-8.96,0.32-15.11-3.13-18.15-11.68
		c0-25.62,0-51.23,0-76.86c2.97-8.85,9.3-12.36,18.4-11.79c3.55,0.22,7.13,0.04,11.19,0.04c-1.09-10.37,0.58-18.99,11.54-22.57
		C101.39,48.84,112.61,48.84,123.82,48.84z M107,82.6c-13.83,0-27.64-0.02-41.47,0.01c-4.27,0.01-5.23,1.02-5.26,5.3
		c-0.02,4.97,0.06,9.95-0.03,14.92c-0.06,3.26,1.32,4.87,4.62,4.87c27.89-0.01,55.79-0.02,83.68,0.01c3.3,0,4.75-1.5,4.69-4.78
		c-0.09-4.97,0.01-9.94-0.02-14.92c-0.03-4.58-0.85-5.4-5.5-5.4C134.15,82.6,120.57,82.6,107,82.6z M123.81,71.21
		c0-2.6,0.03-4.94-0.01-7.28c-0.05-2.57-1.44-3.88-4-3.89c-8.72-0.02-17.43-0.01-26.15,0c-2.41,0-3.76,1.29-3.9,3.62
		c-0.14,2.45-0.03,4.91-0.03,7.55C101.17,71.21,112.22,71.21,123.81,71.21z"/>
	<path class="st1" d="M431.84,116.75c-0.72,3.14-1.35,6.29-2.17,9.4c-7.67,28.74-34.1,47.14-64.82,45.14
		c-27.74-1.81-51.86-24.75-55.46-52.95c-1.52-11.97,0.14-23.56,5.45-34.5c1.82-3.76,4.68-5.03,7.81-3.61
		c3.29,1.5,4.05,4.63,2.09,8.94c-5.34,11.71-6.13,23.75-2.33,35.98c7.35,23.69,31.24,38.54,55.54,34.71
		c24.71-3.89,42.8-25.09,42.69-50c-0.11-24.67-18.4-45.61-43.04-49.24c-12.75-1.87-24.47,0.91-35.22,7.94
		c-0.73,0.48-1.43,1.01-2.18,1.43c-2.89,1.6-5.9,1.05-7.63-1.37c-1.81-2.52-1.28-5.81,1.49-7.87c6.88-5.11,14.53-8.58,22.92-10.43
		c2.29-0.5,4.57-1,6.86-1.49c4.48,0,8.97,0,13.46,0c0.68,0.23,1.35,0.57,2.05,0.68c24.55,3.65,44.32,21.43,50.59,45.57
		c0.71,2.72,1.29,5.49,1.94,8.23C431.84,107.79,431.84,112.26,431.84,116.75z"/>
	<path class="st1" d="M431.84,368.95c-0.36,1.28-0.76,2.56-1.07,3.85c-1.82,7.71-5.65,14.26-11.25,19.83
		c-10.05,10.01-20.01,20.1-30.14,30.03c-11.26,11.05-26.86,11.05-38,0.02c-10.88-10.77-21.97-21.34-32.37-32.55
		c-18.74-20.19-10.52-52.98,15.37-62.05c11.74-4.11,23.02-2.58,33.68,3.88c1.08,0.65,3.18,0.88,4.13,0.26
		c24.21-15.68,55.44-0.74,59.1,26.08c0.05,0.33,0.35,0.63,0.53,0.94C431.84,362.49,431.84,365.72,431.84,368.95z M420.65,363.65
		c-0.53-10.66-5.34-19.19-15.58-23.92c-10.46-4.82-20.37-3.28-29.29,4.01c-4.8,3.93-6.08,3.97-10.87-0.06
		c-5.79-4.87-12.5-7.25-20.03-6.47c-10.96,1.14-19,6.75-22.88,17.11c-4.01,10.69-2,20.73,5.92,29
		c10.41,10.86,21.17,21.39,31.91,31.95c6.04,5.94,14.69,6.13,20.8,0.19c11.06-10.74,21.93-21.69,32.71-32.72
		C418.33,377.64,420.38,371.17,420.65,363.65z"/>
	<path class="st1" d="M263.83,244.21c4.89,0,9.49-0.04,14.07,0.01c20.11,0.22,35.35,14.77,35.95,34.8
		c0.39,13.05,0.16,26.11,0.1,39.17c-0.02,4.42-1.98,6.29-6.51,6.31c-17.69,0.06-35.39,0.06-53.07,0c-3.93-0.02-6.28-2.11-6.4-5.32
		c-0.13-3.33,2.32-5.7,6.35-5.79c5.95-0.12,11.91-0.03,18.29-0.03c0-5.3-0.02-10.24,0.01-15.18c0.02-4.64,2.1-7.18,5.74-7.1
		c3.49,0.09,5.43,2.56,5.46,7.01c0.02,4.95,0.01,9.89,0.01,15.04c6.41,0,12.44,0,18.96,0c0-4.01,0-7.83,0-11.64
		c0-6.96,0.09-13.93-0.02-20.89c-0.23-15.04-10.49-25.09-25.57-25.17c-3.99-0.02-7.98-0.16-11.95,0.1
		c-1.11,0.07-2.68,1.14-3.12,2.15c-4.17,9.49-11.3,14.92-21.68,14.9s-17.5-5.46-21.64-14.96c-0.44-1-2.05-2.05-3.16-2.09
		c-4.98-0.21-9.97-0.23-14.94,0.01c-11.05,0.53-21.49,9.72-22.11,20.67c-0.69,12.13-0.16,24.32-0.16,36.82c6.02,0,12.05,0,18.68,0
		c0-5.16-0.06-10.45,0.02-15.74c0.06-3.96,2.42-6.36,5.87-6.19c3.14,0.16,5.22,2.41,5.29,6.03c0.09,5.2,0.02,10.41,0.02,16.22
		c3.41,0,6.59-0.02,9.76,0.01c3.36,0.03,6.75-0.11,10.07,0.24c3.16,0.33,4.9,2.52,4.75,5.66c-0.14,2.95-1.9,4.78-4.92,5.17
		c-0.98,0.13-1.99,0.11-2.99,0.11c-16.69,0.01-33.39,0.02-50.09,0c-6.46-0.01-7.96-1.49-7.96-7.88
		c-0.02-11.69-0.06-23.38,0.01-35.07c0.11-22.37,15.18-37.3,37.62-37.34c4.09-0.01,8.18,0,12.51,0c0.53-5.03,1.12-9.13-3.85-12.85
		c-8.26-6.19-12.53-15.22-14.23-25.41c-2.45-0.37-4.82-0.49-7.05-1.12c-7.13-2.05-11.54-6.89-12.68-14.14
		c-1.16-7.42,1.45-13.79,8.04-17.47c3.42-1.9,3.86-4.04,3.81-7.31c-0.28-20.35,8.43-35.85,26.27-45.6
		c31.99-17.48,71.82,5.92,72.43,42.27c0.02,0.75,0.09,1.5,0.01,2.24c-0.4,3.9,0.29,6.62,4.44,8.86c6.36,3.41,8.94,11.61,7.13,18.53
		c-1.9,7.28-8,12.56-15.39,13.28c-1.23,0.12-2.47,0.14-3.74,0.21c-1.04,3.39-1.45,7.03-3.17,9.91c-3.29,5.48-6.54,11.41-11.25,15.48
		C263.32,234.98,263.09,238.86,263.83,244.21z M255.94,173.53c-11.67,7.8-12.19,8.12-28.33,8.01c-5.82-0.04-11.64-0.01-17.78-0.01
		c0,6.71-0.14,13.02,0.02,19.32c0.39,15.62,12.57,28.29,28.21,29.52c15.67,1.23,30.02-9.3,32.24-24.82
		c1.13-7.88,0.2-16.06,0.2-24.15c-2.27-0.86-4.93-1.57-7.3-2.84C260.71,177.21,258.51,175.34,255.94,173.53z M278.17,170.19
		c2.52-14.93-4.44-30.4-17.12-38.46c-13.07-8.3-29.63-8.03-42.24,0.69c-12.22,8.45-18.92,24.17-15.96,37.9
		c7.25,0,14.62-0.5,21.89,0.12c10.74,0.92,20.06-1.51,28.35-8.59c3.84-3.27,6.84-2.6,9.72,1.61
		C266.54,168.92,271.6,170.87,278.17,170.19z M252.17,241.11c-8.12,0-15.69,0-23.49,0c0,2.99-0.22,6.21,0.05,9.39
		c0.53,6.25,5.56,10.88,11.57,10.96c6.01,0.08,11.18-4.43,11.81-10.69C252.45,247.48,252.17,244.14,252.17,241.11z M198.4,181.77
		c-5.15-0.36-8.03,1.8-8.12,5.94c-0.1,4.28,2.83,6.67,8.12,6.48C198.4,190.05,198.4,185.91,198.4,181.77z M282.49,194.21
		c5.35,0.15,8.27-2.28,8.13-6.55c-0.14-4.17-3.03-6.31-8.13-5.84C282.49,185.85,282.49,189.88,282.49,194.21z"/>
	<path class="st1" d="M145.56,373.47c0,13.8,0.02,27.6-0.01,41.4c-0.02,10.06-5.95,16-15.99,16.02c-15.2,0.02-30.39,0.02-45.59,0
		c-10-0.02-16.08-6.02-16.09-16.01c-0.04-27.72-0.04-55.44,0-83.16c0.02-10.04,5.97-15.94,16.08-15.97c15.2-0.05,30.39-0.05,45.59,0
		c10.2,0.03,15.98,5.82,16,15.96C145.59,345.62,145.56,359.54,145.56,373.47z M134.35,373.52c0-13.91-0.06-27.83,0.04-41.74
		c0.02-3.53-1.43-4.91-4.91-4.88c-15.06,0.07-30.12,0.01-45.18,0.04c-4.36,0.01-5.2,0.88-5.21,5.32c-0.02,27.33-0.02,54.66,0,81.99
		c0,4.48,1,5.44,5.5,5.45c14.69,0.02,29.37,0.01,44.07,0c4.95,0,5.68-0.7,5.68-5.54C134.36,400.61,134.35,387.06,134.35,373.52z"/>
	<path class="st1" d="M376.85,143.95c-2.09,1.39-4.01,3.48-6.29,4.01c-3.31,0.76-5.07-1.9-5.95-4.79c-0.42,0.04-0.68-0.01-0.84,0.1
		c-4.13,2.62-7.14,2.53-9.22-0.29c-2.2-2.98-1.53-6.37,2.91-8.9c6.07-3.46,8.16-8.11,7.34-14.91c-0.59-4.91-0.14-9.93-0.17-14.9
		c0-0.21-0.18-0.41-0.41-0.91c-0.93,0.61-1.85,1.13-2.69,1.76c-5.59,4.15-11.16,8.35-16.76,12.49c-3.8,2.81-6.98,2.68-9.14-0.28
		c-2.01-2.76-1.18-5.94,2.33-8.59c5.16-3.89,10.36-7.75,15.55-11.61c0.6-0.45,1.15-0.99,1.79-1.34c6.94-3.78,11.07-8.85,9.55-17.49
		c-0.62-3.54,2.41-6.13,5.58-6.09c3.23,0.04,5.94,2.55,5.35,6.23c-1.28,8.03,2.29,12.77,8.78,16.84
		c6.41,4.01,12.25,8.94,18.29,13.52c3.5,2.65,4.25,5.81,2.16,8.6c-2.13,2.83-5.26,3-8.85,0.36c-6.49-4.79-12.94-9.64-19.88-14.83
		c-0.17,1.39-0.35,2.28-0.36,3.16c-0.03,3.97,0.41,8.01-0.1,11.92c-0.96,7.39,1.09,12.75,7.98,16.44c3.79,2.03,4.36,5.75,2.39,8.48
		c-1.98,2.76-4.98,2.93-8.88,0.52c-0.3-0.19-0.66-0.3-1-0.45C376.48,143.33,376.66,143.64,376.85,143.95z"/>
	<path class="st1" d="M299.47,74.43c0.14,4.37-3.56,6.72-8.22,5.51c-5.77-1.5-11.49-3.22-17.32-4.42
		c-27.33-5.62-54.41-4.29-81.2,3.44c-1.19,0.34-2.36,0.8-3.56,1.09c-3.66,0.88-6.59-0.55-7.54-3.62c-0.93-2.99,0.76-6.07,4.34-7.07
		c6.7-1.86,13.4-3.79,20.22-5.11c29.76-5.8,59.15-4.06,88.13,4.85C297.16,69.97,299.23,71.49,299.47,74.43z"/>
	<path class="st1" d="M240.56,419.55c-18.36-0.82-36.25-3.46-53.72-8.87c-4.14-1.28-6.15-4.02-5.26-7.22
		c0.96-3.46,4.11-4.83,8.48-3.48c17.63,5.42,35.64,8.04,54.07,7.62c15.63-0.36,30.93-2.81,45.91-7.35c1.62-0.49,3.81-1.24,5-0.57
		c1.81,1,3.76,2.95,4.24,4.87c0.72,2.82-1.27,4.99-4.12,5.74c-7.2,1.92-14.35,4.24-21.68,5.4
		C262.59,417.42,251.54,418.3,240.56,419.55z"/>
	<path class="st1" d="M60.69,236.09c0.93-17,3.54-33.63,8.64-49.84c1.29-4.1,4.13-6.07,7.31-5.11c3.42,1.03,4.7,4.12,3.34,8.55
		c-7.7,25.11-9.77,50.65-5.45,76.58c1.35,8.05,3.59,15.96,5.54,23.9c1.02,4.14,0.36,6.57-2.55,8.02c-3.28,1.64-6.97-0.01-7.96-4.17
		c-2.53-10.61-5.19-21.22-6.9-31.97C61.32,253.51,61.3,244.76,60.69,236.09z"/>
	<path class="st1" d="M419.8,239.96c-0.14,18.25-2.8,36.11-8.24,53.54c-1.27,4.09-4.15,6.05-7.33,5.08
		c-3.32-1.01-4.71-4.1-3.44-8.22c10.35-33.61,10.35-67.21,0.06-100.84c-1.33-4.34,0.08-7.5,3.57-8.43c3.2-0.85,5.88,1.13,7.19,5.31
		C416.9,203.3,419.82,222.34,419.8,239.96z"/>
	<path class="st1" d="M107.05,397.21c1.37,0,2.75-0.11,4.1,0.02c3.07,0.31,4.76,2.26,4.94,5.15c0.18,2.93-1.43,5.22-4.37,5.61
		c-3.17,0.41-6.48,0.44-9.64,0.06c-3.11-0.37-4.75-2.61-4.52-5.82c0.22-3.02,2.02-4.72,5.03-5.01c1.48-0.14,2.98-0.02,4.48-0.02
		C107.05,397.2,107.05,397.2,107.05,397.21z"/>
</g>
</svg>
