<svg width="100%" height="100%" viewBox="0 0 42 42" fill="none" xmlns="http://www.w3.org/2000/svg">
<path d="M21.0205 3.5C11.385 3.5 3.5411 11.3372 3.5376 20.9727C3.53585 24.0527 4.34257 27.0595 5.87207 29.709L3.5 38.5L12.6567 36.3364C15.21 37.7294 18.0843 38.4607 21.0103 38.4624H21.0171C30.6508 38.4624 38.4913 30.6235 38.4966 20.9897C38.5001 16.319 36.6838 11.9275 33.3833 8.62354C30.0828 5.32129 25.6965 3.50175 21.0205 3.5ZM21.0171 7C24.7551 7.00175 28.2679 8.45914 30.9087 11.0981C33.5494 13.7406 35.0001 17.2518 34.9966 20.9863C34.9931 28.6933 28.7242 34.9624 21.0137 34.9624C18.6809 34.9607 16.3702 34.3749 14.335 33.2637L13.1558 32.6211L11.8535 32.9287L8.4082 33.7422L9.24902 30.6182L9.62842 29.2168L8.90381 27.959C7.68231 25.845 7.03585 23.4279 7.0376 20.9727C7.0411 13.2692 13.3118 7 21.0171 7ZM14.834 12.9062C14.5417 12.9062 14.0692 13.0156 13.6685 13.4531C13.2677 13.8889 12.1372 14.9443 12.1372 17.0933C12.1372 19.2423 13.7026 21.3196 13.9214 21.6118C14.1384 21.9023 16.9431 26.4517 21.3828 28.2017C25.0718 29.6559 25.8211 29.3689 26.6226 29.2954C27.4241 29.2237 29.2083 28.241 29.5723 27.2207C29.9363 26.2005 29.9371 25.3228 29.8286 25.1426C29.7201 24.9606 29.4287 24.8521 28.9912 24.6333C28.5555 24.4146 26.4081 23.3601 26.0073 23.2148C25.6066 23.0696 25.3134 22.9961 25.0229 23.4336C24.7324 23.8711 23.8976 24.8521 23.6421 25.1426C23.3866 25.4348 23.1328 25.4741 22.6953 25.2554C22.2578 25.0349 20.8511 24.5725 19.1816 23.085C17.8831 21.9282 17.007 20.501 16.7515 20.0635C16.4977 19.6277 16.7275 19.3884 16.9463 19.1714C17.1423 18.9754 17.3804 18.6613 17.5991 18.4058C17.8161 18.1503 17.8914 17.9682 18.0366 17.6777C18.1819 17.3872 18.1075 17.1309 17.999 16.9121C17.8905 16.6934 17.0408 14.5364 16.6523 13.6719C16.3251 12.9456 15.9795 12.9288 15.668 12.9165C15.4142 12.906 15.1245 12.9062 14.834 12.9062Z" fill="currentColor"/>
</svg>
