<svg width="55" height="55" viewBox="0 0 55 55" fill="none" xmlns="http://www.w3.org/2000/svg">
<path d="M5.75 51C4.75 51 3.875 50.6211 3.125 49.8632C2.375 49.1053 2 48.2211 2 47.2105V16.8947C2 15.8842 2.375 15 3.125 14.2421C3.875 13.4842 4.75 13.1053 5.75 13.1053H17V6.78947C17 5.77895 17.375 4.89474 18.125 4.13684C18.875 3.37895 19.75 3 20.75 3H33.25C34.25 3 35.125 3.37895 35.875 4.13684C36.625 4.89474 37 5.77895 37 6.78947V13.1053H48.25C49.25 13.1053 50.125 13.4842 50.875 14.2421C51.625 15 52 15.8842 52 16.8947V47.2105C52 48.2211 51.625 49.1053 50.875 49.8632C50.125 50.6211 49.25 51 48.25 51H5.75ZM5.75 47.2105H48.25V16.8947H5.75V47.2105ZM20.75 13.1053H33.25V6.78947H20.75V13.1053Z" fill="#B0003C"/>
</svg>
