<?xml version="1.0" encoding="UTF-8"?><svg id="Layer_1" xmlns="http://www.w3.org/2000/svg" viewBox="0 0 1981.15 2027.28"><defs><style>.cls-1{fill:#fff;}</style></defs><path class="cls-1" d="M1838.84,1820.49l-663.82-964.39-75.05-109.07L625.13,57.17,585.77,0H2.28L144.58,206.79l631.37,917.35,75.05,108.95,507.3,737.07,39.35,57.11h583.49l-142.3-206.79Zm-371.84,74.81l-527.04-765.75-75.05-109.01L253.35,131.98h263.07l494.58,718.59,75.05,109.01,644.02,935.71h-263.07Z"/><polygon class="cls-1" points="864.92 1020.54 939.97 1129.55 851 1233.09 168.34 2027.28 0 2027.28 775.95 1124.15 864.92 1020.54"/><polygon class="cls-1" points="1910.89 0 1175.02 856.1 1086.05 959.59 1011 850.58 1099.97 747.03 1598.45 166.84 1742.55 0 1910.89 0"/></svg>